<?xml version="1.0" encoding="utf-8"?>
<!-- Generator: Adobe Illustrator 27.2.0, SVG Export Plug-In . SVG Version: 6.00 Build 0)  -->
<svg version="1.1"
	 id="Layer_1" xmlns:dc="http://purl.org/dc/elements/1.1/" xmlns:rdf="http://www.w3.org/1999/02/22-rdf-syntax-ns#" xmlns:cc="http://creativecommons.org/ns#"
	 xmlns="http://www.w3.org/2000/svg" xmlns:xlink="http://www.w3.org/1999/xlink" x="0px" y="0px" viewBox="0 0 554.4 135"
	 style="enable-background:new 0 0 554.4 135;" xml:space="preserve">
<style type="text/css">
	.st0{fill:#DF5663;}
	.st1{fill:#6558B0;}
	.st2{fill:#EAA6AC;}
	.st3{fill:#453598;}
</style>
<g id="logo-group" transform="translate(-3.8234 .76183) scale(1)">
	<path id="path12" class="st0" d="M211.6,16.8c-12.1,0-21.5,8.6-22,20c-0.3,7.4,2.9,17.4,19.9,23.2c11.6,4,11.4,9,11.3,10.6
		c-0.2,4.5-4.1,7.8-9.3,7.8c-6.2,0-8.7-3.1-9.7-5.7l-11.9,4.5c1.2,3.3,6.5,13.9,21.6,13.9c12.1,0,21.5-8.6,22-20
		c0.3-7.4-2.9-17.4-19.9-23.2c-11.6-4-11.4-9-11.3-10.6c0.2-4.5,4.1-7.8,9.3-7.8c6.2,0,8.7,3.1,9.7,5.7l11.9-4.5
		C232,27.4,226.7,16.8,211.6,16.8"/>
	<path id="path15" class="st0" d="M264.8,45.6c-9.2,0-17.5,5.6-21.1,14.1c-3.5,8.5-1.6,18.3,4.9,24.9c6.5,6.5,16.3,8.5,24.9,4.9
		c8.5-3.5,14.1-11.9,14.1-21.1C287.6,55.8,277.4,45.6,264.8,45.6 M264.8,78.7c-4.2,0-7.9-2.5-9.5-6.3c-1.6-3.8-0.7-8.3,2.2-11.2
		c2.9-2.9,7.4-3.8,11.2-2.2c3.8,1.6,6.3,5.3,6.3,9.5C275.1,74.1,270.5,78.7,264.8,78.7"/>
	<rect id="rect17" x="242" y="45.6" class="st1" width="12.5" height="72.5"/>
	<path id="path19" class="st2" d="M254.5,48.1c-4.8,2.4-8.7,6.5-10.8,11.6c-3.5,8.5-1.6,18.3,4.9,24.9c1.7,1.7,3.7,3.1,5.9,4.2
		L254.5,48.1z"/>
	<rect id="rect22" x="294.8" y="18.9" class="st1" width="12.5" height="72.5"/>
	<path id="path24" class="st0" d="M315.1,45.8L315.1,45.8c-2.6,0-5.3,0.5-7.7,1.5v0l0,0v0c-7.6,3.1-12.5,10.5-12.5,18.7v25.4h12.5
		V63.8l0,0V66c0-4.3,3.4-7.7,7.7-7.7s7.7,3.4,7.7,7.7v25.4h12.5V66C335.3,54.8,326.2,45.8,315.1,45.8L315.1,45.8z"/>
	<path id="path26" class="st2" d="M307.4,47.3c-7.6,3.1-12.5,10.5-12.5,18.7v25.4h12.5V47.3L307.4,47.3z"/>
	<path id="path29" class="st1" d="M388.9,65.4l-2.5-5.8l0-0.1l0,0l0-0.1l0,0l0-0.1l0,0l0-0.1l0,0l0,0c-0.6-1.4-1.4-2.7-2.2-3.9h0
		l-41.1,17c0.6,3.8,2.2,7.3,4.6,10.3L388.9,65.4z"/>
	<path id="path31" class="st0" d="M365.8,78.5c-1.9,0.1-3.7-0.4-5.3-1.4l-0.4,0.2l0,0l0,0l0.4-0.2c-0.1-0.1-0.3-0.2-0.4-0.3
		c-2.3-1.7-5-4.6-4.4-9.9v0c0.4-3.5,2.6-6.5,5.8-8c1.1-0.5,2.3-0.7,3.6-0.7c2.2,0,4.3,0.7,6.1,2.1c0.1,0.1,0.1,0.1,0.2,0.2l0,0
		c3.3,3.1,4.8,10.1,4.8,10.2l12.6-5.2l-2.5-5.8l0-0.1l0,0l0-0.1l0,0l0-0.1l0,0l0-0.1l0,0l0,0c0-0.1-0.1-0.1-0.1-0.2
		c-0.3-0.6-0.5-1.1-0.8-1.6c-0.1-0.2-0.2-0.3-0.3-0.5c-0.3-0.5-0.6-0.9-0.9-1.4c-0.1-0.1-0.1-0.2-0.2-0.2h0l0,0
		c-4.2-6-11.1-9.6-18.6-9.6l0,0c-12.6,0-22.8,10.2-22.8,22.8c0,1.3,0.1,2.5,0.3,3.8l0,0c0,0.2,0.1,0.4,0.1,0.6
		c0,0.2,0.1,0.4,0.1,0.5c0.1,0.6,0.3,1.2,0.5,1.8c0,0.2,0.1,0.3,0.2,0.5c0.2,0.5,0.3,1,0.5,1.5c0.1,0.2,0.1,0.3,0.2,0.5
		c0.2,0.6,0.5,1.1,0.8,1.6c0.1,0.2,0.2,0.3,0.3,0.5c0.3,0.5,0.5,0.9,0.8,1.3c0.1,0.1,0.1,0.2,0.2,0.3c0.3,0.4,0.6,0.8,0.9,1.1l0,0
		c0,0,0,0,0,0l0,0c0,0,0,0,0,0l0,0h0c4.3,5.4,11,8.8,18.6,8.8c6.8,0,12.3-2.2,18.2-7.3l-8.1-9.5C372.5,77.7,369.6,78.5,365.8,78.5
		L365.8,78.5z"/>
	<path id="path33" class="st2" d="M384,55.3l-12.6,5.2c0,0,0,0,0,0l0,0c3.3,3.1,4.8,10.1,4.8,10.2l12.6-5.2l-2.5-5.8l0-0.1l0,0
		l0-0.1l0,0l0-0.1l0,0l0-0.1l0,0l0,0c0-0.1-0.1-0.1-0.1-0.2c-0.2-0.4-0.4-0.8-0.6-1.3c-0.1-0.1-0.1-0.3-0.2-0.4
		c-0.1-0.2-0.2-0.3-0.3-0.5c-0.2-0.3-0.4-0.6-0.6-0.9C384.3,55.7,384.1,55.5,384,55.3L384,55.3L384,55.3L384,55.3L384,55.3z"/>
	<path id="path35" class="st2" d="M347.4,82.6L347.4,82.6l13.1-5.4c0,0,0,0,0,0l-0.4,0.2l0,0l0,0l0.4-0.2c-0.1-0.1-0.3-0.2-0.4-0.3
		c-2.3-1.7-5-4.6-4.4-9.9v0l-12.9,5.3c0,0.2,0.1,0.4,0.1,0.6c0,0,0,0,0,0.1c0,0.2,0.1,0.3,0.1,0.5c0.1,0.6,0.3,1.2,0.5,1.8
		c0,0.2,0.1,0.3,0.2,0.5c0.2,0.5,0.3,1,0.5,1.5c0.1,0.2,0.1,0.3,0.2,0.5c0.2,0.6,0.5,1.1,0.8,1.6c0,0,0,0,0,0.1
		c0.1,0.2,0.2,0.3,0.3,0.5c0.3,0.5,0.5,0.9,0.8,1.3c0.1,0.1,0.1,0.2,0.2,0.3C346.9,81.8,347.1,82.2,347.4,82.6L347.4,82.6
		L347.4,82.6L347.4,82.6z"/>
	<path id="path38" class="st1" d="M412.1,45.6L412.1,45.6c-1.5,0-3,0.2-4.4,0.6v0l0,0c-7.4,2-12.5,8.7-12.5,16.4v28.7h12.5V62.6l0,0
		v0c0,0,0,0,0,0l0.2-1.4c0.4-1.2,1.3-2.2,2.5-2.7c1.7-0.7,3.6-0.3,4.8,1l8.9-8.9C420.9,47.4,416.6,45.6,412.1,45.6L412.1,45.6z"/>
	<polygon id="polygon40" class="st0" points="395.1,62.6 395.1,91.3 407.6,91.3 407.6,46.2 407.6,45.6 395.1,45.6 	"/>
	<path id="path42" class="st2" d="M395.1,62.6v28.7h12.5V46.2C400.2,48.2,395.1,54.9,395.1,62.6z"/>
	<polyline id="polyline45" class="st1" points="442.9,45.7 430.3,45.7 430.3,91.3 442.9,91.3 442.9,45.7 	"/>
	<polyline id="polyline47" class="st0" points="442.9,19 430.3,19 430.3,32.2 442.9,32.2 442.9,19 	"/>
	<path id="path50" class="st1" d="M472.9,45.5c-10.3,0-19.4,6.9-22,16.9c-2.7,10,1.7,20.5,10.6,25.7c8.9,5.2,20.2,3.7,27.5-3.6
		l-8.9-8.9c-2.9,2.9-7.4,3.8-11.2,2.2c-3.8-1.6-6.3-5.3-6.3-9.5s2.5-7.9,6.3-9.5c3.8-1.6,8.3-0.7,11.2,2.2l8.9-8.9
		C484.8,47.9,479,45.5,472.9,45.5"/>
	<rect id="rect53" x="524.9" y="45.6" class="st0" width="12.5" height="45.6"/>
	<path id="path55" class="st1" d="M524.9,48.1c-3.2-1.6-6.7-2.5-10.3-2.4c-9.4,0-17.9,5.8-21.3,14.6c-3.4,8.8-1,18.8,6,25.1
		c7,6.3,17.2,7.7,25.6,3.5c7.7-3.9,12.5-11.8,12.5-20.4C537.4,59.8,532.6,52,524.9,48.1L524.9,48.1z M518.5,77.9
		c-3.8,1.6-8.3,0.7-11.2-2.2c-2.9-2.9-3.8-7.4-2.2-11.2c1.6-3.8,5.3-6.3,9.5-6.3c5.7,0,10.3,4.6,10.3,10.3
		C524.9,72.6,522.4,76.3,518.5,77.9L518.5,77.9z"/>
	<path id="path57" class="st2" d="M524.9,48.1v40.7c7.7-3.9,12.5-11.8,12.5-20.4C537.4,59.8,532.6,52,524.9,48.1z"/>
	<polyline id="polyline60" class="st1" points="558.3,18.9 545.7,18.9 545.7,91.4 558.3,91.4 558.3,18.9 	"/>
	<path id="icon" class="st3" d="M70.3-0.8c-0.5,0-1.1,0-1.2,0c-0.1,0-0.5,0-0.8,0.1s-0.8,0.1-1.2,0.1c-0.3,0-0.9,0.1-1.2,0.2
		C65.5-0.3,65-0.1,64.7,0c-0.3,0.1-0.7,0.2-0.9,0.3c-0.2,0.1-0.7,0.3-1,0.4c-0.3,0.1-0.7,0.4-0.9,0.5c-0.2,0.1-0.6,0.4-0.8,0.6
		c-0.2,0.2-0.5,0.4-0.6,0.6c-0.1,0.1-0.3,0.4-0.4,0.5s-0.3,0.4-0.3,0.6c-0.1,0.2-0.2,0.5-0.2,0.6c0,0.2-0.1,0.4-0.1,0.6
		c0,0.2,0,0.5,0,0.6c0,0.2,0.1,0.5,0.2,0.7c0.1,0.2,0.2,0.5,0.3,0.7c0.1,0.2,0.3,0.5,0.5,0.7c0.2,0.2,0.4,0.5,0.7,0.6
		c0.2,0.2,0.6,0.4,0.8,0.6c0.2,0.2,0.7,0.4,1,0.6c0.3,0.2,0.8,0.4,1,0.4c0.2,0.1,0.6,0.2,0.8,0.3c0.2,0.1,0.7,0.2,1.1,0.3
		c0.4,0.1,0.9,0.2,1.3,0.3c0.4,0.1,0.9,0.1,1.2,0.2c0.3,0,1.1,0.1,1.7,0.1c0.7,0,1.3,0,1.8,0c0.4,0,0.9-0.1,1.2-0.1
		c0.3,0,0.7-0.1,0.9-0.1c0.3,0,0.7-0.1,1.1-0.2c0.3-0.1,0.8-0.2,1.1-0.3c0.3-0.1,0.7-0.2,0.9-0.3c0.3-0.1,0.7-0.3,1-0.4
		c0.3-0.1,0.7-0.4,0.9-0.5c0.2-0.1,0.5-0.4,0.7-0.6c0.2-0.2,0.5-0.5,0.6-0.6c0.1-0.2,0.3-0.4,0.4-0.6c0.1-0.2,0.2-0.4,0.3-0.6
		c0.1-0.2,0.1-0.4,0.2-0.6C81,5.5,81,5.3,81,5.1c0-0.2,0-0.5-0.1-0.7c0-0.2-0.1-0.5-0.2-0.6c-0.1-0.1-0.2-0.4-0.3-0.6
		C80.3,3,80.1,2.8,80,2.6c-0.1-0.1-0.4-0.4-0.6-0.6c-0.2-0.2-0.5-0.4-0.8-0.6c-0.3-0.2-0.7-0.5-1.1-0.6c-0.3-0.2-0.9-0.4-1.2-0.5
		C76,0.2,75.5,0,75.2-0.1c-0.3-0.1-0.8-0.2-1.1-0.3c-0.3-0.1-0.7-0.1-1-0.2c-0.3,0-0.8-0.1-1.2-0.1C71.5-0.7,70.8-0.7,70.3-0.8
		L70.3-0.8z M104.1,7.3c-0.3,0-0.6,0-0.8,0c-0.2,0-0.5,0.1-0.6,0.1c-0.2,0-0.4,0.1-0.6,0.2c-0.2,0.1-0.5,0.2-0.6,0.3
		c-0.2,0.1-0.4,0.3-0.5,0.4c-0.1,0.1-0.2,0.3-0.3,0.5c-0.1,0.1-0.2,0.4-0.2,0.6c-0.1,0.3-0.1,0.4-0.1,0.8c0,0.3,0,0.6,0.1,0.8
		c0,0.2,0.1,0.5,0.2,0.6c0.1,0.2,0.2,0.6,0.4,0.9c0.2,0.3,0.4,0.8,0.6,1c0.2,0.2,0.4,0.6,0.5,0.7c0.1,0.2,0.4,0.5,0.7,0.8
		c0.2,0.3,0.6,0.7,0.9,0.9c0.3,0.2,0.6,0.6,0.9,0.7c0.2,0.2,0.6,0.5,0.9,0.6c0.3,0.2,0.6,0.4,0.9,0.6c0.2,0.1,0.6,0.3,0.8,0.5
		c0.2,0.1,0.7,0.3,1,0.5c0.3,0.1,0.8,0.3,1.2,0.5c0.4,0.1,0.9,0.3,1.2,0.3c0.3,0.1,0.7,0.1,0.9,0.2c0.3,0,0.7,0,1.1,0
		c0.5,0,0.8,0,1.1-0.1c0.2-0.1,0.6-0.2,0.7-0.3c0.2-0.1,0.4-0.3,0.6-0.4c0.1-0.1,0.3-0.3,0.4-0.5c0.1-0.2,0.2-0.4,0.3-0.6
		c0.1-0.2,0.1-0.4,0.1-0.6c0-0.2,0-0.5,0-0.6c0-0.2-0.1-0.4-0.1-0.6s-0.1-0.5-0.2-0.7c-0.1-0.2-0.2-0.5-0.3-0.7
		c-0.1-0.2-0.3-0.6-0.4-0.8c-0.1-0.2-0.4-0.6-0.6-0.9c-0.2-0.3-0.5-0.7-0.7-0.9c-0.2-0.2-0.6-0.6-0.8-0.8c-0.2-0.2-0.6-0.6-0.9-0.8
		c-0.3-0.2-0.7-0.5-0.9-0.7c-0.2-0.2-0.6-0.4-0.9-0.6c-0.3-0.2-0.7-0.4-1-0.5c-0.3-0.1-0.7-0.3-0.9-0.4c-0.2-0.1-0.7-0.3-0.9-0.4
		c-0.3-0.1-0.7-0.2-0.9-0.3c-0.3-0.1-0.7-0.2-1-0.2C104.9,7.4,104.4,7.3,104.1,7.3L104.1,7.3z M38.3,7.7c-0.3,0-0.8,0-1,0.1
		c-0.2,0-0.6,0.1-0.8,0.1c-0.2,0-0.6,0.2-0.9,0.2c-0.3,0.1-0.7,0.2-1,0.4c-0.3,0.1-0.8,0.3-1.1,0.5c-0.3,0.1-0.7,0.4-0.9,0.5
		c-0.2,0.1-0.5,0.3-0.8,0.5c-0.3,0.2-0.7,0.5-0.9,0.6c-0.2,0.2-0.6,0.5-0.8,0.7c-0.2,0.2-0.6,0.6-0.9,0.9c-0.3,0.3-0.7,0.7-0.8,0.9
		c-0.2,0.2-0.5,0.6-0.6,0.9c-0.2,0.3-0.4,0.7-0.6,1c-0.1,0.3-0.3,0.7-0.4,0.9s-0.2,0.5-0.2,0.7c-0.1,0.3-0.1,0.5,0,0.9
		c0,0.4,0,0.6,0.1,0.8c0,0.1,0.1,0.3,0.2,0.5c0.1,0.1,0.2,0.3,0.3,0.5c0.1,0.1,0.3,0.3,0.5,0.4c0.2,0.1,0.5,0.3,0.7,0.3
		s0.5,0.2,0.7,0.2c0.3,0.1,0.6,0.1,1,0.1c0.4,0,0.8,0,1.1-0.1c0.3,0,0.7-0.1,1-0.2c0.3-0.1,0.7-0.2,0.9-0.2c0.2-0.1,0.5-0.2,0.8-0.3
		c0.2-0.1,0.6-0.3,0.9-0.4c0.3-0.1,0.7-0.4,1-0.5c0.3-0.1,0.7-0.4,0.9-0.6c0.3-0.2,0.7-0.5,0.9-0.6c0.2-0.2,0.6-0.5,0.8-0.7
		s0.6-0.6,0.9-0.9c0.3-0.3,0.7-0.7,0.9-1c0.2-0.2,0.5-0.6,0.6-0.9c0.2-0.2,0.4-0.7,0.6-1s0.3-0.7,0.4-0.9c0.1-0.2,0.2-0.6,0.2-0.8
		c0.1-0.3,0.1-0.5,0-0.8c0-0.2-0.1-0.5-0.1-0.6c0-0.1-0.1-0.4-0.2-0.5c-0.1-0.2-0.2-0.4-0.4-0.6c-0.2-0.2-0.4-0.3-0.6-0.5
		c-0.2-0.1-0.5-0.2-0.6-0.3c-0.1,0-0.4-0.1-0.6-0.2C39.1,7.8,38.7,7.7,38.3,7.7L38.3,7.7z M88.9,11.8c-0.5,0-0.9,0-0.9,0
		c-0.1,0-0.3,0-0.6,0.1s-0.7,0.1-0.9,0.2c-0.3,0.1-0.7,0.2-0.9,0.3c-0.2,0.1-0.6,0.3-0.9,0.4c-0.3,0.1-0.7,0.4-0.9,0.5
		c-0.2,0.2-0.6,0.5-0.8,0.7c-0.2,0.2-0.5,0.6-0.7,0.8c-0.1,0.2-0.3,0.5-0.4,0.7c-0.1,0.2-0.2,0.5-0.3,0.7c-0.1,0.2-0.2,0.6-0.3,0.8
		c-0.1,0.2-0.1,0.6-0.2,0.9c0,0.3-0.1,0.7-0.1,1s0,0.7,0,0.9c0,0.2,0.1,0.6,0.1,0.9c0.1,0.3,0.2,0.7,0.3,1c0.1,0.3,0.2,0.7,0.3,1
		c0.1,0.3,0.3,0.7,0.5,1c0.1,0.3,0.4,0.8,0.6,1.1c0.2,0.3,0.5,0.8,0.7,1.1c0.2,0.3,0.5,0.7,0.7,0.9c0.2,0.2,0.6,0.6,0.8,0.9
		c0.3,0.3,0.7,0.7,0.9,0.9c0.3,0.2,0.6,0.6,0.9,0.7c0.2,0.2,0.6,0.5,0.9,0.7c0.3,0.2,0.7,0.5,1.1,0.7c0.3,0.2,0.9,0.5,1.2,0.7
		c0.3,0.2,0.9,0.4,1.2,0.6c0.3,0.1,0.9,0.3,1.2,0.5c0.3,0.1,0.9,0.3,1.2,0.4c0.3,0.1,0.8,0.2,1.1,0.2c0.3,0.1,0.8,0.1,1,0.2
		c0.3,0,0.9,0.1,1.4,0.1c0.6,0,1.1,0,1.4-0.1c0.3,0,0.8-0.1,1-0.2c0.3-0.1,0.7-0.2,0.9-0.3c0.2-0.1,0.6-0.2,0.8-0.4s0.6-0.3,0.8-0.5
		c0.2-0.2,0.6-0.5,0.9-0.7c0.3-0.2,0.6-0.6,0.7-0.8c0.1-0.2,0.3-0.5,0.5-0.7c0.1-0.2,0.3-0.6,0.4-0.8c0.1-0.2,0.2-0.6,0.3-0.8
		c0.1-0.2,0.1-0.6,0.2-0.9c0.1-0.4,0.1-0.7,0-1.3c0-0.5-0.1-1-0.1-1.2c0-0.2-0.1-0.6-0.2-0.9c-0.1-0.3-0.2-0.7-0.3-0.9
		c-0.1-0.2-0.2-0.6-0.3-0.8c-0.1-0.2-0.3-0.6-0.4-0.9c-0.1-0.3-0.4-0.7-0.5-0.9c-0.1-0.2-0.3-0.5-0.5-0.8c-0.2-0.3-0.5-0.7-0.7-0.9
		c-0.2-0.2-0.6-0.7-0.8-1c-0.3-0.3-0.7-0.8-1-1c-0.3-0.3-0.7-0.7-1-0.9c-0.3-0.2-0.7-0.5-1-0.7c-0.3-0.2-0.7-0.5-1-0.7
		c-0.3-0.2-0.9-0.5-1.3-0.7c-0.4-0.2-1-0.5-1.3-0.6c-0.3-0.1-0.8-0.3-1.1-0.4c-0.3-0.1-0.9-0.3-1.3-0.4c-0.4-0.1-0.9-0.2-1.2-0.2
		c-0.3,0-0.7-0.1-1-0.1C89.9,11.8,89.3,11.8,88.9,11.8L88.9,11.8z M52.9,11.9c-0.4,0-0.9,0-1.1,0c-0.2,0-0.6,0.1-0.9,0.1
		c-0.3,0-0.9,0.2-1.2,0.3c-0.4,0.1-0.9,0.2-1.1,0.3c-0.3,0.1-0.7,0.3-1,0.4c-0.3,0.1-0.8,0.3-1.1,0.5c-0.3,0.1-0.8,0.4-1.1,0.6
		c-0.3,0.2-0.8,0.5-1.1,0.7c-0.3,0.2-0.8,0.5-1,0.7s-0.7,0.6-1,0.8c-0.3,0.2-0.8,0.7-1.1,1.1c-0.4,0.4-0.9,0.9-1.1,1.2
		c-0.2,0.3-0.5,0.7-0.7,0.9c-0.2,0.2-0.4,0.6-0.6,0.9s-0.4,0.7-0.5,1c-0.1,0.3-0.3,0.7-0.5,1c-0.1,0.3-0.3,0.7-0.4,1
		c-0.1,0.3-0.2,0.7-0.3,1c-0.1,0.3-0.1,0.7-0.2,0.9c0,0.3,0,0.7,0,1.2c0,0.5,0,0.9,0.1,1.2c0,0.2,0.2,0.6,0.2,0.9
		c0.1,0.2,0.2,0.6,0.3,0.8c0.1,0.2,0.3,0.6,0.4,0.8c0.2,0.2,0.4,0.6,0.8,0.9c0.4,0.4,0.7,0.6,1,0.8c0.2,0.2,0.6,0.4,0.9,0.5
		s0.6,0.3,0.9,0.4s0.7,0.2,1,0.3c0.3,0.1,0.7,0.1,0.9,0.2c0.2,0,0.8,0.1,1.4,0.1c0.7,0,1.2,0,1.5-0.1c0.3,0,0.8-0.1,1.1-0.2
		c0.3-0.1,0.8-0.2,1.1-0.3c0.3-0.1,0.8-0.2,1-0.3c0.2-0.1,0.6-0.2,0.9-0.3s0.7-0.3,1.1-0.5c0.4-0.2,0.8-0.4,1.1-0.6s0.7-0.4,1.1-0.7
		c0.4-0.2,0.9-0.7,1.3-1c0.4-0.3,1-0.8,1.3-1.2c0.4-0.4,0.8-0.9,1.1-1.1c0.2-0.3,0.5-0.6,0.7-0.9c0.2-0.2,0.4-0.6,0.6-0.8
		c0.2-0.2,0.4-0.6,0.5-0.9c0.1-0.2,0.3-0.6,0.4-0.8c0.1-0.2,0.3-0.6,0.4-0.9c0.1-0.3,0.3-0.7,0.4-1c0.1-0.3,0.2-0.7,0.2-0.9
		c0-0.2,0.1-0.6,0.2-0.9c0-0.3,0.1-0.8,0.1-1.1c0-0.4,0-0.8-0.1-1.1c0-0.2-0.1-0.5-0.1-0.7c0-0.1-0.1-0.4-0.2-0.6
		c-0.1-0.2-0.2-0.5-0.3-0.7c-0.1-0.2-0.3-0.5-0.4-0.8s-0.4-0.5-0.5-0.7c-0.2-0.2-0.4-0.5-0.6-0.6c-0.2-0.2-0.5-0.4-0.7-0.6
		c-0.2-0.1-0.5-0.3-0.7-0.4c-0.2-0.1-0.5-0.2-0.7-0.3c-0.2-0.1-0.5-0.2-0.7-0.2c-0.2-0.1-0.5-0.1-0.8-0.2c-0.2,0-0.6-0.1-0.9-0.1
		C53.9,11.9,53.4,11.9,52.9,11.9L52.9,11.9z M21.9,22c-0.1,0-0.3,0-0.3,0c-0.1,0-0.3,0-0.5,0.1c-0.2,0-0.5,0.1-0.8,0.2
		c-0.2,0.1-0.6,0.3-0.9,0.4c-0.2,0.1-0.7,0.4-0.9,0.6c-0.3,0.2-0.7,0.5-0.8,0.6c-0.2,0.2-0.6,0.5-0.9,0.8c-0.3,0.3-0.8,0.8-1,1
		c-0.2,0.3-0.5,0.6-0.6,0.8c-0.1,0.2-0.4,0.5-0.5,0.8c-0.2,0.2-0.4,0.6-0.5,0.9c-0.1,0.2-0.3,0.6-0.5,0.9c-0.1,0.2-0.3,0.7-0.4,1
		c-0.1,0.3-0.3,0.7-0.4,1c-0.1,0.3-0.2,0.7-0.3,1c-0.1,0.3-0.1,0.7-0.2,1s-0.1,0.6-0.1,0.9c0,0.2,0,0.5,0,0.8c0,0.2,0.1,0.5,0.1,0.7
		c0.1,0.2,0.2,0.5,0.3,0.7c0.1,0.2,0.3,0.4,0.5,0.7c0.2,0.2,0.4,0.4,0.6,0.5c0.2,0.1,0.4,0.2,0.6,0.2c0.2,0,0.4,0.1,0.8,0.1
		c0.3,0,0.6,0,0.9-0.1c0.2,0,0.6-0.2,0.8-0.2c0.2-0.1,0.6-0.2,0.8-0.4c0.2-0.1,0.6-0.3,0.8-0.5c0.2-0.2,0.6-0.4,0.9-0.6
		c0.2-0.2,0.7-0.6,1-0.9c0.3-0.3,0.7-0.7,0.9-0.9c0.2-0.2,0.5-0.6,0.7-0.8c0.2-0.2,0.5-0.7,0.7-1c0.2-0.3,0.4-0.7,0.6-0.9
		c0.1-0.2,0.3-0.6,0.5-0.9c0.1-0.3,0.3-0.8,0.4-1c0.1-0.2,0.2-0.7,0.3-0.9c0.1-0.3,0.2-0.7,0.3-1c0.1-0.3,0.1-0.7,0.1-0.9
		s0-0.6,0-0.8c0-0.2,0-0.6-0.1-0.8c0-0.2-0.1-0.5-0.1-0.6c0-0.1-0.1-0.4-0.2-0.6c-0.1-0.2-0.3-0.4-0.5-0.7c-0.3-0.3-0.4-0.4-0.7-0.5
		c-0.3-0.1-0.5-0.2-0.8-0.2C22.2,22,22,22,21.9,22L21.9,22z M121.1,22.3c-0.2,0-0.4,0-0.6,0.1s-0.4,0.1-0.6,0.2
		c-0.3,0.1-0.4,0.2-0.7,0.5c-0.3,0.3-0.4,0.4-0.5,0.7c-0.1,0.2-0.2,0.5-0.3,0.7c0,0.2-0.1,0.6-0.1,0.8c0,0.3,0,0.6,0,1
		c0,0.3,0.1,0.8,0.1,1c0.1,0.3,0.2,0.7,0.2,1c0.1,0.3,0.2,0.8,0.4,1.1c0.1,0.3,0.4,0.9,0.6,1.3c0.2,0.4,0.5,0.9,0.6,1.2
		c0.2,0.3,0.4,0.7,0.6,0.9c0.2,0.3,0.5,0.7,0.8,1c0.2,0.3,0.7,0.7,0.9,1c0.3,0.3,0.7,0.7,1,0.9c0.3,0.2,0.7,0.5,1,0.7
		c0.3,0.2,0.7,0.4,0.9,0.5s0.6,0.3,0.8,0.4c0.2,0.1,0.6,0.2,0.8,0.2c0.3,0.1,0.6,0.1,0.9,0.1c0.3,0,0.5,0,0.8-0.1
		c0.2,0,0.4-0.1,0.6-0.2c0.2-0.1,0.4-0.3,0.6-0.5c0.2-0.2,0.4-0.4,0.5-0.6c0.1-0.2,0.2-0.4,0.2-0.6c0-0.1,0.1-0.4,0.2-0.6
		c0-0.2,0.1-0.6,0.1-0.9c0-0.3,0-0.7,0-0.9c0-0.2-0.1-0.5-0.1-0.8c0-0.2-0.1-0.6-0.2-0.9c-0.1-0.3-0.2-0.7-0.3-1
		c-0.1-0.3-0.3-0.7-0.5-1c-0.1-0.3-0.4-0.7-0.5-0.9c-0.1-0.2-0.4-0.7-0.6-1c-0.2-0.4-0.6-0.9-0.9-1.2c-0.2-0.3-0.6-0.8-0.9-1
		c-0.3-0.3-0.7-0.7-0.9-0.9c-0.2-0.2-0.6-0.5-0.8-0.6c-0.2-0.1-0.5-0.4-0.7-0.5c-0.2-0.1-0.6-0.3-0.9-0.5c-0.3-0.1-0.6-0.3-0.8-0.3
		c-0.2-0.1-0.6-0.2-0.8-0.2C121.6,22.4,121.3,22.3,121.1,22.3L121.1,22.3z M71.4,25.8c-0.4,0-1,0-1.3,0c-0.3,0-0.7,0.1-1,0.1
		c-0.3,0-0.7,0.1-0.9,0.2c-0.2,0-0.6,0.1-0.9,0.2c-0.2,0.1-0.7,0.2-1,0.3s-0.8,0.3-1.1,0.4c-0.3,0.1-0.7,0.3-1,0.5
		c-0.3,0.1-0.7,0.4-0.9,0.5c-0.2,0.1-0.6,0.4-0.9,0.6c-0.3,0.2-0.7,0.5-1,0.7c-0.3,0.2-0.7,0.6-1,0.8c-0.3,0.2-0.7,0.7-0.9,0.9
		c-0.2,0.3-0.6,0.7-0.7,0.9c-0.2,0.2-0.5,0.6-0.6,0.9c-0.2,0.3-0.4,0.6-0.5,0.9c-0.1,0.2-0.3,0.6-0.5,0.9c-0.1,0.3-0.3,0.8-0.5,1.1
		c-0.1,0.3-0.3,0.8-0.4,1c-0.1,0.2-0.2,0.6-0.2,0.8c-0.1,0.2-0.2,0.7-0.2,1c-0.1,0.3-0.1,0.8-0.2,1.2c0,0.4-0.1,1-0.1,1.6
		c0,0.6,0,1.2,0.1,1.5c0,0.3,0.1,0.7,0.1,1c0,0.2,0.1,0.6,0.2,0.8c0.1,0.3,0.2,0.7,0.2,1c0.1,0.3,0.2,0.8,0.4,1.1
		c0.1,0.3,0.4,0.9,0.6,1.3c0.2,0.4,0.5,1,0.7,1.3c0.2,0.3,0.5,0.7,0.6,1c0.2,0.2,0.4,0.6,0.6,0.8c0.2,0.2,0.7,0.7,1.1,1.2
		c0.4,0.4,1,0.9,1.3,1.2c0.3,0.2,0.8,0.6,1.1,0.8c0.3,0.2,0.8,0.5,1,0.6c0.2,0.1,0.6,0.3,0.9,0.4c0.2,0.1,0.7,0.3,1,0.4
		c0.3,0.1,0.8,0.3,1.1,0.4c0.3,0.1,0.8,0.2,1.2,0.3c0.3,0.1,0.8,0.2,1.1,0.2c0.3,0,0.9,0.1,1.2,0.1c0.4,0,1,0,1.5,0
		c0.5,0,1.1-0.1,1.5-0.1c0.4,0,0.9-0.1,1.1-0.2c0.2,0,0.6-0.1,0.9-0.2c0.3-0.1,0.6-0.2,0.8-0.2c0.2-0.1,0.6-0.2,1-0.4
		c0.4-0.1,0.9-0.4,1.3-0.6c0.3-0.2,0.9-0.5,1.2-0.7c0.3-0.2,0.8-0.5,1.1-0.8c0.3-0.2,0.8-0.6,1-0.8c0.3-0.2,0.6-0.6,0.8-0.8
		c0.2-0.2,0.5-0.5,0.6-0.7c0.1-0.2,0.4-0.5,0.6-0.7c0.2-0.2,0.5-0.6,0.6-0.9c0.2-0.3,0.4-0.6,0.5-0.9c0.1-0.2,0.3-0.6,0.5-0.9
		c0.1-0.3,0.3-0.7,0.4-0.8c0.1-0.2,0.2-0.6,0.3-0.9c0.1-0.3,0.3-0.8,0.3-1.1c0.1-0.3,0.2-0.8,0.2-1.1c0.1-0.3,0.1-0.8,0.2-1
		c0-0.2,0.1-0.9,0.1-1.7c0-0.8,0-1.4-0.1-1.7c0-0.3-0.1-0.7-0.2-1c-0.1-0.3-0.2-0.8-0.3-1.1c-0.1-0.3-0.2-0.9-0.4-1.2
		c-0.1-0.3-0.3-0.9-0.5-1.2c-0.2-0.4-0.4-0.9-0.6-1.2s-0.5-0.8-0.6-1c-0.2-0.2-0.4-0.6-0.5-0.8c-0.1-0.2-0.4-0.5-0.5-0.7
		c-0.2-0.2-0.6-0.6-0.9-1c-0.3-0.3-0.9-0.8-1.2-1.1c-0.3-0.2-0.8-0.6-1-0.8c-0.3-0.2-0.6-0.4-0.8-0.5c-0.2-0.1-0.6-0.3-0.9-0.5
		s-0.8-0.4-1-0.5c-0.3-0.1-0.8-0.3-1.1-0.4c-0.3-0.1-0.8-0.2-1-0.3c-0.2-0.1-0.7-0.2-1-0.2c-0.3-0.1-0.8-0.1-1.1-0.2
		C72.4,25.9,71.8,25.8,71.4,25.8L71.4,25.8z M30.7,32.3c-0.1,0-0.2,0-0.3,0c-0.1,0-0.4,0-0.6,0.1c-0.2,0-0.6,0.1-0.9,0.1
		c-0.3,0.1-0.8,0.2-1.1,0.3c-0.3,0.1-0.8,0.3-1,0.4c-0.2,0.1-0.6,0.3-0.9,0.4c-0.3,0.1-0.7,0.4-0.9,0.5c-0.2,0.1-0.6,0.4-0.8,0.5
		s-0.6,0.4-0.9,0.6c-0.3,0.2-0.6,0.5-0.8,0.7c-0.2,0.2-0.6,0.6-0.9,0.9c-0.3,0.3-0.8,0.8-1,1.1c-0.2,0.3-0.6,0.8-0.9,1.1
		c-0.2,0.3-0.6,0.8-0.8,1.1c-0.2,0.3-0.5,0.9-0.7,1.3c-0.2,0.4-0.4,0.9-0.5,1.1c-0.1,0.2-0.2,0.6-0.3,0.9c-0.1,0.3-0.2,0.7-0.3,1
		c-0.1,0.3-0.2,0.8-0.3,1.2c-0.1,0.3-0.2,0.9-0.2,1.2c0,0.4-0.1,0.9-0.1,1.5c0,0.6,0,1.1,0.1,1.4c0,0.2,0.1,0.6,0.2,0.9
		c0.1,0.3,0.2,0.7,0.2,0.9c0.1,0.2,0.2,0.6,0.4,0.9c0.1,0.2,0.3,0.5,0.4,0.7c0.1,0.1,0.3,0.4,0.4,0.6c0.1,0.2,0.4,0.5,0.6,0.7
		c0.2,0.2,0.5,0.5,0.8,0.7c0.3,0.2,0.6,0.4,1,0.6c0.3,0.1,0.7,0.3,0.9,0.4c0.2,0.1,0.5,0.2,0.7,0.2c0.2,0,0.5,0.1,0.7,0.1
		c0.2,0,0.6,0,0.9,0c0.3,0,0.7,0,1-0.1s0.8-0.1,1-0.2c0.3-0.1,0.8-0.2,1.1-0.3s0.9-0.3,1.1-0.4c0.3-0.1,0.7-0.3,1-0.5
		c0.3-0.2,0.8-0.5,1.2-0.7c0.3-0.2,0.9-0.6,1.2-0.9c0.3-0.2,0.8-0.7,1.2-1.1c0.3-0.3,0.8-0.8,1.1-1.1c0.3-0.3,0.6-0.8,0.9-1.1
		c0.2-0.3,0.5-0.7,0.7-0.9c0.1-0.2,0.4-0.6,0.5-0.8c0.1-0.2,0.4-0.7,0.6-1.1c0.2-0.4,0.4-0.9,0.5-1.1c0.1-0.3,0.3-0.7,0.4-1
		c0.1-0.3,0.2-0.7,0.3-1c0.1-0.3,0.2-0.7,0.2-0.9c0.1-0.3,0.1-0.7,0.2-1c0.1-0.4,0.1-0.9,0.1-1.5c0-0.6,0-1.1,0-1.4
		c0-0.3-0.1-0.7-0.2-1c-0.1-0.3-0.2-0.7-0.3-1c-0.1-0.3-0.2-0.6-0.3-0.8c-0.1-0.2-0.2-0.5-0.4-0.7c-0.1-0.2-0.3-0.5-0.4-0.7
		c-0.1-0.2-0.4-0.5-0.7-0.8c-0.2-0.2-0.6-0.6-0.8-0.7c-0.2-0.1-0.6-0.4-0.8-0.5c-0.2-0.1-0.6-0.3-0.9-0.4c-0.2-0.1-0.6-0.2-0.8-0.2
		c-0.2,0-0.7-0.1-1-0.1C31.1,32.3,30.8,32.3,30.7,32.3L30.7,32.3z M111.9,33c-0.1,0-0.4,0-0.6,0c-0.2,0-0.6,0.1-0.8,0.1
		c-0.2,0-0.6,0.2-0.9,0.2c-0.2,0.1-0.6,0.2-0.9,0.4c-0.3,0.1-0.6,0.3-0.8,0.5c-0.2,0.1-0.5,0.4-0.6,0.5c-0.2,0.1-0.4,0.4-0.6,0.6
		c-0.2,0.2-0.4,0.5-0.5,0.7s-0.3,0.5-0.4,0.7c-0.1,0.2-0.3,0.6-0.3,0.8c-0.1,0.2-0.2,0.6-0.3,0.9c-0.1,0.3-0.2,0.7-0.2,1
		c0,0.2-0.1,0.8-0.1,1.2c0,0.5,0,1,0,1.4c0,0.3,0.1,0.8,0.2,1.2c0.1,0.3,0.1,0.8,0.2,1c0.1,0.2,0.2,0.6,0.3,0.9s0.3,0.8,0.4,1.1
		c0.1,0.3,0.4,0.9,0.6,1.3c0.2,0.4,0.5,0.9,0.6,1.2c0.1,0.3,0.5,0.8,0.7,1.2c0.3,0.4,0.6,0.9,0.9,1.2c0.2,0.3,0.6,0.7,0.8,0.9
		c0.2,0.3,0.6,0.7,0.9,0.9c0.3,0.3,0.7,0.6,0.9,0.9c0.3,0.2,0.6,0.5,0.8,0.6c0.2,0.1,0.5,0.4,0.7,0.5c0.2,0.1,0.5,0.3,0.7,0.4
		c0.2,0.1,0.6,0.3,0.9,0.5c0.3,0.1,0.8,0.4,1,0.5c0.3,0.1,0.7,0.3,1,0.4c0.3,0.1,0.7,0.2,0.9,0.2c0.2,0,0.7,0.1,0.9,0.1
		c0.3,0,0.7,0.1,1,0.1c0.2,0,0.6,0,0.8,0c0.2,0,0.5-0.1,0.7-0.1c0.2,0,0.5-0.1,0.7-0.2c0.2-0.1,0.6-0.2,0.9-0.3
		c0.2-0.1,0.6-0.3,0.9-0.5c0.3-0.2,0.6-0.4,0.9-0.8c0.4-0.4,0.6-0.7,0.8-1c0.2-0.2,0.4-0.6,0.5-0.9c0.1-0.2,0.3-0.6,0.4-0.8
		c0.1-0.2,0.2-0.6,0.3-0.9c0.1-0.2,0.1-0.6,0.2-0.9c0-0.2,0.1-0.8,0.1-1.3c0-0.5,0-1,0-1.4c0-0.3-0.1-0.8-0.2-1.2
		c-0.1-0.3-0.2-0.9-0.3-1.2c-0.1-0.3-0.2-0.8-0.3-1c-0.1-0.3-0.3-0.7-0.4-1c-0.1-0.3-0.3-0.8-0.5-1c-0.1-0.3-0.4-0.7-0.5-1
		c-0.1-0.2-0.4-0.7-0.6-0.9s-0.5-0.7-0.7-1c-0.2-0.3-0.6-0.8-0.8-1.1c-0.2-0.3-0.7-0.8-1.1-1.2c-0.3-0.3-0.8-0.8-1.1-1
		c-0.3-0.2-0.7-0.5-0.9-0.7c-0.3-0.2-0.6-0.5-0.9-0.6c-0.2-0.1-0.6-0.4-0.9-0.6c-0.3-0.2-0.7-0.4-1-0.5c-0.3-0.1-0.7-0.3-1-0.4
		c-0.3-0.1-0.7-0.2-1-0.3c-0.3-0.1-0.7-0.1-0.9-0.2c-0.2,0-0.6-0.1-0.9-0.1C112.3,33,112,33,111.9,33L111.9,33z M45.7,51.1
		c-0.2,0-0.6,0-0.7,0c-0.1,0-0.5,0-0.9,0.1s-0.8,0.1-1,0.1c-0.3,0-0.7,0.1-1,0.2c-0.3,0.1-0.8,0.2-1.1,0.3c-0.3,0.1-0.8,0.3-1.1,0.4
		c-0.3,0.1-0.7,0.3-1,0.5c-0.3,0.1-0.7,0.4-0.9,0.5c-0.2,0.1-0.6,0.4-0.9,0.6c-0.3,0.2-0.7,0.5-1,0.7c-0.3,0.2-0.7,0.6-0.9,0.8
		c-0.2,0.2-0.6,0.6-0.8,0.9c-0.2,0.3-0.6,0.7-0.8,1c-0.2,0.3-0.6,0.8-0.8,1.1c-0.2,0.3-0.5,0.8-0.7,1.1c-0.2,0.3-0.4,0.9-0.6,1.3
		c-0.1,0.4-0.3,0.9-0.4,1.1c-0.1,0.3-0.2,0.7-0.3,0.9c-0.1,0.2-0.2,0.7-0.2,1c-0.1,0.3-0.1,0.8-0.2,1.2c0,0.4-0.1,1-0.1,1.6
		c0,0.6,0,1.2,0.1,1.5c0,0.3,0.1,0.8,0.1,1.1c0,0.3,0.1,0.8,0.2,1.1c0.1,0.3,0.2,0.8,0.3,1c0.1,0.2,0.2,0.7,0.4,1
		c0.1,0.3,0.4,0.8,0.5,1.2c0.2,0.3,0.4,0.8,0.6,1.1c0.2,0.3,0.4,0.7,0.6,0.9c0.2,0.2,0.4,0.6,0.6,0.8c0.2,0.2,0.7,0.7,1.1,1.2
		c0.4,0.4,1,0.9,1.3,1.2c0.3,0.2,0.8,0.6,1.1,0.8c0.3,0.2,0.8,0.5,1,0.6c0.2,0.1,0.6,0.3,0.9,0.4s0.7,0.3,0.9,0.4
		c0.3,0.1,0.8,0.3,1.1,0.4c0.3,0.1,0.8,0.2,1.1,0.3c0.3,0.1,0.8,0.2,1,0.2c0.3,0,0.7,0.1,1,0.1c0.3,0,0.9,0.1,1.6,0.1
		c0.9,0,1.3,0,1.7-0.1c0.3,0,0.8-0.1,1-0.2c0.3,0,0.7-0.2,1.1-0.2c0.3-0.1,0.8-0.2,1-0.3c0.2-0.1,0.6-0.2,0.9-0.3
		c0.3-0.1,0.8-0.3,1.1-0.5c0.3-0.2,0.8-0.4,1.1-0.6c0.3-0.2,0.6-0.4,0.9-0.6c0.2-0.2,0.6-0.4,0.8-0.6c0.2-0.2,0.7-0.6,1-0.9
		c0.3-0.3,0.7-0.7,0.9-0.9c0.2-0.2,0.5-0.6,0.7-0.8c0.2-0.2,0.5-0.6,0.6-0.9c0.2-0.3,0.4-0.6,0.5-0.9c0.1-0.2,0.3-0.6,0.5-0.9
		c0.1-0.3,0.3-0.7,0.4-0.9c0.1-0.2,0.2-0.6,0.3-0.9c0.1-0.3,0.2-0.7,0.3-1c0.1-0.3,0.2-0.7,0.2-1c0-0.3,0.1-0.7,0.2-0.9
		c0-0.3,0.1-0.9,0.1-1.5c0-0.6,0-1.3,0-1.6c0-0.3-0.1-0.9-0.2-1.2c-0.1-0.3-0.2-0.9-0.2-1.1c-0.1-0.3-0.2-0.9-0.4-1.3
		c-0.1-0.4-0.3-1-0.5-1.3c-0.1-0.3-0.3-0.8-0.5-1c-0.1-0.3-0.4-0.7-0.5-0.9c-0.2-0.2-0.4-0.6-0.6-0.8c-0.2-0.2-0.4-0.6-0.6-0.8
		c-0.2-0.2-0.5-0.6-0.7-0.8c-0.2-0.2-0.6-0.6-0.8-0.8c-0.2-0.2-0.6-0.5-0.8-0.7c-0.2-0.2-0.6-0.5-0.9-0.7s-0.7-0.4-0.9-0.6
		c-0.2-0.1-0.6-0.3-0.9-0.5c-0.3-0.1-0.8-0.4-1-0.5c-0.3-0.1-0.8-0.3-1.1-0.4c-0.3-0.1-0.8-0.2-1-0.3c-0.2-0.1-0.6-0.1-0.8-0.2
		c-0.2,0-0.6-0.1-0.9-0.1c-0.3,0-0.8-0.1-1.1-0.1C46.4,51.1,45.9,51.1,45.7,51.1L45.7,51.1z M96.7,51.6c-0.1,0-0.4,0-0.7,0
		s-0.8,0.1-1.1,0.1c-0.3,0-0.8,0.1-1.1,0.2c-0.3,0.1-0.9,0.2-1.2,0.3c-0.3,0.1-0.8,0.3-1.1,0.4c-0.3,0.1-0.7,0.3-1,0.4
		c-0.3,0.1-0.7,0.4-1,0.5c-0.3,0.2-0.8,0.5-1.1,0.7c-0.3,0.2-0.7,0.5-1,0.7c-0.2,0.2-0.6,0.5-0.9,0.8c-0.3,0.2-0.7,0.6-0.9,0.9
		c-0.2,0.3-0.6,0.6-0.7,0.9c-0.2,0.2-0.4,0.6-0.6,0.8c-0.2,0.2-0.4,0.6-0.6,0.8c-0.2,0.2-0.4,0.7-0.6,1.1c-0.2,0.4-0.4,0.9-0.6,1.2
		c-0.1,0.3-0.3,0.8-0.4,1c-0.1,0.2-0.2,0.6-0.3,0.9c-0.1,0.3-0.2,0.7-0.2,1c0,0.3-0.1,0.7-0.2,0.9c0,0.3-0.1,0.9-0.1,1.5
		c0,0.6,0,1.2,0,1.6c0,0.3,0.1,0.9,0.2,1.3c0.1,0.3,0.2,0.9,0.2,1.2c0.1,0.3,0.2,0.8,0.3,1.1c0.1,0.3,0.3,0.7,0.4,1
		c0.1,0.3,0.3,0.8,0.5,1c0.1,0.3,0.4,0.7,0.5,0.9c0.1,0.2,0.4,0.6,0.6,0.9c0.2,0.3,0.5,0.8,0.7,1s0.6,0.7,1,1.1
		c0.3,0.3,0.8,0.8,1.1,1.1c0.3,0.2,0.7,0.6,1,0.8c0.3,0.2,0.6,0.4,0.8,0.6c0.2,0.1,0.7,0.4,1.1,0.6c0.4,0.2,1,0.5,1.3,0.6
		c0.3,0.1,0.7,0.3,1,0.4s0.6,0.2,0.8,0.2c0.2,0,0.6,0.1,0.9,0.2c0.3,0.1,0.9,0.2,1.2,0.2c0.4,0.1,0.9,0.1,1.8,0.1c1,0,1.4,0,1.9-0.1
		c0.3,0,0.9-0.1,1.2-0.2c0.3-0.1,0.9-0.2,1.2-0.3c0.3-0.1,0.9-0.3,1.2-0.4c0.3-0.1,0.9-0.4,1.3-0.6c0.4-0.2,0.9-0.5,1.2-0.6
		c0.3-0.2,0.7-0.4,0.9-0.6c0.2-0.2,0.6-0.5,0.8-0.6c0.2-0.2,0.6-0.5,0.8-0.7c0.2-0.2,0.6-0.6,0.8-0.8c0.2-0.2,0.5-0.6,0.7-0.8
		c0.2-0.2,0.4-0.6,0.6-0.8c0.2-0.2,0.4-0.6,0.5-0.8c0.1-0.2,0.4-0.6,0.5-0.8c0.1-0.2,0.3-0.6,0.5-1c0.1-0.3,0.3-0.8,0.5-1.2
		c0.1-0.3,0.3-0.8,0.3-1.1c0.1-0.3,0.2-0.6,0.2-0.9c0-0.2,0.1-0.6,0.1-0.8c0-0.2,0.1-0.6,0.1-0.9c0-0.3,0-0.9,0-1.4
		c0-0.6,0-1.2-0.1-1.6c0-0.3-0.1-0.9-0.2-1.2c-0.1-0.3-0.2-0.8-0.2-1c-0.1-0.2-0.2-0.6-0.2-0.8c-0.1-0.2-0.2-0.6-0.3-1
		c-0.1-0.3-0.4-0.9-0.5-1.2c-0.2-0.3-0.5-0.9-0.6-1.2c-0.2-0.3-0.5-0.8-0.7-1c-0.2-0.3-0.5-0.7-0.7-0.9c-0.2-0.2-0.6-0.7-1-1.1
		c-0.3-0.3-0.9-0.8-1.2-1.1c-0.3-0.2-0.8-0.6-1-0.8c-0.3-0.2-0.7-0.4-0.9-0.6c-0.2-0.1-0.6-0.3-0.9-0.5c-0.2-0.1-0.7-0.3-0.9-0.4
		c-0.3-0.1-0.7-0.3-1-0.4c-0.3-0.1-0.8-0.3-1.2-0.4c-0.4-0.1-1.1-0.2-1.5-0.3c-0.4-0.1-1.1-0.1-1.5-0.1
		C97.2,51.6,96.8,51.6,96.7,51.6L96.7,51.6z M9.4,54.7c-0.2,0-0.5,0-0.6,0.1c-0.1,0-0.4,0.1-0.5,0.2c-0.2,0.1-0.4,0.2-0.6,0.3
		c-0.2,0.1-0.4,0.3-0.6,0.4C7,55.8,6.8,56,6.6,56.1c-0.1,0.1-0.3,0.4-0.4,0.5c-0.1,0.2-0.3,0.5-0.5,0.8c-0.2,0.3-0.4,0.7-0.5,1
		c-0.1,0.3-0.3,0.7-0.4,1c-0.1,0.3-0.3,0.9-0.4,1.3s-0.2,1-0.3,1.3C4,62.3,4,62.8,3.9,63.1c0,0.4-0.1,1-0.1,1.8c0,0.8,0,1.5,0,1.9
		c0,0.3,0.1,0.8,0.1,1.1c0,0.3,0.1,0.7,0.2,1c0.1,0.3,0.2,0.8,0.2,1.1c0.1,0.3,0.2,0.7,0.3,1c0.1,0.3,0.3,0.7,0.4,1
		c0.1,0.3,0.3,0.7,0.5,1C5.6,73.4,5.9,73.8,6,74c0.1,0.2,0.4,0.6,0.5,0.7c0.1,0.2,0.4,0.4,0.6,0.6c0.2,0.1,0.4,0.3,0.6,0.5
		c0.2,0.1,0.4,0.2,0.5,0.3c0.1,0.1,0.3,0.1,0.5,0.2c0.1,0,0.4,0.1,0.6,0.1c0.2,0,0.4,0,0.6,0c0.2,0,0.5-0.1,0.6-0.1
		c0.2,0,0.5-0.2,0.7-0.3s0.5-0.3,0.7-0.5c0.2-0.2,0.5-0.4,0.7-0.6c0.2-0.2,0.4-0.5,0.6-0.7s0.3-0.5,0.4-0.7c0.1-0.2,0.3-0.5,0.4-0.8
		c0.1-0.2,0.3-0.7,0.4-1c0.1-0.3,0.3-0.9,0.4-1.3c0.1-0.4,0.2-1,0.3-1.3c0.1-0.3,0.1-0.8,0.2-1.2c0.1-0.5,0.1-0.9,0.1-2.2
		c0-1.3,0-1.7-0.1-2.2c0-0.3-0.1-0.9-0.2-1.2c-0.1-0.3-0.2-0.9-0.3-1.2c-0.1-0.3-0.2-0.9-0.4-1.2c-0.1-0.3-0.3-0.9-0.5-1.2
		c-0.2-0.3-0.4-0.8-0.6-1.1c-0.2-0.3-0.4-0.6-0.5-0.8c-0.1-0.2-0.4-0.5-0.7-0.8c-0.3-0.3-0.6-0.6-0.8-0.7c-0.2-0.1-0.5-0.3-0.6-0.3
		c-0.2-0.1-0.5-0.2-0.6-0.2C9.9,54.8,9.6,54.7,9.4,54.7L9.4,54.7z M133,57.1c-0.3,0-0.5,0-0.8,0.1c-0.2,0-0.5,0.2-0.7,0.3
		c-0.2,0.1-0.5,0.3-0.7,0.4c-0.2,0.1-0.4,0.4-0.6,0.6c-0.2,0.2-0.5,0.5-0.6,0.7s-0.4,0.6-0.5,0.8c-0.1,0.2-0.3,0.6-0.4,0.9
		c-0.1,0.3-0.3,0.8-0.4,1.1c-0.1,0.3-0.3,0.9-0.4,1.2c-0.1,0.3-0.2,0.9-0.3,1.2c-0.1,0.3-0.1,0.9-0.2,1.2c-0.1,0.5-0.1,1-0.1,2.2
		c0,1,0,1.7,0.1,2c0,0.3,0.1,0.8,0.2,1.3c0.1,0.4,0.2,1.1,0.3,1.4c0.1,0.4,0.3,0.9,0.4,1.3c0.1,0.3,0.3,0.8,0.4,1
		c0.1,0.2,0.3,0.6,0.4,0.9c0.1,0.2,0.4,0.6,0.5,0.9c0.2,0.2,0.4,0.6,0.6,0.8c0.2,0.2,0.4,0.4,0.5,0.5c0.1,0.1,0.3,0.3,0.5,0.4
		s0.4,0.2,0.6,0.3s0.4,0.2,0.6,0.2c0.2,0.1,0.5,0.1,0.8,0.1c0.3,0,0.5,0,0.8-0.1c0.2,0,0.5-0.2,0.7-0.3c0.2-0.1,0.5-0.3,0.6-0.4
		c0.2-0.1,0.4-0.4,0.6-0.6c0.2-0.2,0.4-0.5,0.5-0.6s0.3-0.4,0.4-0.6c0.1-0.2,0.3-0.5,0.4-0.8s0.3-0.7,0.4-1c0.1-0.3,0.3-0.7,0.3-1
		c0.1-0.3,0.2-0.6,0.2-0.9c0.1-0.2,0.1-0.6,0.2-0.9c0.1-0.3,0.1-0.9,0.2-1.2c0-0.4,0.1-1.1,0.1-1.6c0-0.6,0-1.2,0-1.7
		c0-0.5-0.1-1-0.1-1.2c0-0.2-0.1-0.6-0.1-0.8s-0.1-0.6-0.1-0.9c0-0.2-0.1-0.7-0.2-0.9c-0.1-0.3-0.2-0.7-0.3-1s-0.3-0.7-0.4-1
		c-0.1-0.3-0.3-0.7-0.5-1c-0.1-0.3-0.4-0.6-0.5-0.8c-0.1-0.2-0.3-0.5-0.5-0.7c-0.1-0.2-0.4-0.4-0.6-0.6c-0.2-0.2-0.5-0.4-0.6-0.5
		s-0.4-0.3-0.6-0.4c-0.2-0.1-0.5-0.2-0.6-0.2C133.5,57.1,133.3,57.1,133,57.1L133,57.1z M23.7,76.4c-0.2,0-0.6,0-0.9,0
		c-0.3,0-0.7,0.1-0.9,0.1c-0.2,0-0.6,0.1-0.8,0.2c-0.2,0.1-0.6,0.2-0.8,0.4s-0.6,0.3-0.8,0.4c-0.2,0.1-0.4,0.3-0.6,0.5
		c-0.2,0.2-0.5,0.4-0.6,0.6c-0.2,0.2-0.4,0.5-0.6,0.7c-0.1,0.2-0.3,0.5-0.4,0.7s-0.2,0.5-0.3,0.8c-0.1,0.2-0.2,0.6-0.3,0.9
		c-0.1,0.3-0.2,0.8-0.2,1c0,0.3-0.1,0.8-0.1,1.3c0,0.5,0,1,0,1.3c0,0.3,0.1,0.8,0.2,1.2c0.1,0.4,0.2,0.9,0.2,1.2
		c0.1,0.3,0.2,0.7,0.3,1c0.1,0.2,0.2,0.7,0.4,1.1c0.1,0.3,0.4,1,0.6,1.4c0.2,0.4,0.5,1,0.7,1.2c0.2,0.3,0.4,0.7,0.6,0.9
		c0.1,0.2,0.4,0.6,0.6,0.8c0.2,0.3,0.5,0.6,0.7,0.9s0.7,0.7,1.1,1.1c0.4,0.4,0.9,0.9,1.2,1.1c0.2,0.2,0.7,0.5,1,0.7
		c0.3,0.2,0.8,0.5,1,0.7c0.3,0.2,0.8,0.4,1.1,0.6c0.3,0.1,0.8,0.4,1,0.5c0.3,0.1,0.7,0.3,1,0.3c0.3,0.1,0.7,0.2,0.9,0.2
		c0.2,0,0.6,0.1,0.9,0.2c0.3,0,0.8,0.1,1,0.1c0.3,0,0.7,0,1-0.1c0.3,0,0.7-0.1,0.9-0.2c0.2-0.1,0.5-0.2,0.7-0.2
		c0.2-0.1,0.5-0.2,0.7-0.3c0.2-0.1,0.6-0.3,0.8-0.5c0.2-0.2,0.6-0.5,0.8-0.7c0.3-0.3,0.6-0.6,0.8-0.9c0.2-0.2,0.4-0.6,0.5-0.9
		c0.1-0.2,0.3-0.6,0.4-0.9c0.1-0.2,0.2-0.6,0.3-0.9c0.1-0.2,0.1-0.6,0.2-0.9c0-0.2,0.1-0.8,0.1-1.3c0-0.5,0-1,0-1.4
		c0-0.3-0.1-0.8-0.1-1.1c-0.1-0.3-0.2-0.9-0.2-1.2c-0.1-0.3-0.2-0.8-0.3-1.1c-0.1-0.3-0.3-0.7-0.4-1c-0.1-0.3-0.4-0.9-0.6-1.3
		c-0.2-0.4-0.5-0.9-0.6-1.2c-0.2-0.3-0.4-0.7-0.6-0.9c-0.2-0.2-0.4-0.6-0.6-0.8c-0.2-0.2-0.5-0.6-0.7-0.8s-0.5-0.6-0.7-0.8
		s-0.6-0.6-0.9-0.9c-0.3-0.3-0.7-0.6-0.9-0.7s-0.5-0.4-0.8-0.6c-0.2-0.2-0.6-0.4-0.8-0.5s-0.5-0.3-0.8-0.5c-0.3-0.1-0.6-0.3-0.9-0.4
		c-0.2-0.1-0.6-0.3-0.8-0.3c-0.2-0.1-0.6-0.2-0.9-0.3c-0.3-0.1-0.7-0.2-0.9-0.2c-0.2,0-0.6-0.1-0.8-0.1
		C24.3,76.5,23.9,76.4,23.7,76.4L23.7,76.4z M71.5,76.8c-0.1,0-0.4,0-0.8,0c-0.3,0-0.8,0.1-1.1,0.1c-0.3,0-0.7,0.1-1,0.2
		c-0.2,0-0.6,0.1-0.9,0.2c-0.3,0.1-0.7,0.2-1,0.3c-0.3,0.1-0.7,0.2-0.9,0.3c-0.2,0.1-0.7,0.3-1.1,0.5c-0.4,0.2-0.9,0.5-1.2,0.6
		c-0.3,0.2-0.7,0.4-0.9,0.6c-0.2,0.2-0.6,0.4-0.8,0.6c-0.2,0.2-0.6,0.5-0.8,0.7c-0.3,0.2-0.7,0.7-0.9,0.9c-0.3,0.3-0.6,0.7-0.8,0.9
		c-0.2,0.2-0.5,0.7-0.7,0.9c-0.2,0.3-0.5,0.7-0.6,1c-0.2,0.3-0.4,0.8-0.6,1.1c-0.1,0.3-0.4,0.8-0.5,1.1c-0.1,0.3-0.3,0.8-0.4,1.1
		c-0.1,0.3-0.2,0.8-0.3,1.2c-0.1,0.3-0.2,0.9-0.2,1.1c0,0.3-0.1,1-0.1,1.6c0,0.8,0,1.2,0,1.7c0,0.4,0.1,0.9,0.2,1.2
		c0,0.3,0.2,0.8,0.2,1.1c0.1,0.3,0.2,0.9,0.3,1.2c0.1,0.3,0.3,0.8,0.4,1.1c0.1,0.3,0.3,0.7,0.5,1c0.1,0.3,0.4,0.8,0.6,1
		c0.2,0.3,0.4,0.7,0.6,0.9c0.2,0.2,0.4,0.6,0.6,0.8c0.2,0.2,0.7,0.8,1.1,1.2c0.4,0.4,1,0.9,1.2,1.1c0.2,0.2,0.6,0.5,0.8,0.6
		c0.2,0.1,0.6,0.4,0.9,0.6c0.3,0.2,0.8,0.5,1.2,0.6c0.4,0.2,0.8,0.4,1.1,0.5c0.2,0.1,0.6,0.2,0.9,0.3c0.3,0.1,0.8,0.2,1.1,0.3
		s0.8,0.2,1.1,0.2c0.3,0,0.7,0.1,0.9,0.1c0.3,0,0.9,0.1,1.7,0.1c0.9,0,1.4,0,1.8-0.1c0.3,0,0.8-0.1,1-0.2c0.2,0,0.7-0.1,1-0.2
		c0.3-0.1,0.8-0.2,1.1-0.3c0.3-0.1,0.8-0.3,1.2-0.5c0.4-0.2,0.9-0.4,1.2-0.6c0.3-0.2,0.8-0.5,1.2-0.7c0.4-0.2,0.8-0.6,1.1-0.8
		c0.2-0.2,0.6-0.5,0.9-0.8c0.2-0.2,0.6-0.6,0.8-0.8c0.2-0.2,0.6-0.6,0.8-0.9c0.2-0.2,0.5-0.7,0.8-1c0.2-0.3,0.5-0.8,0.7-1.1
		c0.2-0.3,0.4-0.8,0.5-1c0.1-0.3,0.3-0.7,0.4-1c0.1-0.3,0.3-0.8,0.4-1.1c0.1-0.3,0.2-0.9,0.3-1.2c0.1-0.3,0.2-0.8,0.2-1.1
		c0-0.3,0.1-0.8,0.1-1.2c0-0.4,0-1,0-1.5c0-0.4-0.1-1-0.1-1.2c0-0.3-0.1-0.7-0.2-0.9c0-0.3-0.1-0.7-0.2-0.9c-0.1-0.3-0.2-0.7-0.3-1
		c-0.1-0.3-0.3-0.7-0.4-1c-0.1-0.3-0.3-0.8-0.5-1.1c-0.2-0.3-0.4-0.8-0.6-1.1c-0.2-0.3-0.4-0.7-0.6-0.9c-0.2-0.2-0.5-0.6-0.7-0.9
		c-0.2-0.2-0.6-0.7-1-1.1c-0.4-0.4-0.9-0.8-1.1-1c-0.3-0.2-0.7-0.5-0.9-0.7c-0.2-0.2-0.6-0.4-0.9-0.6c-0.3-0.2-0.8-0.4-1.1-0.6
		c-0.3-0.2-0.8-0.4-1.1-0.5c-0.3-0.1-0.8-0.3-1-0.4c-0.3-0.1-0.7-0.2-0.9-0.3c-0.2-0.1-0.6-0.1-0.9-0.2c-0.2,0-0.7-0.1-0.9-0.1
		c-0.3,0-0.8-0.1-1.2-0.1C72,76.8,71.6,76.8,71.5,76.8L71.5,76.8z M118.9,77.1c-0.1,0-0.3,0-0.5,0c-0.2,0-0.6,0.1-0.8,0.1
		s-0.7,0.1-1,0.2c-0.3,0.1-0.7,0.2-1,0.3c-0.2,0.1-0.6,0.2-0.9,0.3c-0.2,0.1-0.6,0.3-0.9,0.4c-0.2,0.1-0.6,0.4-0.9,0.5
		c-0.2,0.1-0.6,0.4-0.8,0.6c-0.2,0.2-0.6,0.4-0.8,0.6c-0.2,0.2-0.6,0.5-0.9,0.8c-0.3,0.3-0.7,0.7-1,1c-0.3,0.3-0.7,0.8-0.9,1.1
		c-0.2,0.3-0.6,0.7-0.7,1c-0.2,0.2-0.5,0.7-0.7,1c-0.2,0.3-0.5,0.9-0.8,1.4s-0.5,1.1-0.7,1.5c-0.1,0.4-0.3,0.9-0.4,1.3
		c-0.1,0.3-0.2,0.9-0.3,1.2c-0.1,0.3-0.2,0.8-0.2,1.1c-0.1,0.4-0.1,0.9-0.1,1.5c0,0.7,0,1.1,0,1.5c0,0.3,0.1,0.8,0.2,1.1
		c0.1,0.3,0.2,0.7,0.3,0.9c0.1,0.2,0.2,0.6,0.3,0.8s0.3,0.5,0.4,0.7c0.1,0.2,0.3,0.5,0.4,0.6c0.1,0.2,0.4,0.5,0.7,0.7
		s0.6,0.5,0.8,0.7c0.2,0.1,0.6,0.3,0.8,0.4c0.2,0.1,0.5,0.2,0.8,0.3c0.2,0.1,0.6,0.2,0.8,0.2c0.2,0,0.6,0.1,0.9,0.1
		c0.3,0,0.7,0,1.1,0c0.4,0,0.9-0.1,1.1-0.1c0.3,0,0.7-0.1,1-0.2c0.3-0.1,0.7-0.2,1-0.3s0.9-0.4,1.3-0.6c0.4-0.2,1-0.5,1.3-0.7
		c0.3-0.2,0.6-0.4,0.8-0.6c0.2-0.1,0.5-0.4,0.8-0.6c0.2-0.2,0.6-0.5,0.9-0.8c0.3-0.3,0.7-0.7,1-1c0.3-0.3,0.7-0.8,0.9-1
		c0.2-0.3,0.5-0.7,0.7-0.9c0.2-0.2,0.5-0.7,0.7-1c0.2-0.3,0.5-0.9,0.7-1.3c0.2-0.4,0.4-0.9,0.6-1.2c0.1-0.3,0.3-0.7,0.4-1.1
		c0.1-0.3,0.3-0.9,0.4-1.2c0.1-0.3,0.2-0.9,0.3-1.3c0.1-0.3,0.1-0.9,0.2-1.3c0-0.4,0-0.9,0-1.3c0-0.4-0.1-0.9-0.1-1.1
		c0-0.2-0.1-0.6-0.1-0.8c0-0.2-0.2-0.6-0.3-0.9c-0.1-0.3-0.3-0.7-0.3-0.9c-0.1-0.2-0.3-0.5-0.4-0.8c-0.1-0.2-0.4-0.6-0.6-0.8
		c-0.2-0.2-0.5-0.5-0.7-0.7s-0.5-0.4-0.7-0.5c-0.2-0.1-0.5-0.3-0.8-0.4c-0.2-0.1-0.6-0.3-0.8-0.3c-0.2-0.1-0.6-0.2-0.8-0.2
		c-0.2,0-0.7-0.1-1-0.1C119.3,77.1,119,77.1,118.9,77.1L118.9,77.1z M14.8,95.7c-0.3,0-0.5,0-0.7,0.1c-0.2,0-0.4,0.1-0.5,0.2
		c-0.1,0.1-0.3,0.2-0.5,0.3c-0.1,0.1-0.3,0.3-0.4,0.4c-0.1,0.1-0.3,0.4-0.3,0.6c-0.1,0.2-0.2,0.4-0.2,0.6c0,0.2-0.1,0.5-0.1,0.7
		c0,0.2,0,0.5,0,0.7c0,0.2,0,0.6,0.1,0.8c0,0.3,0.1,0.7,0.2,1s0.2,0.8,0.3,1.1s0.3,0.8,0.4,1c0.1,0.2,0.3,0.7,0.5,1
		c0.2,0.3,0.4,0.8,0.6,1c0.2,0.2,0.4,0.6,0.5,0.8c0.1,0.2,0.4,0.6,0.6,0.8c0.2,0.2,0.5,0.6,0.8,0.9c0.2,0.3,0.6,0.7,0.9,0.9
		c0.3,0.2,0.6,0.6,0.8,0.7c0.2,0.1,0.5,0.4,0.8,0.5c0.2,0.2,0.6,0.4,0.9,0.5c0.3,0.1,0.7,0.3,0.9,0.4c0.2,0.1,0.6,0.2,0.8,0.2
		c0.2,0,0.5,0.1,0.7,0.1c0.2,0,0.5,0,0.6-0.1c0.2,0,0.5-0.1,0.7-0.2c0.2-0.1,0.4-0.2,0.6-0.4c0.1-0.1,0.3-0.3,0.4-0.5
		c0.1-0.2,0.3-0.5,0.3-0.6c0.1-0.2,0.2-0.5,0.2-0.7c0-0.2,0.1-0.6,0.1-0.9c0-0.4,0-0.7,0-1.1c0-0.3-0.1-0.7-0.2-1
		c-0.1-0.3-0.2-0.8-0.3-1.1c-0.1-0.3-0.3-0.8-0.4-1.1c-0.1-0.3-0.3-0.8-0.5-1c-0.1-0.3-0.4-0.7-0.5-0.9c-0.2-0.2-0.4-0.7-0.6-0.9
		s-0.5-0.7-0.7-0.9c-0.2-0.3-0.7-0.7-1-1.1c-0.3-0.3-0.8-0.8-1.1-1c-0.2-0.2-0.6-0.5-0.9-0.6c-0.2-0.2-0.7-0.4-0.9-0.5
		c-0.3-0.1-0.7-0.3-0.9-0.4c-0.2-0.1-0.6-0.2-0.8-0.2C15.4,95.7,15,95.7,14.8,95.7L14.8,95.7z M127.5,96.1c-0.2,0-0.5,0-0.8,0
		c-0.2,0-0.6,0.1-0.8,0.2c-0.2,0.1-0.6,0.2-0.8,0.3c-0.2,0.1-0.6,0.3-0.8,0.4c-0.2,0.1-0.6,0.4-0.9,0.6c-0.3,0.2-0.7,0.5-0.9,0.8
		c-0.3,0.2-0.6,0.6-0.8,0.8c-0.2,0.2-0.6,0.6-0.8,0.9c-0.2,0.3-0.6,0.7-0.8,1c-0.2,0.3-0.5,0.7-0.6,0.9c-0.1,0.2-0.3,0.6-0.5,0.9
		c-0.2,0.3-0.4,0.8-0.5,1.2c-0.1,0.3-0.3,0.8-0.4,1.1c-0.1,0.3-0.2,0.7-0.3,1c-0.1,0.3-0.1,0.8-0.1,1.1c0,0.4,0,0.7,0,1
		c0,0.3,0.1,0.6,0.1,0.8c0,0.2,0.1,0.4,0.2,0.6c0.1,0.2,0.2,0.4,0.3,0.6c0.1,0.2,0.3,0.4,0.4,0.5c0.1,0.1,0.4,0.2,0.5,0.3
		c0.1,0.1,0.4,0.2,0.5,0.2c0.2,0,0.5,0.1,0.7,0.1c0.3,0,0.6,0,0.8-0.1c0.2,0,0.5-0.1,0.6-0.2c0.2-0.1,0.6-0.2,0.8-0.3
		s0.7-0.3,0.9-0.5c0.2-0.1,0.6-0.4,0.8-0.6c0.3-0.2,0.7-0.5,0.9-0.8c0.3-0.2,0.7-0.6,0.9-0.9c0.2-0.3,0.6-0.6,0.7-0.8
		c0.2-0.2,0.5-0.7,0.8-1.1c0.2-0.4,0.6-0.9,0.8-1.2c0.2-0.3,0.4-0.8,0.5-1c0.1-0.3,0.3-0.7,0.4-0.9c0.1-0.2,0.2-0.6,0.3-0.9
		c0.1-0.3,0.2-0.6,0.2-0.9c0-0.2,0.1-0.6,0.1-0.8c0-0.2,0-0.7,0-1.1c0-0.6,0-0.8-0.1-1.1c-0.1-0.2-0.2-0.6-0.3-0.8
		c-0.1-0.3-0.3-0.5-0.5-0.7c-0.2-0.2-0.4-0.3-0.6-0.4c-0.2-0.1-0.4-0.2-0.6-0.2C128,96.1,127.7,96.1,127.5,96.1L127.5,96.1z
		 M98.1,100.1c-0.3,0-0.7,0-0.9,0c-0.1,0-0.5,0-0.7,0.1c-0.3,0-0.7,0.1-1,0.1c-0.3,0-0.7,0.1-1,0.2c-0.3,0.1-0.7,0.2-1,0.3
		c-0.3,0.1-0.8,0.3-1.2,0.4c-0.4,0.2-1,0.4-1.4,0.6c-0.4,0.2-0.9,0.5-1.2,0.6c-0.3,0.1-0.7,0.4-0.9,0.6c-0.2,0.2-0.6,0.4-0.8,0.6
		c-0.2,0.2-0.6,0.5-0.9,0.7s-0.8,0.7-1.1,1.1c-0.4,0.4-0.8,0.9-1,1.1c-0.2,0.3-0.5,0.6-0.6,0.7s-0.3,0.5-0.5,0.8
		c-0.2,0.3-0.4,0.6-0.5,0.8c-0.1,0.2-0.3,0.5-0.4,0.8c-0.1,0.3-0.3,0.7-0.4,0.9c-0.1,0.2-0.2,0.6-0.3,0.8c-0.1,0.2-0.2,0.6-0.2,0.8
		c-0.1,0.2-0.1,0.6-0.2,0.9c-0.1,0.3-0.1,0.7-0.1,1.2c0,0.5,0,0.9,0,1.2c0,0.2,0.1,0.6,0.1,0.8c0,0.2,0.2,0.6,0.2,0.8
		c0.1,0.2,0.2,0.6,0.4,0.9c0.1,0.2,0.4,0.6,0.5,0.8c0.2,0.2,0.4,0.5,0.5,0.7c0.1,0.1,0.4,0.4,0.5,0.5c0.2,0.1,0.4,0.3,0.6,0.5
		s0.5,0.3,0.8,0.4s0.6,0.3,0.9,0.4c0.2,0.1,0.6,0.2,0.9,0.3c0.3,0.1,0.7,0.1,1,0.2c0.3,0,0.8,0.1,1.4,0.1c0.5,0,1.1,0,1.3-0.1
		c0.3,0,0.7-0.1,1-0.2c0.3-0.1,0.8-0.2,1-0.2c0.3-0.1,0.7-0.2,1-0.3c0.3-0.1,0.8-0.3,1.1-0.4c0.3-0.1,0.8-0.3,1.1-0.5
		c0.3-0.1,0.8-0.4,1.1-0.6c0.3-0.2,0.8-0.5,1.1-0.7c0.3-0.2,0.7-0.5,1-0.7c0.2-0.2,0.6-0.5,0.8-0.7s0.7-0.6,1-1c0.3-0.3,0.8-0.8,1-1
		c0.2-0.2,0.5-0.6,0.8-1c0.2-0.3,0.6-0.8,0.8-1.1c0.2-0.3,0.5-0.8,0.6-1.1c0.2-0.3,0.4-0.8,0.5-1.1c0.1-0.3,0.3-0.7,0.4-1
		c0.1-0.3,0.2-0.7,0.2-1c0-0.2,0.1-0.6,0.1-0.9c0-0.3,0-0.7,0-1.2c0-0.5,0-0.9-0.1-1.1c0-0.2-0.1-0.5-0.2-0.7
		c-0.1-0.2-0.2-0.5-0.2-0.7c-0.1-0.2-0.2-0.5-0.3-0.7c-0.1-0.2-0.3-0.5-0.4-0.7c-0.1-0.2-0.4-0.5-0.5-0.7s-0.4-0.4-0.6-0.6
		c-0.2-0.1-0.4-0.3-0.6-0.5s-0.5-0.3-0.8-0.4c-0.3-0.1-0.7-0.3-1-0.4c-0.3-0.1-0.7-0.2-0.9-0.2c-0.2,0-0.6-0.1-0.9-0.1
		C98.9,100.2,98.4,100.1,98.1,100.1L98.1,100.1z M45.5,100.3c-0.5,0-1,0-1.2,0c-0.2,0-0.6,0.1-0.9,0.1c-0.3,0.1-0.8,0.2-1.1,0.3
		c-0.3,0.1-0.8,0.3-1,0.4c-0.3,0.1-0.6,0.3-0.8,0.5c-0.2,0.1-0.5,0.4-0.7,0.5c-0.2,0.2-0.5,0.4-0.6,0.6c-0.2,0.2-0.4,0.5-0.5,0.6
		c-0.1,0.2-0.3,0.5-0.4,0.7c-0.1,0.2-0.3,0.5-0.3,0.8c-0.1,0.2-0.2,0.5-0.2,0.7c0,0.2-0.1,0.5-0.1,0.8c0,0.2-0.1,0.7-0.1,1.1
		c0,0.4,0,0.9,0.1,1.1c0,0.3,0.1,0.7,0.1,0.9c0,0.2,0.2,0.6,0.2,0.9c0.1,0.3,0.2,0.7,0.3,0.9c0.1,0.2,0.3,0.6,0.4,0.9
		c0.1,0.3,0.4,0.8,0.6,1.1c0.2,0.3,0.5,0.8,0.7,1c0.2,0.3,0.5,0.7,0.8,1c0.2,0.3,0.7,0.8,1.1,1.2c0.4,0.4,0.8,0.8,1,1
		s0.6,0.5,0.9,0.8c0.3,0.2,0.8,0.6,1.1,0.8c0.3,0.2,0.7,0.4,0.9,0.6c0.2,0.1,0.7,0.4,1.1,0.6c0.4,0.2,1,0.5,1.2,0.6
		c0.3,0.1,0.7,0.3,0.9,0.3c0.2,0.1,0.7,0.2,1,0.3s0.8,0.2,1.1,0.2c0.3,0.1,0.8,0.1,1,0.2c0.3,0,0.9,0.1,1.4,0.1c0.6,0,1.1,0,1.4-0.1
		c0.3,0,0.8-0.1,1-0.2c0.3-0.1,0.7-0.2,0.9-0.3c0.2-0.1,0.6-0.2,0.8-0.4c0.2-0.1,0.6-0.3,0.8-0.5c0.3-0.2,0.6-0.4,0.9-0.8
		c0.3-0.3,0.6-0.7,0.8-0.9c0.1-0.2,0.3-0.6,0.5-0.8c0.1-0.2,0.3-0.6,0.4-0.9s0.2-0.7,0.2-0.9c0.1-0.4,0.1-0.6,0.1-1.4
		c0-0.7,0-1.1-0.1-1.4c0-0.3-0.1-0.7-0.2-1c-0.1-0.3-0.2-0.8-0.3-1.1c-0.1-0.3-0.4-0.9-0.6-1.3c-0.2-0.4-0.5-1-0.7-1.2
		c-0.2-0.2-0.4-0.6-0.5-0.8c-0.1-0.2-0.4-0.5-0.6-0.8c-0.2-0.2-0.5-0.6-0.8-0.9c-0.3-0.3-0.7-0.8-1-1c-0.3-0.3-0.8-0.7-1-0.9
		c-0.3-0.2-0.8-0.6-1.1-0.8c-0.3-0.2-0.8-0.5-1.1-0.7c-0.3-0.2-0.8-0.4-1.1-0.6c-0.4-0.2-0.9-0.4-1.1-0.5c-0.3-0.1-0.8-0.3-1.1-0.4
		c-0.3-0.1-0.9-0.3-1.3-0.4c-0.4-0.1-0.9-0.2-1.2-0.2c-0.3,0-0.7-0.1-1-0.1C46.5,100.3,46,100.3,45.5,100.3L45.5,100.3z
		 M112.4,113.2c-0.2,0-0.5,0-0.7,0c-0.2,0-0.4,0.1-0.6,0.1c-0.1,0-0.4,0.1-0.5,0.1c-0.2,0-0.5,0.1-0.8,0.2c-0.3,0.1-0.7,0.2-1,0.3
		c-0.3,0.1-0.8,0.3-1,0.5c-0.3,0.1-0.7,0.4-1,0.5c-0.3,0.1-0.6,0.4-0.8,0.5c-0.2,0.1-0.6,0.4-0.8,0.6c-0.2,0.2-0.6,0.5-0.8,0.6
		c-0.2,0.2-0.6,0.6-1,0.9s-0.7,0.8-0.9,1c-0.2,0.2-0.5,0.6-0.6,0.8c-0.1,0.2-0.3,0.5-0.5,0.8c-0.1,0.2-0.3,0.6-0.4,0.8
		c-0.1,0.2-0.2,0.6-0.3,0.8c-0.1,0.2-0.1,0.5-0.1,0.9c0,0.4,0,0.6,0,0.9c0,0.2,0.1,0.4,0.2,0.6c0.1,0.2,0.2,0.4,0.4,0.6
		c0.2,0.2,0.4,0.4,0.6,0.5c0.2,0.1,0.4,0.2,0.6,0.3c0.2,0.1,0.4,0.1,0.6,0.2c0.2,0,0.5,0.1,0.9,0.1c0.3,0,0.8,0,1,0
		c0.3,0,0.7-0.1,1-0.2c0.3-0.1,0.7-0.2,1-0.2c0.3-0.1,0.7-0.2,1-0.4c0.3-0.1,0.8-0.3,1.1-0.5c0.3-0.1,0.8-0.4,1-0.6
		c0.3-0.2,0.7-0.4,1-0.6c0.3-0.2,0.7-0.5,0.9-0.7c0.2-0.2,0.6-0.5,0.9-0.7c0.3-0.2,0.7-0.6,0.9-0.9c0.2-0.3,0.6-0.6,0.7-0.8
		c0.1-0.2,0.4-0.5,0.5-0.8c0.2-0.2,0.4-0.6,0.5-0.9c0.1-0.3,0.3-0.6,0.4-0.8c0.1-0.2,0.2-0.5,0.2-0.7c0-0.2,0.1-0.5,0.1-0.8
		c0-0.4,0-0.6-0.1-0.8c0-0.1-0.1-0.4-0.2-0.5c-0.1-0.2-0.2-0.4-0.5-0.6c-0.3-0.3-0.4-0.4-0.7-0.5c-0.2-0.1-0.5-0.2-0.7-0.3
		c-0.2-0.1-0.5-0.1-0.8-0.1C112.9,113.2,112.6,113.2,112.4,113.2L112.4,113.2z M30.5,113.6c-0.3,0-0.7,0-0.9,0.1
		c-0.2,0-0.5,0.1-0.6,0.2c-0.2,0.1-0.4,0.2-0.6,0.3c-0.1,0.1-0.4,0.3-0.6,0.4c-0.2,0.2-0.3,0.4-0.4,0.5c-0.1,0.1-0.2,0.3-0.2,0.5
		c-0.1,0.2-0.1,0.4-0.1,0.8c0,0.4,0,0.6,0.1,1c0,0.2,0.2,0.6,0.2,0.8s0.2,0.6,0.4,0.8c0.1,0.2,0.4,0.6,0.5,0.9
		c0.2,0.3,0.5,0.7,0.7,1c0.2,0.3,0.6,0.7,0.8,0.9c0.3,0.3,0.7,0.6,0.9,0.8c0.2,0.2,0.6,0.5,0.8,0.6c0.2,0.1,0.6,0.4,0.8,0.6
		c0.3,0.2,0.7,0.4,0.9,0.6c0.2,0.1,0.6,0.3,0.8,0.4c0.2,0.1,0.6,0.3,0.9,0.4c0.2,0.1,0.6,0.3,0.9,0.3c0.2,0.1,0.6,0.2,0.9,0.3
		c0.3,0.1,0.7,0.2,1,0.2c0.3,0,0.7,0.1,0.9,0.1c0.2,0,0.6,0,0.9,0c0.3,0,0.6-0.1,0.8-0.1c0.2,0,0.5-0.2,0.7-0.3
		c0.3-0.1,0.5-0.3,0.7-0.4c0.2-0.1,0.3-0.4,0.4-0.5c0.1-0.1,0.2-0.4,0.3-0.6c0.1-0.2,0.1-0.5,0.1-0.8c0-0.3,0-0.6,0-0.8
		c0-0.2-0.1-0.6-0.2-0.8c-0.1-0.2-0.2-0.6-0.3-0.8c-0.1-0.2-0.3-0.6-0.4-0.8c-0.1-0.2-0.4-0.6-0.6-0.8c-0.2-0.3-0.5-0.7-0.8-0.9
		c-0.2-0.2-0.6-0.6-0.8-0.8c-0.2-0.2-0.6-0.6-0.9-0.8c-0.3-0.2-0.8-0.6-1.2-0.9c-0.4-0.2-0.8-0.5-1-0.6c-0.2-0.1-0.5-0.3-0.8-0.4
		c-0.2-0.1-0.6-0.3-0.9-0.4c-0.2-0.1-0.7-0.3-1-0.4c-0.3-0.1-0.7-0.2-1-0.3c-0.3-0.1-0.7-0.1-1-0.2
		C31.3,113.6,30.8,113.6,30.5,113.6L30.5,113.6z M72.1,122.8c-0.3,0-0.8,0-1.1,0c-0.3,0-0.9,0.1-1.3,0.1c-0.4,0-0.9,0.1-1.3,0.2
		c-0.3,0.1-0.9,0.2-1.2,0.3c-0.3,0.1-0.8,0.2-1.1,0.3c-0.3,0.1-0.8,0.3-1.2,0.5c-0.4,0.2-0.9,0.5-1.2,0.7c-0.4,0.2-0.7,0.5-1,0.8
		c-0.3,0.3-0.6,0.6-0.7,0.8c-0.1,0.2-0.3,0.5-0.3,0.6c-0.1,0.2-0.2,0.5-0.2,0.6c-0.1,0.3-0.1,0.5,0,0.8c0,0.2,0.1,0.5,0.1,0.6
		s0.2,0.4,0.3,0.7c0.1,0.2,0.3,0.6,0.5,0.8c0.1,0.2,0.4,0.5,0.5,0.6c0.2,0.1,0.5,0.4,0.7,0.5c0.2,0.2,0.5,0.4,0.7,0.5
		c0.2,0.1,0.5,0.3,0.7,0.4c0.2,0.1,0.7,0.3,1,0.4c0.3,0.1,0.7,0.3,0.9,0.3c0.2,0.1,0.6,0.2,0.9,0.3c0.3,0.1,0.8,0.2,1.2,0.3
		c0.3,0.1,0.9,0.1,1.3,0.2c0.5,0.1,1.1,0.1,1.8,0.1c0.7,0,1.4,0,1.8,0c0.4,0,0.9-0.1,1.2-0.1c0.3,0,0.8-0.1,1.1-0.2
		c0.3-0.1,0.8-0.2,1-0.2c0.2-0.1,0.6-0.2,0.9-0.3c0.3-0.1,0.7-0.2,1-0.4c0.3-0.1,0.7-0.3,1-0.4s0.7-0.4,1-0.6c0.4-0.2,0.6-0.5,1-0.8
		c0.3-0.3,0.6-0.6,0.7-0.8c0.1-0.2,0.3-0.5,0.3-0.7c0.1-0.2,0.2-0.5,0.2-0.7c0-0.2,0.1-0.4,0-0.7c0-0.2-0.1-0.5-0.1-0.7
		c0-0.2-0.2-0.4-0.2-0.6c-0.1-0.2-0.2-0.4-0.3-0.5c-0.1-0.1-0.3-0.4-0.5-0.6c-0.2-0.2-0.6-0.5-0.8-0.7c-0.2-0.2-0.6-0.4-0.9-0.6
		c-0.2-0.1-0.7-0.4-1-0.5c-0.3-0.1-0.8-0.3-1.2-0.5c-0.3-0.1-0.8-0.3-1.1-0.3c-0.3-0.1-0.8-0.2-1.1-0.2c-0.3-0.1-0.9-0.2-1.3-0.2
		c-0.4,0-1-0.1-1.4-0.1C73,122.8,72.4,122.8,72.1,122.8L72.1,122.8z"/>
</g>
</svg>
