<?xml version="1.0" encoding="UTF-8"?><svg id="Layer_2" xmlns="http://www.w3.org/2000/svg" viewBox="0 0 562.36 138.19"><defs><style>.cls-1{fill:#df5663;}</style></defs><g id="svg13"><g id="g11"><g id="svg_1"><path id="svg_2" class="cls-1" d="M207.75,0C195.7,0,186.23,8.61,185.72,20.02c-.32,7.37,2.87,17.38,19.95,23.23,11.63,3.98,11.41,8.96,11.34,10.59-.2,4.54-4.1,7.83-9.27,7.83-6.22,0-8.7-3.08-9.68-5.67l-11.94,4.53c1.23,3.26,6.45,13.89,21.62,13.89,12.05,0,21.52-8.6,22.02-20.01,.33-7.37-2.87-17.38-19.95-23.23-11.62-3.98-11.4-8.96-11.33-10.6,.2-4.53,4.1-7.82,9.27-7.82,6.22,0,8.7,3.08,9.68,5.67l11.94-4.53c-1.24-3.26-6.45-13.9-21.62-13.9h0Zm83.27,2.08V74.61h12.54v-25.4c0-4.25,3.45-7.69,7.7-7.69s7.69,3.44,7.69,7.69v25.4h12.54v-25.4c-.01-11.17-9.06-20.22-20.23-20.23-2.64-.01-5.26,.51-7.7,1.52V2.08h-12.54Zm250.9,0V74.61h12.54V2.08h-12.54Zm-115.43,.1V15.42h12.54V2.18h-12.54ZM65.26,3.2c-.13,.01-.5,.04-.82,.06-.32,.03-.85,.09-1.17,.13-.32,.05-.88,.15-1.24,.23-.36,.08-.9,.22-1.19,.31-.29,.08-.71,.23-.94,.31-.23,.09-.66,.27-.96,.41-.3,.15-.72,.37-.94,.51-.21,.13-.57,.39-.79,.57-.23,.18-.51,.43-.63,.56-.12,.14-.3,.36-.41,.5-.1,.13-.25,.39-.34,.57-.09,.17-.2,.45-.25,.62-.04,.17-.09,.44-.11,.62-.01,.18,0,.45,.03,.64,.02,.19,.1,.49,.17,.68,.07,.18,.22,.48,.33,.66s.32,.48,.47,.66c.16,.17,.45,.46,.67,.64,.21,.18,.58,.45,.82,.61,.24,.15,.7,.41,1.02,.57,.32,.16,.76,.36,.98,.44,.22,.09,.59,.22,.83,.3,.24,.07,.73,.21,1.09,.3,.35,.09,.93,.21,1.29,.27,.36,.06,.91,.14,1.23,.17,.32,.04,1.07,.08,1.67,.09,.68,.02,1.35,.01,1.79-.02,.39-.03,.92-.08,1.17-.11,.25-.04,.67-.1,.94-.15,.26-.04,.74-.14,1.07-.22,.32-.08,.8-.22,1.06-.3s.68-.24,.93-.34,.68-.3,.95-.43c.27-.14,.66-.36,.86-.5,.2-.13,.53-.38,.74-.56,.21-.17,.51-.46,.65-.63,.15-.17,.34-.44,.43-.59,.1-.16,.23-.41,.29-.57s.14-.41,.17-.56c.03-.16,.06-.44,.06-.63,0-.21-.03-.5-.08-.7-.05-.19-.14-.46-.21-.61-.06-.15-.2-.4-.3-.56-.11-.15-.3-.4-.42-.55-.13-.15-.38-.4-.56-.56-.18-.15-.54-.43-.81-.6-.26-.18-.74-.46-1.06-.62-.32-.17-.85-.4-1.19-.53-.33-.13-.87-.31-1.2-.4-.33-.09-.82-.22-1.1-.27-.28-.06-.73-.15-1.01-.19-.28-.05-.8-.11-1.17-.15-.37-.03-1.1-.07-1.63-.08-.52,0-1.06-.01-1.18,0h0Zm35.06,8.05c-.26-.01-.63,0-.83,.02-.19,.02-.48,.06-.63,.1-.16,.03-.43,.12-.61,.19s-.46,.22-.62,.33-.37,.29-.47,.41c-.1,.11-.24,.31-.32,.45-.07,.13-.18,.4-.23,.58-.07,.26-.09,.44-.09,.81,0,.28,.03,.62,.07,.81,.04,.18,.12,.47,.17,.64,.06,.18,.24,.59,.39,.91,.16,.32,.42,.78,.58,1.02,.17,.24,.4,.57,.53,.73s.42,.5,.65,.76c.24,.26,.64,.66,.9,.89,.26,.24,.64,.57,.86,.74,.21,.16,.6,.45,.86,.63,.27,.18,.65,.43,.86,.56,.21,.12,.57,.33,.81,.46s.68,.34,.98,.47c.3,.13,.84,.33,1.21,.46,.37,.12,.89,.26,1.17,.32,.27,.06,.7,.13,.93,.16,.26,.03,.71,.04,1.11,.02,.53-.01,.75-.04,1.07-.12,.22-.06,.55-.18,.73-.28,.19-.09,.45-.26,.59-.37,.13-.11,.33-.33,.44-.49,.11-.16,.24-.42,.3-.59,.06-.16,.12-.44,.15-.62,.02-.18,.03-.46,.02-.62-.02-.16-.06-.44-.09-.63-.04-.18-.13-.49-.19-.68-.07-.2-.21-.53-.31-.73-.09-.21-.28-.56-.41-.78-.14-.21-.4-.6-.6-.86-.19-.25-.52-.66-.73-.89-.21-.24-.58-.61-.8-.83-.23-.21-.63-.56-.9-.77-.26-.21-.66-.52-.89-.68s-.64-.42-.91-.59c-.27-.16-.7-.4-.96-.54-.26-.13-.67-.33-.92-.43-.25-.11-.67-.28-.94-.37s-.69-.22-.95-.29c-.25-.07-.69-.16-.97-.21-.29-.04-.74-.09-1.01-.1h0Zm-65.81,.44c-.33,0-.78,.03-1.01,.06s-.59,.1-.81,.14c-.22,.05-.61,.16-.88,.24-.26,.08-.71,.24-1,.36-.29,.11-.76,.33-1.06,.48-.3,.15-.7,.35-.88,.46-.18,.1-.55,.33-.81,.5s-.68,.46-.92,.65c-.24,.18-.61,.48-.83,.67s-.63,.59-.92,.88c-.29,.3-.67,.72-.84,.93-.18,.22-.46,.61-.64,.87-.17,.26-.42,.7-.56,.98s-.3,.68-.37,.89c-.07,.2-.16,.53-.2,.72-.05,.27-.06,.48-.05,.9,.02,.4,.05,.61,.11,.79,.05,.13,.14,.34,.22,.48,.07,.13,.21,.34,.31,.45,.1,.12,.33,.31,.49,.42,.17,.11,.47,.26,.67,.33,.19,.08,.52,.17,.72,.21,.26,.05,.57,.07,1.04,.07,.42,0,.83-.03,1.12-.07,.25-.04,.69-.13,.96-.2,.28-.07,.66-.18,.86-.25,.19-.06,.53-.18,.75-.27,.21-.08,.62-.26,.89-.39,.28-.13,.71-.36,.96-.5,.25-.15,.68-.4,.94-.58,.26-.17,.66-.45,.89-.62,.23-.18,.61-.48,.84-.68,.23-.2,.65-.6,.92-.88,.28-.29,.66-.72,.85-.96,.2-.24,.48-.63,.64-.87s.41-.68,.56-.98c.14-.3,.32-.71,.38-.92,.07-.21,.16-.57,.2-.81,.05-.31,.06-.54,.04-.81-.01-.21-.05-.48-.08-.61-.04-.13-.14-.37-.22-.54-.11-.22-.24-.4-.45-.61-.21-.2-.4-.34-.63-.46-.18-.1-.45-.21-.6-.26-.15-.05-.44-.12-.64-.15-.23-.04-.61-.06-.96-.06h0Zm50.56,4.05c-.45,0-.88,.01-.94,.02-.07,.01-.35,.04-.61,.08-.26,.03-.69,.12-.95,.18-.26,.07-.65,.19-.87,.28-.23,.08-.63,.26-.89,.39-.26,.14-.66,.38-.87,.53-.22,.16-.59,.47-.82,.7s-.54,.59-.68,.79c-.15,.21-.34,.53-.44,.71s-.25,.5-.33,.71-.2,.56-.26,.79c-.05,.22-.13,.62-.17,.88-.03,.27-.06,.72-.06,1.02s.02,.73,.04,.95c.03,.22,.1,.63,.15,.91,.06,.28,.17,.73,.25,1s.24,.71,.34,.97c.11,.27,.31,.73,.46,1.02,.14,.3,.41,.78,.59,1.08,.17,.29,.49,.77,.69,1.05,.21,.29,.54,.71,.74,.95,.2,.24,.57,.65,.82,.91,.25,.27,.67,.68,.93,.91,.26,.23,.65,.56,.87,.73,.22,.18,.61,.47,.88,.66,.26,.19,.74,.51,1.06,.71,.32,.19,.86,.5,1.19,.67,.33,.17,.87,.43,1.19,.57,.32,.13,.86,.34,1.21,.46,.34,.12,.87,.28,1.16,.36,.3,.08,.8,.18,1.11,.24s.77,.13,1.02,.16,.87,.05,1.38,.05c.62,0,1.08-.02,1.44-.07,.28-.04,.75-.13,1.04-.2s.7-.2,.91-.28c.22-.08,.59-.24,.82-.35,.23-.11,.6-.33,.83-.48,.23-.16,.61-.47,.87-.72,.25-.24,.57-.59,.7-.77,.14-.18,.35-.52,.48-.73,.12-.22,.28-.57,.37-.78,.08-.2,.19-.55,.25-.77s.13-.61,.17-.87c.06-.37,.07-.66,.05-1.31-.01-.48-.05-1.01-.09-1.23s-.12-.62-.19-.88c-.07-.27-.19-.67-.27-.9-.07-.23-.2-.58-.29-.78-.08-.2-.27-.61-.42-.9-.14-.29-.35-.68-.46-.86s-.35-.55-.52-.81c-.18-.27-.49-.68-.68-.93-.19-.24-.57-.69-.84-.99-.28-.31-.74-.77-1.03-1.03-.28-.27-.73-.66-1-.87-.26-.21-.69-.54-.95-.72-.26-.19-.72-.5-1.02-.68-.3-.19-.89-.52-1.3-.73-.41-.21-.98-.48-1.26-.6s-.79-.3-1.12-.42c-.33-.11-.9-.28-1.26-.37-.36-.09-.9-.2-1.2-.25-.29-.04-.73-.1-.97-.13-.24-.02-.8-.04-1.25-.03h0Zm-35.95,.12c-.43,0-.93,.02-1.13,.04-.19,.02-.61,.07-.92,.12-.3,.05-.86,.17-1.23,.26-.36,.09-.88,.24-1.14,.32-.27,.09-.72,.26-1,.37-.29,.12-.78,.33-1.09,.48-.31,.15-.81,.41-1.12,.59s-.81,.49-1.11,.68c-.29,.2-.75,.52-1.02,.72-.26,.2-.7,.55-.96,.78-.26,.23-.78,.73-1.15,1.1-.36,.38-.85,.92-1.08,1.21-.23,.28-.54,.7-.7,.92-.15,.21-.41,.61-.57,.88-.16,.27-.4,.71-.54,.98-.13,.27-.34,.72-.45,1.01-.12,.29-.28,.75-.36,1.02-.09,.27-.2,.72-.26,1-.05,.28-.12,.7-.15,.94-.03,.26-.04,.73-.02,1.19,.01,.53,.05,.88,.11,1.2,.05,.25,.15,.65,.23,.89,.08,.24,.24,.62,.35,.85,.11,.23,.31,.58,.45,.78,.15,.23,.45,.57,.78,.91,.39,.39,.67,.63,1,.85,.25,.17,.65,.39,.88,.51,.23,.11,.65,.28,.92,.37,.27,.09,.72,.21,.98,.27,.26,.05,.66,.12,.87,.15,.25,.04,.8,.06,1.42,.06,.74-.01,1.17-.03,1.54-.08,.29-.04,.76-.12,1.06-.17,.29-.06,.78-.18,1.1-.27s.77-.23,1.01-.31c.24-.09,.65-.24,.9-.35,.25-.1,.75-.33,1.1-.51,.36-.18,.84-.43,1.07-.56s.71-.43,1.06-.67c.36-.24,.95-.67,1.32-.97,.36-.29,.96-.82,1.32-1.18,.37-.35,.85-.85,1.06-1.1,.22-.26,.53-.64,.7-.86,.17-.21,.43-.59,.59-.83s.4-.62,.53-.85c.14-.23,.33-.59,.44-.81,.11-.22,.3-.64,.41-.93,.12-.28,.28-.73,.36-1,.08-.26,.18-.66,.23-.88,.05-.21,.11-.61,.15-.88,.03-.27,.06-.79,.06-1.15s-.03-.84-.06-1.08-.09-.55-.12-.69c-.04-.14-.12-.41-.18-.59-.06-.19-.19-.51-.29-.72-.09-.21-.28-.55-.41-.75s-.36-.51-.51-.7c-.16-.18-.44-.46-.63-.63-.2-.17-.53-.43-.73-.57-.21-.13-.54-.33-.74-.43-.21-.1-.51-.24-.69-.31s-.48-.18-.68-.23c-.19-.06-.53-.15-.75-.19-.22-.05-.63-.11-.92-.14-.3-.04-.84-.06-1.29-.06h0Zm-31.07,10.05c-.1,0-.26,.02-.34,.02-.08,.01-.29,.05-.47,.08-.17,.03-.51,.13-.75,.21-.23,.08-.62,.25-.87,.38s-.67,.37-.94,.55-.65,.46-.85,.62c-.19,.15-.61,.54-.93,.85-.32,.31-.76,.77-.98,1.04-.22,.26-.51,.62-.63,.79-.13,.17-.37,.51-.53,.75s-.4,.62-.53,.85-.34,.62-.47,.87c-.12,.25-.32,.68-.43,.95-.11,.28-.28,.73-.37,1.01s-.21,.74-.28,1.01c-.06,.28-.13,.72-.16,.98-.04,.27-.06,.65-.06,.86s.02,.54,.04,.75c.03,.2,.09,.53,.15,.73,.06,.19,.18,.5,.27,.68,.13,.24,.27,.43,.49,.66,.23,.23,.4,.35,.63,.46,.17,.09,.43,.19,.58,.22,.18,.05,.44,.07,.76,.07s.6-.03,.85-.08c.21-.05,.57-.16,.79-.24,.23-.09,.6-.25,.81-.36,.22-.11,.6-.33,.84-.49,.24-.15,.63-.44,.88-.63,.24-.19,.66-.58,.95-.85,.28-.28,.68-.69,.88-.93,.19-.23,.5-.61,.68-.84s.48-.66,.67-.96c.19-.29,.44-.7,.56-.91,.12-.22,.34-.64,.48-.94,.15-.31,.34-.75,.44-.99,.09-.24,.23-.66,.31-.92,.08-.27,.19-.71,.25-.98,.06-.28,.13-.68,.15-.91,.02-.22,.05-.58,.05-.81s-.03-.59-.07-.82c-.03-.22-.09-.51-.13-.64-.03-.13-.14-.39-.23-.59-.12-.24-.26-.43-.48-.67-.26-.28-.38-.37-.69-.52-.28-.14-.49-.21-.76-.25-.2-.04-.45-.06-.56-.06h0Zm99.25,.37c-.17,.01-.45,.03-.61,.07-.16,.03-.45,.13-.64,.22-.28,.14-.42,.24-.68,.5-.25,.26-.36,.41-.51,.72-.1,.21-.23,.55-.27,.74-.05,.2-.11,.57-.13,.83-.03,.33-.03,.65,0,1.02,.03,.3,.09,.78,.15,1.05,.05,.28,.16,.73,.24,1.01s.25,.75,.37,1.06,.38,.88,.58,1.27c.19,.39,.48,.91,.64,1.16,.16,.26,.44,.68,.62,.94,.19,.26,.54,.71,.78,1s.66,.75,.94,1.02c.27,.27,.7,.67,.96,.87,.25,.21,.68,.53,.95,.71,.27,.17,.68,.41,.9,.52,.22,.12,.58,.28,.8,.36,.21,.08,.58,.18,.82,.23,.26,.05,.58,.09,.85,.09,.3,0,.54-.03,.76-.09,.18-.04,.44-.14,.58-.21,.16-.09,.38-.26,.59-.47,.23-.23,.39-.43,.49-.63,.08-.16,.19-.41,.24-.56,.04-.15,.11-.44,.15-.64,.03-.21,.06-.62,.06-.94s-.02-.73-.04-.93c-.03-.19-.08-.53-.13-.75-.04-.22-.15-.63-.23-.91-.08-.27-.23-.72-.33-.99-.11-.27-.31-.74-.46-1.05-.15-.3-.37-.73-.48-.94-.12-.21-.41-.67-.65-1.03-.23-.35-.62-.89-.86-1.18-.24-.3-.65-.77-.91-1.04-.25-.27-.66-.65-.89-.85-.23-.21-.57-.48-.76-.62-.18-.13-.51-.35-.72-.49-.22-.14-.6-.35-.85-.47-.26-.12-.64-.28-.84-.34-.21-.07-.56-.16-.77-.19-.22-.04-.54-.07-.71-.07h0Zm351.78,2.39c-10.33,0-19.37,6.94-22.04,16.91s1.69,20.5,10.63,25.66c8.94,5.17,20.24,3.68,27.54-3.62l-8.86-8.87c-2.94,2.94-7.36,3.82-11.2,2.23s-6.35-5.34-6.35-9.49,2.51-7.91,6.35-9.5c3.84-1.59,8.26-.71,11.2,2.23l8.86-8.87c-4.27-4.29-10.08-6.7-16.13-6.68h0Zm-230.91,.16V101.36h12.54v-29.36c5.83,2.94,12.76,3.31,19.01,.72,8.52-3.53,14.08-11.85,14.08-21.08-.01-12.59-10.22-22.8-22.81-22.81-3.65,0-7.16,.88-10.28,2.46v-2.46h-12.54Zm153.09,0v45.66h12.54v-28.68h0l.22-1.36c.39-1.22,1.3-2.24,2.52-2.75,1.66-.68,3.57-.3,4.85,.97l8.86-8.87c-3.18-3.19-7.5-4.99-12.01-4.97-1.5,0-2.99,.19-4.44,.58v-.58h-12.54Zm119.51,0c-9.43-.01-17.9,5.8-21.29,14.6-3.4,8.81-1.02,18.8,5.98,25.13,6.99,6.33,17.17,7.7,25.59,3.45v2.45h12.54V28.83h-12.54v2.44c-3.19-1.61-6.71-2.45-10.28-2.44h0Zm-149.21,.05c-12.6,.02-22.8,10.22-22.82,22.82,0,1.29,.13,2.54,.34,3.76h-.03c.03,.2,.08,.39,.11,.58,.04,.18,.07,.36,.11,.53,0,.02,.01,.03,.01,.05,.13,.58,.28,1.16,.45,1.74,0,.01,.01,.02,.01,.04,.05,.16,.11,.31,.16,.47,.01,.02,.01,.04,.02,.05,.15,.46,.32,.91,.5,1.36,.01,.02,.01,.04,.02,.05,.06,.16,.12,.32,.19,.47h.01c.24,.56,.5,1.09,.78,1.61,0,.01,.01,.01,.01,.02,.01,.02,.02,.04,.03,.05,.09,.16,.17,.32,.26,.47,.02,.03,.03,.05,.04,.07,.24,.41,.49,.81,.75,1.2,.01,.02,.03,.05,.04,.07,.07,.1,.14,.21,.21,.31h0c.27,.4,.55,.78,.85,1.15h.02c4.26,5.35,10.95,8.76,18.63,8.76,6.8,0,12.26-2.17,18.23-7.25l-8.12-9.55c-3.71,3.15-6.6,4.02-10.36,4.02-1.86,.06-3.7-.42-5.29-1.4l15.67-6.47,12.65-5.22-2.46-5.82-.04-.1h-.01l-.03-.09v-.02l-.05-.09v-.02l-.03-.06-.03-.05v-.02c-.62-1.36-1.36-2.66-2.23-3.88h-.01c-4.22-5.95-11.11-9.62-18.6-9.6h0Zm64.93,.05v45.57h12.54V28.94h-12.54Zm-358.94,.83c-.45-.01-1.04-.01-1.32,.01-.27,.02-.73,.07-1,.11-.27,.03-.69,.1-.93,.15-.25,.04-.63,.13-.86,.19-.23,.05-.67,.18-.99,.29-.32,.1-.8,.28-1.07,.39-.27,.11-.74,.32-1.04,.47-.29,.15-.7,.37-.91,.49-.2,.12-.6,.38-.89,.57-.29,.2-.74,.53-1,.74-.26,.22-.69,.59-.96,.84-.26,.25-.66,.67-.89,.93-.24,.27-.57,.68-.75,.91-.17,.23-.46,.64-.63,.9-.16,.26-.4,.64-.52,.85s-.33,.62-.46,.9c-.14,.29-.35,.78-.48,1.1-.12,.32-.28,.76-.35,.99-.07,.23-.17,.61-.23,.84s-.15,.67-.21,.98c-.06,.32-.13,.85-.17,1.18-.04,.37-.06,1-.06,1.58s.02,1.21,.06,1.54c.03,.32,.09,.75,.12,.96,.04,.21,.12,.59,.17,.85,.06,.25,.17,.69,.25,.97s.24,.77,.36,1.08c.12,.32,.36,.89,.55,1.28,.19,.39,.5,.96,.68,1.25,.18,.3,.45,.73,.62,.96,.16,.23,.44,.6,.62,.83,.19,.24,.67,.75,1.07,1.16,.4,.4,.97,.92,1.27,1.16s.81,.6,1.13,.81c.32,.22,.78,.5,1.02,.63,.23,.13,.62,.33,.85,.44,.23,.11,.66,.29,.95,.41s.8,.3,1.13,.4c.33,.1,.85,.24,1.16,.31s.82,.16,1.14,.21,.86,.1,1.19,.13c.36,.03,.96,.04,1.46,.03,.48-.02,1.15-.07,1.52-.11,.37-.05,.85-.13,1.08-.17,.24-.05,.64-.15,.91-.21,.26-.07,.62-.18,.81-.24,.18-.06,.62-.22,.98-.36,.35-.13,.93-.39,1.27-.57,.34-.17,.87-.47,1.17-.66,.3-.19,.81-.53,1.13-.77s.78-.62,1.04-.85c.25-.23,.61-.58,.81-.79,.19-.2,.47-.5,.61-.67,.14-.16,.4-.48,.57-.71,.18-.23,.46-.64,.62-.9,.17-.25,.41-.64,.53-.85s.33-.61,.46-.9c.14-.28,.31-.66,.38-.84,.07-.19,.22-.58,.32-.88,.1-.3,.25-.79,.33-1.1s.19-.83,.24-1.15c.06-.32,.13-.76,.16-.98,.03-.25,.05-.87,.05-1.67s-.02-1.44-.05-1.73c-.03-.25-.11-.71-.16-1.02-.06-.31-.17-.83-.25-1.15-.09-.32-.25-.85-.36-1.18-.12-.34-.34-.9-.49-1.25-.16-.35-.43-.9-.61-1.21-.17-.31-.45-.76-.61-1-.16-.25-.41-.6-.54-.78-.14-.18-.39-.49-.55-.69-.16-.19-.57-.62-.9-.96-.33-.33-.86-.8-1.17-1.05-.31-.25-.78-.6-1.04-.78-.27-.18-.65-.42-.85-.54-.21-.12-.61-.34-.91-.48-.3-.15-.76-.37-1.04-.48-.27-.11-.75-.29-1.07-.39-.31-.11-.76-.24-.99-.3-.23-.05-.67-.15-.98-.2-.31-.06-.82-.14-1.13-.17-.31-.04-.93-.07-1.37-.08h0Zm-40.66,6.53c-.06,0-.21,.01-.33,.02-.13,0-.41,.03-.63,.05-.22,.03-.62,.1-.89,.15-.27,.06-.75,.19-1.07,.29-.31,.1-.76,.26-.99,.36-.22,.09-.64,.29-.93,.43-.28,.14-.7,.37-.91,.5-.22,.13-.59,.37-.82,.53-.23,.15-.62,.44-.87,.64s-.61,.5-.8,.67c-.18,.17-.58,.55-.88,.86-.3,.3-.75,.8-1,1.1-.25,.3-.64,.8-.86,1.11s-.56,.82-.76,1.14-.52,.91-.73,1.31c-.2,.4-.44,.92-.54,1.14-.09,.23-.25,.62-.34,.88-.09,.25-.24,.71-.33,1.02s-.22,.83-.29,1.17c-.07,.33-.15,.85-.19,1.15-.05,.37-.07,.85-.08,1.52,0,.59,.02,1.14,.06,1.38,.03,.22,.1,.61,.15,.88,.06,.27,.17,.69,.25,.94s.24,.65,.36,.88c.11,.24,.27,.55,.35,.69,.09,.14,.26,.4,.39,.57,.12,.17,.37,.46,.56,.66,.19,.19,.54,.5,.78,.68,.27,.21,.63,.43,.98,.6,.3,.14,.72,.32,.94,.39s.54,.15,.73,.19c.18,.03,.5,.08,.7,.11,.21,.02,.6,.04,.86,.04s.72-.03,1.02-.06c.3-.04,.75-.12,1.02-.17,.26-.06,.78-.21,1.15-.33,.37-.13,.88-.32,1.14-.44,.26-.11,.72-.35,1.02-.51,.3-.16,.82-.48,1.15-.7,.34-.23,.86-.61,1.17-.86,.31-.25,.85-.73,1.19-1.06s.82-.84,1.08-1.13c.25-.28,.64-.76,.86-1.06,.22-.3,.52-.71,.65-.92,.14-.2,.37-.57,.52-.81,.14-.24,.41-.74,.6-1.1,.19-.37,.43-.88,.53-1.13,.11-.25,.28-.69,.38-.98s.25-.73,.32-.98,.17-.67,.23-.93c.06-.26,.15-.73,.19-1.04,.06-.38,.1-.89,.11-1.51,.02-.61,.01-1.12-.02-1.44-.03-.28-.1-.73-.16-1.02-.05-.28-.17-.72-.25-.98-.08-.25-.22-.63-.31-.83-.09-.2-.25-.52-.35-.7-.11-.19-.31-.49-.44-.68-.14-.19-.45-.53-.7-.77-.24-.25-.61-.56-.82-.7-.2-.14-.56-.35-.8-.47-.23-.12-.61-.28-.85-.35-.24-.08-.62-.19-.85-.23-.23-.05-.67-.11-.98-.13-.31-.02-.61-.04-.67-.03h0Zm81.15,.66c-.12,0-.41,.02-.63,.04-.21,.02-.59,.07-.83,.12s-.63,.16-.87,.23c-.23,.08-.63,.25-.88,.38s-.61,.34-.79,.47c-.19,.13-.47,.36-.63,.5s-.42,.42-.58,.61c-.15,.18-.39,.49-.51,.69-.13,.19-.32,.52-.42,.73-.1,.21-.25,.55-.34,.77-.08,.22-.2,.63-.27,.92-.07,.28-.16,.72-.19,.96-.04,.24-.08,.79-.09,1.23-.02,.48-.01,1.01,.02,1.35,.03,.31,.1,.84,.15,1.17,.06,.33,.15,.79,.21,1.02,.05,.23,.17,.64,.25,.92,.08,.27,.25,.77,.38,1.1,.13,.34,.39,.93,.58,1.32,.18,.39,.46,.91,.6,1.17,.14,.25,.47,.77,.73,1.16s.65,.93,.86,1.19,.56,.69,.79,.95c.23,.25,.64,.67,.9,.93,.27,.26,.7,.64,.95,.85,.26,.21,.62,.5,.81,.64s.5,.36,.69,.48c.18,.12,.49,.32,.67,.43,.19,.1,.57,.31,.86,.45,.29,.15,.76,.36,1.04,.48,.29,.11,.75,.27,1.02,.35,.28,.09,.69,.19,.92,.24s.65,.11,.94,.15c.29,.03,.71,.06,.95,.06s.61-.02,.83-.05c.23-.02,.55-.07,.72-.1,.17-.04,.5-.12,.73-.19s.61-.22,.85-.34c.24-.11,.63-.33,.86-.48,.28-.19,.58-.44,.94-.8,.38-.38,.61-.65,.83-.98,.16-.25,.39-.64,.5-.87,.11-.24,.27-.62,.35-.85,.08-.23,.19-.61,.25-.85,.06-.24,.14-.63,.17-.87,.04-.24,.08-.81,.1-1.25,.01-.5,0-1.04-.03-1.38-.03-.31-.1-.84-.15-1.19-.06-.34-.18-.87-.26-1.18-.08-.31-.21-.78-.3-1.05-.09-.26-.25-.72-.37-1-.11-.29-.32-.76-.45-1.05-.14-.28-.36-.71-.49-.95-.14-.24-.38-.66-.55-.93-.17-.27-.49-.74-.7-1.04-.22-.3-.6-.79-.85-1.09-.24-.3-.72-.82-1.05-1.15s-.81-.79-1.06-1c-.26-.22-.67-.55-.92-.74-.26-.18-.65-.46-.88-.61s-.65-.4-.93-.55c-.28-.16-.73-.38-1-.5s-.71-.3-.99-.4c-.27-.09-.71-.22-.98-.29-.26-.07-.65-.15-.86-.19-.2-.03-.6-.08-.87-.1-.27-.02-.6-.04-.73-.04h0Zm153.17,4.41c1.25,.02,2.51,.28,3.71,.77,3.84,1.6,6.34,5.34,6.34,9.5,0,5.67-4.6,10.27-10.27,10.28-4.16,0-7.91-2.51-9.5-6.35s-.71-8.26,2.23-11.2c2.02-2.02,4.74-3.06,7.49-3h0Zm249.56,0c5.68,0,10.27,4.6,10.28,10.27,0,4.16-2.5,7.9-6.34,9.5-3.84,1.59-8.26,.71-11.2-2.23s-3.82-7.36-2.23-11.2c1.59-3.84,5.34-6.34,9.49-6.34h0Zm-149.48,.07c2.2,0,4.34,.74,6.08,2.08,.06,.06,.13,.12,.19,.18l-15.64,6.45h0c.38-3.5,2.6-6.53,5.81-7.96,1.12-.5,2.34-.75,3.56-.75h0ZM41.86,55.02c-.24,0-.56,.01-.71,.02-.14,.01-.53,.04-.85,.08-.32,.03-.79,.1-1.05,.14-.25,.05-.69,.14-.97,.21-.28,.07-.77,.21-1.09,.32-.32,.1-.81,.28-1.08,.39-.27,.11-.74,.33-1.04,.47-.29,.15-.7,.37-.91,.49-.2,.12-.59,.37-.87,.56-.27,.18-.72,.51-1,.74-.27,.22-.69,.58-.93,.81s-.62,.62-.85,.87-.61,.71-.84,1.02-.57,.8-.75,1.08-.47,.8-.65,1.15-.46,.93-.6,1.3c-.15,.37-.34,.89-.42,1.15-.08,.26-.19,.66-.25,.89s-.15,.67-.21,.99c-.06,.31-.13,.84-.17,1.17-.04,.37-.06,1-.06,1.58,0,.55,.02,1.22,.06,1.54,.03,.31,.1,.79,.14,1.06,.05,.28,.15,.76,.23,1.08,.08,.32,.2,.77,.28,1,.07,.23,.23,.68,.36,1,.13,.32,.36,.85,.52,1.17,.17,.32,.44,.82,.61,1.1,.17,.29,.44,.71,.61,.94,.16,.23,.44,.6,.62,.83,.19,.23,.67,.75,1.07,1.16,.4,.4,.98,.92,1.27,1.16,.3,.24,.81,.6,1.13,.82,.32,.21,.78,.49,1.02,.62s.62,.33,.85,.44c.24,.11,.66,.29,.95,.41,.28,.11,.76,.28,1.06,.37,.3,.1,.77,.23,1.06,.3s.76,.16,1.04,.21c.29,.04,.72,.11,.96,.14,.26,.03,.9,.05,1.59,.05,.85,0,1.29-.02,1.73-.08,.32-.04,.79-.11,1.04-.16,.25-.04,.74-.15,1.08-.24,.35-.09,.82-.23,1.05-.31,.23-.08,.64-.23,.91-.34,.28-.11,.79-.34,1.13-.52,.34-.17,.83-.44,1.08-.6,.26-.15,.65-.41,.88-.58,.23-.16,.6-.44,.82-.62s.65-.56,.95-.85c.3-.3,.71-.72,.91-.95,.2-.24,.51-.62,.69-.85s.46-.64,.63-.89c.16-.26,.4-.65,.52-.86,.12-.21,.33-.61,.46-.89,.14-.29,.32-.71,.41-.94,.1-.23,.24-.62,.32-.87,.09-.25,.22-.7,.29-1,.08-.3,.18-.75,.23-1,.05-.26,.12-.68,.15-.94,.04-.27,.08-.94,.09-1.5,.02-.65,.01-1.26-.02-1.65-.03-.34-.1-.9-.16-1.24-.05-.34-.16-.86-.23-1.15s-.23-.86-.37-1.26c-.13-.4-.35-.97-.48-1.27s-.34-.76-.48-1.02c-.14-.26-.38-.67-.53-.91-.15-.25-.4-.63-.55-.84-.16-.22-.43-.58-.6-.8-.18-.22-.51-.59-.73-.83s-.6-.61-.84-.83-.61-.53-.82-.7c-.21-.17-.61-.46-.9-.65-.28-.2-.68-.45-.88-.57s-.62-.34-.91-.49c-.3-.15-.76-.36-1.04-.47-.27-.12-.75-.29-1.07-.39-.31-.11-.76-.24-.99-.3-.23-.05-.6-.14-.83-.18-.23-.05-.64-.12-.9-.15-.26-.04-.76-.09-1.11-.11-.34-.02-.82-.04-1.06-.03h0Zm51.04,.5c-.08,0-.4,.02-.73,.04-.32,.01-.81,.06-1.1,.09-.29,.04-.8,.13-1.13,.19-.33,.07-.87,.2-1.2,.3-.33,.09-.83,.25-1.1,.36-.28,.1-.73,.29-1.01,.41-.27,.13-.74,.36-1.04,.53-.3,.16-.78,.46-1.08,.66-.31,.2-.74,.51-.98,.69-.23,.19-.64,.53-.91,.77s-.67,.64-.9,.89c-.24,.26-.57,.64-.75,.86-.17,.23-.44,.59-.59,.81-.16,.21-.41,.6-.56,.84-.15,.25-.42,.75-.6,1.1-.17,.36-.42,.91-.55,1.23-.12,.32-.29,.76-.36,.98-.07,.22-.18,.63-.25,.9s-.16,.7-.21,.96c-.05,.25-.11,.67-.15,.93-.03,.27-.07,.93-.09,1.49-.01,.63-.01,1.22,.03,1.62,.02,.34,.1,.91,.15,1.25,.06,.35,.17,.89,.25,1.22,.08,.32,.22,.82,.31,1.1,.1,.29,.27,.75,.38,1.04,.12,.29,.33,.76,.48,1.05,.14,.29,.36,.69,.48,.89,.12,.21,.38,.62,.59,.92,.2,.3,.53,.75,.73,1s.63,.73,.96,1.07c.34,.34,.85,.82,1.14,1.07,.3,.24,.75,.59,1.01,.77,.25,.18,.63,.43,.84,.56s.69,.4,1.08,.59c.39,.2,.96,.46,1.26,.58,.29,.11,.74,.27,1,.35,.25,.08,.59,.19,.77,.24,.17,.04,.59,.14,.93,.21,.35,.07,.87,.15,1.17,.19,.41,.06,.85,.07,1.82,.08,.99,0,1.4-.02,1.85-.08,.32-.04,.86-.13,1.2-.2,.33-.06,.88-.19,1.2-.29,.33-.09,.86-.26,1.17-.38,.31-.11,.88-.36,1.28-.55,.4-.2,.94-.48,1.21-.64,.27-.16,.69-.43,.94-.6,.24-.18,.62-.46,.83-.63s.58-.49,.82-.71c.23-.22,.61-.59,.82-.83,.22-.24,.55-.61,.73-.83,.17-.21,.44-.58,.6-.8,.15-.22,.39-.59,.54-.83,.14-.24,.36-.61,.47-.83,.12-.21,.33-.64,.47-.95,.13-.31,.34-.85,.46-1.19s.27-.83,.34-1.08c.06-.26,.15-.64,.2-.86,.04-.22,.11-.59,.14-.84,.04-.24,.09-.64,.12-.89,.02-.25,.04-.88,.04-1.4,0-.56-.03-1.19-.07-1.56-.03-.34-.11-.87-.17-1.18-.06-.32-.15-.76-.21-.99-.05-.23-.15-.58-.21-.77-.06-.2-.21-.63-.33-.96-.13-.33-.37-.89-.53-1.23-.17-.35-.46-.88-.64-1.19-.19-.31-.49-.78-.68-1.04-.18-.26-.5-.67-.7-.92-.2-.24-.64-.72-.99-1.06-.34-.35-.88-.84-1.19-1.08-.31-.25-.78-.6-1.04-.78-.26-.17-.66-.43-.89-.56s-.62-.34-.86-.46c-.25-.12-.67-.32-.94-.43-.28-.12-.72-.29-.99-.38s-.83-.25-1.25-.36c-.41-.1-1.07-.23-1.46-.29-.4-.06-1.06-.12-1.47-.14-.41-.03-.82-.04-.9-.04h0ZM5.57,58.68c-.19,.01-.46,.03-.59,.06-.14,.03-.38,.1-.53,.16s-.4,.18-.56,.28-.42,.28-.57,.41c-.16,.13-.39,.35-.52,.48-.12,.14-.33,.39-.45,.55-.12,.16-.34,.5-.5,.76-.15,.26-.38,.69-.5,.96s-.31,.73-.42,1.03c-.1,.29-.27,.86-.37,1.25-.11,.39-.23,.98-.29,1.32-.06,.33-.14,.85-.17,1.16-.05,.35-.08,1.05-.09,1.85-.02,.8,0,1.51,.02,1.89,.03,.34,.08,.84,.11,1.1,.04,.26,.11,.73,.17,1.04s.16,.79,.23,1.07c.07,.27,.2,.73,.3,1.02,.09,.29,.25,.72,.35,.98,.1,.25,.31,.69,.45,.98,.15,.29,.4,.72,.55,.94,.15,.22,.39,.55,.54,.73s.4,.44,.55,.58c.15,.14,.41,.35,.57,.46,.16,.11,.39,.24,.5,.3,.12,.06,.33,.14,.48,.19s.4,.11,.56,.14c.17,.03,.43,.04,.63,.02,.18-.01,.47-.06,.64-.11,.18-.05,.48-.17,.67-.27,.2-.1,.51-.31,.71-.46,.19-.16,.48-.44,.65-.63s.41-.51,.55-.71,.34-.53,.45-.72c.11-.19,.29-.55,.4-.79s.28-.69,.39-.98c.11-.3,.28-.87,.38-1.27s.23-.98,.29-1.3c.05-.31,.13-.83,.17-1.17,.06-.49,.08-.9,.08-2.23s-.02-1.74-.08-2.23c-.04-.33-.12-.88-.17-1.21-.06-.33-.17-.88-.26-1.21-.08-.33-.24-.88-.35-1.21-.11-.34-.32-.9-.48-1.24-.15-.34-.4-.84-.57-1.12-.16-.27-.39-.63-.52-.81-.13-.17-.44-.52-.69-.77-.26-.25-.6-.55-.77-.66-.17-.11-.46-.27-.64-.34-.18-.08-.47-.17-.64-.21-.17-.03-.47-.06-.66-.06h0Zm123.57,2.34c-.29,0-.54,.03-.75,.08-.17,.04-.48,.16-.69,.27-.2,.1-.5,.28-.65,.39-.15,.12-.43,.38-.63,.58-.19,.2-.47,.54-.62,.75-.14,.21-.36,.55-.48,.76-.12,.21-.32,.61-.45,.89-.13,.28-.32,.79-.44,1.14-.11,.34-.27,.88-.36,1.2-.08,.32-.19,.85-.25,1.18-.05,.33-.13,.87-.17,1.21-.06,.48-.08,.95-.08,2.16,0,.98,.02,1.72,.06,2.04,.03,.28,.11,.85,.18,1.27,.07,.42,.2,1.07,.29,1.43,.09,.37,.26,.94,.38,1.28,.11,.33,.29,.79,.39,1.02,.1,.23,.29,.62,.42,.86,.12,.23,.36,.62,.52,.86s.43,.58,.59,.77c.17,.19,.41,.44,.53,.54,.13,.11,.34,.27,.48,.36,.14,.1,.38,.24,.55,.32,.17,.09,.45,.19,.63,.24,.23,.06,.45,.09,.78,.09s.55-.03,.78-.09c.18-.05,.48-.16,.66-.25,.19-.1,.47-.27,.64-.4,.16-.12,.45-.38,.63-.57,.19-.19,.42-.46,.53-.6,.1-.14,.28-.4,.4-.59,.11-.18,.31-.54,.44-.79,.12-.25,.31-.68,.42-.95,.11-.28,.27-.71,.35-.96,.07-.25,.18-.64,.24-.86,.05-.22,.14-.64,.2-.94,.06-.31,.15-.86,.19-1.23,.05-.38,.1-1.08,.12-1.56,.03-.56,.03-1.19,.01-1.71-.02-.46-.06-1.02-.09-1.25-.02-.23-.07-.61-.1-.83-.04-.23-.1-.62-.15-.86s-.14-.66-.21-.94c-.07-.27-.2-.73-.29-1.01s-.26-.74-.38-1.02c-.11-.28-.32-.73-.46-.99-.13-.26-.35-.63-.48-.83-.12-.2-.33-.49-.46-.65s-.38-.44-.56-.61c-.18-.18-.47-.42-.64-.54-.17-.11-.44-.27-.61-.35-.17-.08-.45-.18-.64-.23-.23-.06-.45-.08-.77-.08h0ZM19.88,80.39c-.24-.01-.64,0-.9,.02-.25,.02-.65,.07-.88,.12-.23,.05-.59,.15-.81,.21-.21,.07-.59,.23-.85,.35-.25,.13-.59,.32-.75,.43-.16,.1-.44,.32-.62,.47-.18,.15-.47,.43-.64,.63-.17,.19-.42,.52-.56,.72-.14,.21-.33,.54-.43,.74-.1,.19-.25,.53-.33,.75-.09,.21-.22,.63-.29,.93-.08,.3-.17,.77-.21,1.03-.04,.26-.08,.83-.1,1.25,0,.46,0,1,.03,1.32,.03,.29,.09,.83,.15,1.18,.06,.36,.17,.89,.25,1.19s.2,.73,.27,.96c.07,.23,.25,.7,.38,1.05,.14,.35,.42,.97,.62,1.38,.2,.4,.5,.96,.66,1.23,.16,.26,.41,.66,.55,.87,.15,.22,.42,.6,.61,.85s.5,.64,.69,.87,.66,.74,1.06,1.13c.39,.4,.91,.88,1.16,1.09,.25,.2,.68,.54,.97,.75,.28,.2,.75,.52,1.05,.69,.29,.18,.77,.44,1.07,.59s.76,.35,1.03,.46c.26,.1,.69,.25,.95,.33,.27,.08,.67,.19,.89,.24,.23,.04,.65,.11,.94,.15,.29,.03,.76,.06,1.04,.06s.72-.03,.98-.06c.26-.04,.66-.11,.89-.17s.54-.15,.7-.22c.16-.06,.49-.21,.73-.33,.24-.12,.61-.35,.83-.5,.21-.15,.58-.49,.83-.74,.27-.28,.58-.65,.76-.92,.16-.25,.39-.64,.5-.87s.27-.62,.36-.86c.08-.24,.19-.63,.25-.86,.05-.23,.13-.61,.16-.85,.04-.24,.08-.81,.1-1.25,.01-.5,0-1.03-.03-1.38-.03-.31-.09-.83-.15-1.15-.05-.32-.17-.85-.25-1.18-.08-.32-.22-.81-.31-1.08s-.26-.73-.38-1.03c-.11-.3-.37-.86-.56-1.25s-.48-.93-.65-1.21c-.16-.27-.42-.68-.58-.91-.15-.24-.42-.61-.58-.84-.17-.22-.47-.6-.67-.83-.19-.23-.53-.61-.75-.85-.21-.23-.62-.64-.92-.9-.28-.26-.67-.6-.86-.75-.18-.15-.53-.41-.77-.58-.24-.17-.58-.4-.77-.52-.18-.11-.54-.32-.79-.46-.25-.14-.65-.34-.88-.44-.23-.11-.6-.26-.81-.34-.22-.09-.61-.22-.87-.29-.27-.08-.68-.18-.92-.23s-.6-.1-.79-.13c-.2-.02-.56-.05-.8-.06h0Zm47.75,.4c-.1,0-.44,.02-.75,.04-.31,.02-.81,.06-1.11,.1-.29,.04-.73,.11-.96,.15-.22,.05-.63,.14-.91,.21-.27,.07-.71,.19-.98,.28-.26,.09-.66,.23-.88,.32-.22,.08-.69,.3-1.06,.48s-.89,.46-1.17,.63c-.27,.16-.68,.42-.9,.58-.21,.15-.55,.41-.75,.56-.19,.15-.57,.47-.83,.71-.27,.24-.7,.67-.95,.95-.26,.28-.62,.71-.81,.95-.18,.24-.48,.65-.66,.92-.18,.27-.46,.72-.63,1.01-.16,.3-.41,.79-.56,1.11-.14,.32-.35,.82-.46,1.11-.11,.3-.26,.79-.35,1.1s-.22,.85-.29,1.19-.15,.86-.19,1.15c-.04,.3-.08,.96-.09,1.56-.02,.78-.01,1.22,.04,1.73,.04,.38,.11,.91,.15,1.19,.05,.27,.16,.77,.24,1.1,.08,.34,.23,.86,.33,1.17,.11,.31,.28,.79,.4,1.06,.11,.27,.33,.74,.48,1.03,.15,.3,.4,.76,.56,1.03,.17,.27,.43,.68,.59,.9,.16,.23,.45,.61,.63,.84,.18,.23,.68,.76,1.11,1.19,.43,.42,.98,.93,1.22,1.13,.25,.19,.63,.47,.84,.62,.21,.14,.62,.4,.9,.58,.29,.17,.82,.46,1.19,.63,.37,.18,.85,.4,1.06,.48,.22,.09,.63,.23,.9,.32,.28,.09,.76,.23,1.08,.3,.33,.08,.81,.18,1.09,.23,.27,.05,.7,.11,.94,.14,.27,.03,.9,.05,1.66,.05,.94,0,1.37-.02,1.82-.07,.32-.05,.78-.12,1.02-.16,.24-.05,.7-.15,1.02-.24,.32-.08,.82-.23,1.11-.33,.3-.1,.82-.3,1.17-.45s.88-.41,1.18-.57c.3-.16,.84-.49,1.19-.72,.36-.24,.85-.59,1.09-.79,.24-.19,.63-.53,.86-.75,.24-.22,.61-.59,.83-.83,.22-.23,.56-.62,.75-.86,.2-.24,.54-.71,.76-1.05,.23-.33,.54-.84,.71-1.14,.16-.3,.4-.77,.52-1.05,.13-.28,.31-.73,.42-1.01,.1-.27,.26-.77,.36-1.1,.09-.33,.22-.87,.29-1.2s.15-.84,.19-1.13c.04-.28,.08-.84,.1-1.23,.02-.39,.02-1.04,0-1.46-.02-.41-.07-.96-.1-1.23-.04-.26-.11-.68-.15-.94-.05-.25-.14-.66-.21-.92-.06-.26-.2-.7-.29-.99s-.26-.75-.37-1.02c-.12-.27-.34-.76-.5-1.09-.17-.32-.43-.81-.6-1.07-.16-.27-.44-.69-.61-.93-.17-.24-.47-.63-.67-.88-.19-.24-.64-.73-1-1.08-.36-.36-.86-.83-1.12-1.04-.26-.21-.66-.51-.89-.67-.23-.17-.63-.43-.9-.59-.26-.16-.75-.43-1.09-.6-.33-.17-.84-.4-1.13-.51-.29-.12-.76-.28-1.04-.38-.29-.09-.71-.21-.94-.27s-.61-.14-.86-.19c-.24-.04-.66-.11-.94-.15-.27-.03-.81-.08-1.2-.1-.39-.03-.8-.04-.9-.04h0Zm47.48,.25c-.07,0-.32,.02-.55,.04-.23,.02-.6,.06-.83,.1-.23,.03-.66,.13-.96,.21s-.73,.21-.95,.29c-.23,.08-.61,.23-.85,.34-.25,.1-.65,.29-.89,.42-.24,.13-.63,.36-.87,.5-.25,.15-.63,.4-.85,.56s-.57,.42-.77,.58c-.2,.17-.6,.51-.88,.76-.29,.26-.75,.71-1.02,1.01-.28,.3-.69,.77-.91,1.06-.23,.28-.56,.71-.73,.96-.17,.24-.47,.69-.66,.98-.18,.3-.52,.92-.75,1.38-.24,.46-.54,1.12-.68,1.48-.14,.36-.34,.92-.44,1.25s-.24,.86-.31,1.17-.17,.82-.22,1.15c-.06,.4-.1,.88-.11,1.54-.02,.74-.01,1.09,.04,1.54,.04,.31,.12,.79,.18,1.06s.17,.68,.25,.92,.23,.61,.33,.83c.11,.22,.28,.54,.38,.71,.11,.18,.3,.46,.43,.63s.44,.5,.68,.73,.61,.54,.82,.68c.22,.15,.56,.35,.75,.45,.2,.1,.55,.24,.78,.32s.59,.19,.81,.23c.22,.05,.6,.11,.85,.14,.28,.03,.71,.04,1.11,.02,.35-.01,.87-.06,1.15-.11,.27-.04,.72-.14,.98-.21,.27-.06,.73-.21,1.02-.31,.3-.11,.89-.37,1.33-.58,.44-.22,1-.52,1.25-.68s.63-.41,.83-.55c.2-.15,.55-.41,.77-.59,.22-.17,.63-.52,.9-.77,.28-.25,.72-.7,1-1,.27-.29,.68-.76,.9-1.04,.22-.28,.54-.71,.71-.95,.17-.23,.48-.7,.68-1.03,.21-.34,.54-.93,.74-1.32,.2-.39,.45-.92,.55-1.18,.11-.25,.29-.74,.41-1.08s.28-.9,.37-1.24c.09-.34,.21-.91,.27-1.25,.05-.35,.12-.91,.15-1.25,.03-.38,.04-.9,.03-1.32-.02-.38-.06-.87-.09-1.1s-.1-.6-.15-.81c-.04-.21-.16-.61-.25-.89s-.25-.68-.35-.89c-.1-.2-.28-.54-.41-.75-.13-.2-.38-.55-.57-.77-.18-.22-.49-.54-.68-.7-.19-.17-.5-.41-.7-.54-.19-.12-.54-.32-.77-.43-.23-.11-.59-.26-.81-.33-.21-.07-.57-.16-.79-.21-.22-.04-.66-.1-.97-.12-.31-.03-.62-.04-.68-.04h0Zm305.2,11.36c-.76,0-1.4,.27-1.9,.8-.5,.5-.75,1.13-.75,1.9v27.29c0,.76,.25,1.41,.75,1.94,.5,.5,1.14,.75,1.9,.75s1.4-.25,1.9-.75c.5-.53,.75-1.18,.75-1.94v-4.64l2.17-1.99,7.95,8.39c.53,.59,1.17,.89,1.94,.89,.65,0,1.25-.25,1.81-.75,.59-.5,.88-1.12,.88-1.86s-.28-1.4-.84-1.99l-7.73-8.39,6.67-6.13c.71-.62,1.06-1.29,1.06-1.99,0-.56-.26-1.1-.79-1.63-.5-.56-1.08-.84-1.72-.84-.74,0-1.39,.28-1.95,.84l-9.45,9.14v-16.34c0-.77-.25-1.4-.75-1.9-.5-.53-1.13-.8-1.9-.8Zm-89.54,1.64c-.73,0-1.41,.28-2.03,.84-.59,.53-.88,1.2-.88,2.03,0,.26,.04,.56,.13,.88l8.7,25.61c.18,.5,.49,.9,.93,1.2,.44,.29,.93,.45,1.46,.48,.53,0,1.03-.15,1.5-.44,.47-.3,.84-.72,1.1-1.28l6.32-14.27,6.27,14.27c.26,.56,.63,.98,1.1,1.28,.47,.29,.97,.44,1.5,.44,.53-.03,1.02-.19,1.46-.48,.44-.3,.75-.7,.93-1.2l8.7-25.61c.09-.32,.13-.62,.13-.88,0-.83-.31-1.5-.93-2.03-.59-.56-1.23-.84-1.94-.84-.59,0-1.14,.16-1.64,.48-.47,.3-.79,.71-.97,1.24l-6.53,19.83-5.43-13.65c-.24-.53-.58-.94-1.02-1.23-.41-.33-.9-.48-1.46-.45-.56-.03-1.06,.12-1.5,.45-.44,.29-.78,.7-1.01,1.23l-5.74,13.78-6.58-19.96c-.18-.53-.51-.94-.98-1.24-.47-.32-1-.48-1.59-.48h0ZM10.98,99.63c-.27,.01-.52,.03-.72,.08-.16,.05-.41,.14-.54,.21-.14,.06-.35,.2-.47,.29-.12,.1-.3,.29-.41,.43-.1,.15-.25,.4-.33,.56-.07,.16-.17,.44-.22,.62s-.1,.49-.13,.69c-.02,.19-.04,.51-.04,.71s.03,.57,.06,.83,.11,.7,.17,.98c.06,.27,.2,.76,.3,1.09,.11,.32,.28,.78,.38,1.02s.31,.69,.47,1,.41,.76,.56,1.01,.39,.63,.54,.84,.42,.58,.6,.82c.18,.23,.53,.64,.77,.9,.23,.26,.64,.67,.91,.92,.27,.24,.63,.55,.81,.69s.53,.38,.77,.54,.64,.39,.9,.51c.25,.13,.65,.29,.89,.37s.61,.18,.81,.21c.2,.04,.51,.07,.68,.07s.45-.03,.63-.07c.18-.03,.47-.14,.66-.23,.18-.08,.43-.24,.55-.35,.12-.1,.31-.33,.42-.5s.26-.45,.33-.63,.16-.48,.2-.66,.08-.6,.09-.92c0-.41,0-.73-.05-1.1-.04-.29-.11-.74-.17-1-.06-.27-.2-.76-.31-1.09s-.31-.85-.44-1.15c-.13-.29-.35-.75-.48-1.01-.14-.26-.38-.68-.53-.92s-.42-.66-.61-.92c-.18-.27-.51-.69-.71-.94-.21-.25-.66-.74-1-1.09-.35-.34-.83-.78-1.07-.97-.24-.2-.63-.48-.87-.64-.24-.16-.66-.4-.92-.53-.27-.14-.68-.32-.92-.4s-.59-.17-.78-.21c-.2-.03-.55-.06-.78-.06h0Zm112.69,.4c-.24-.02-.54,0-.76,.04-.2,.03-.56,.12-.79,.2-.24,.08-.59,.22-.79,.31-.19,.09-.55,.28-.79,.42-.24,.15-.64,.42-.89,.61-.26,.19-.67,.53-.92,.76s-.64,.6-.85,.84c-.22,.23-.57,.64-.78,.91-.21,.26-.56,.73-.76,1.03-.21,.3-.47,.71-.59,.92-.12,.2-.34,.62-.5,.94-.16,.31-.39,.83-.52,1.15-.12,.32-.29,.8-.37,1.06-.08,.27-.2,.73-.25,1.03-.06,.29-.13,.78-.15,1.07-.03,.37-.03,.69,0,1.03,.02,.28,.08,.64,.12,.81s.14,.45,.21,.61c.07,.17,.22,.44,.33,.59s.32,.36,.45,.47c.13,.1,.36,.25,.49,.31,.14,.07,.39,.16,.55,.19,.17,.04,.46,.07,.74,.07,.25,0,.6-.03,.77-.07,.18-.03,.47-.11,.65-.17s.56-.21,.83-.35c.28-.13,.66-.34,.86-.46,.19-.12,.56-.38,.81-.56,.25-.19,.68-.54,.94-.79,.27-.24,.67-.64,.9-.9,.22-.26,.55-.64,.72-.85,.17-.21,.51-.69,.76-1.06,.25-.38,.59-.92,.75-1.22s.4-.76,.52-1.03,.29-.68,.37-.91c.09-.23,.22-.62,.3-.88,.07-.25,.17-.65,.22-.87,.05-.23,.11-.6,.14-.83,.02-.24,.03-.69,.02-1.1-.01-.57-.04-.77-.13-1.1-.06-.23-.19-.58-.3-.79-.15-.29-.28-.47-.5-.69-.21-.21-.38-.34-.6-.45-.17-.08-.43-.17-.56-.21-.14-.04-.43-.07-.65-.08h0Zm258.01,.98c-2.24,0-4.27,.53-6.1,1.59-1.82,1.03-3.26,2.49-4.32,4.38-1.06,1.85-1.59,3.95-1.59,6.31s.53,4.47,1.59,6.36c1.06,1.85,2.5,3.3,4.32,4.33,1.83,1.03,3.86,1.54,6.1,1.54s4.22-.51,6.05-1.54c1.85-1.03,3.31-2.48,4.37-4.33,1.06-1.89,1.59-4.01,1.59-6.36s-.53-4.46-1.59-6.31c-1.06-1.89-2.52-3.35-4.37-4.38-1.83-1.06-3.84-1.59-6.05-1.59Zm28.67,0c-1.44,0-2.79,.33-4.06,.97-1.27,.62-2.24,1.54-2.92,2.74v-.57c0-.77-.25-1.4-.75-1.9-.5-.53-1.13-.79-1.9-.79s-1.39,.26-1.89,.79c-.5,.5-.76,1.13-.76,1.9v18.24c0,.76,.26,1.41,.76,1.94,.5,.5,1.13,.75,1.89,.75s1.4-.25,1.9-.75c.5-.53,.75-1.18,.75-1.94v-10.47c0-1.32,.22-2.46,.67-3.4,.47-.97,1.06-1.69,1.76-2.16,.71-.47,1.44-.71,2.21-.71,.35,0,.68,.05,.97,.13,.33,.09,.53,.15,.62,.18,.56,.21,1.06,.31,1.5,.31,.65,0,1.21-.22,1.68-.66,.47-.48,.71-1.17,.71-2.08,0-.68-.31-1.27-.93-1.77-.59-.5-1.32-.75-2.21-.75h0Zm39.44,0c-1.47,0-2.87,.3-4.19,.89-1.3,.56-2.36,1.37-3.18,2.43-.8,1.03-1.2,2.25-1.2,3.66,0,1.62,.39,2.92,1.15,3.89,.8,.94,1.72,1.65,2.78,2.12,1.09,.47,2.49,.94,4.2,1.41,1.65,.44,2.85,.88,3.62,1.32,.79,.45,1.19,1.09,1.19,1.95,0,1.65-1.15,2.52-3.44,2.6-1.36,0-2.52-.22-3.49-.66-.94-.44-1.86-1.12-2.74-2.03-.56-.56-1.15-.84-1.77-.84-.44,0-.86,.13-1.28,.4-.76,.53-1.14,1.17-1.14,1.94,0,.53,.13,.97,.39,1.33,1.06,1.44,2.43,2.48,4.11,3.13s3.49,.97,5.43,.97c1.42,0,2.78-.28,4.11-.84,1.35-.56,2.46-1.37,3.31-2.43,.85-1.08,1.28-2.35,1.28-3.79,0-1.59-.37-2.87-1.1-3.84-.74-.98-1.64-1.7-2.7-2.17s-2.38-.93-3.97-1.37c-1.15-.32-2.05-.59-2.69-.79-.62-.24-1.14-.55-1.55-.93-.41-.41-.62-.94-.62-1.59,0-1.62,1.12-2.43,3.36-2.43,1.06,0,2,.19,2.82,.58,.86,.38,1.55,.89,2.08,1.54,.41,.41,.94,.62,1.59,.62,.53,0,1-.16,1.41-.49,.56-.44,.84-1,.84-1.67,0-.59-.19-1.12-.57-1.59-.86-1.09-2.03-1.92-3.53-2.48-1.51-.56-3.01-.84-4.51-.84h0Zm25.81,0c-1.39,0-2.71,.34-3.98,1.02-1.26,.65-2.25,1.41-2.96,2.3v-.18c0-.77-.25-1.4-.75-1.9-.5-.53-1.13-.79-1.89-.79s-1.4,.26-1.9,.79c-.5,.5-.75,1.13-.75,1.9v27.07c0,.79,.25,1.44,.75,1.94s1.13,.75,1.9,.75,1.39-.26,1.89-.79c.5-.5,.75-1.14,.75-1.9v-8.66c.83,.83,1.86,1.54,3.1,2.12,1.26,.56,2.6,.84,4.02,.84,1.97,0,3.76-.51,5.38-1.54,1.65-1.06,2.95-2.52,3.89-4.37,.94-1.89,1.41-4.01,1.41-6.36s-.48-4.46-1.46-6.32c-.94-1.85-2.23-3.3-3.88-4.33-1.65-1.06-3.49-1.59-5.52-1.59h0Zm24.64,0c-1.97,0-3.78,.53-5.43,1.59-1.62,1.03-2.9,2.49-3.84,4.38-.94,1.85-1.41,3.95-1.41,6.31s.47,4.46,1.41,6.32c.97,1.85,2.28,3.31,3.93,4.37,1.65,1.03,3.49,1.54,5.52,1.54,1.38,0,2.69-.29,3.93-.88,1.26-.62,2.27-1.35,3-2.21,.03,.77,.28,1.4,.75,1.9,.5,.5,1.13,.75,1.9,.75s1.4-.25,1.9-.75c.5-.53,.75-1.18,.75-1.94v-18.68c0-.8-.25-1.45-.75-1.95s-1.13-.75-1.9-.75-1.4,.27-1.9,.8c-.5,.5-.75,1.13-.75,1.9v.04c-.85-.79-1.9-1.44-3.13-1.94-1.24-.53-2.56-.8-3.98-.8Zm28.44,0c-2.24,0-4.24,.53-6,1.59-1.77,1.03-3.15,2.48-4.15,4.33-.98,1.86-1.46,3.97-1.46,6.36s.47,4.39,1.41,6.27c.94,1.86,2.27,3.31,3.98,4.37,1.73,1.06,3.73,1.59,6,1.59,1.53,0,2.98-.17,4.33-.53,1.35-.38,2.44-.88,3.27-1.5,.82-.62,1.23-1.28,1.23-1.99s-.22-1.34-.66-1.81c-.41-.47-.99-.7-1.72-.7-.38,0-.71,.06-.97,.17-.27,.12-.56,.3-.88,.53-.3,.21-.54,.36-.71,.45-.71,.35-1.78,.52-3.22,.52-1.98,0-3.6-.69-4.86-2.07-1.27-1.41-1.9-3.18-1.9-5.3s.62-3.99,1.85-5.34c1.27-1.39,3.01-2.08,5.21-2.08,.36,0,.81,.06,1.37,.18,.59,.12,1.03,.25,1.33,.4,.26,.14,.53,.33,.79,.57,.3,.21,.59,.38,.88,.53,.3,.12,.68,.18,1.15,.18,.62,0,1.12-.24,1.51-.71,.38-.5,.57-1.08,.57-1.72,0-1.3-.77-2.33-2.3-3.09-1.53-.8-3.55-1.2-6.05-1.2h0Zm22.51,0c-1.97,0-3.83,.52-5.57,1.55-1.73,1-3.13,2.46-4.19,4.37-1.06,1.92-1.59,4.14-1.59,6.67,0,2.27,.5,4.31,1.5,6.14,1,1.79,2.42,3.21,4.24,4.24,1.86,1.03,4.02,1.54,6.49,1.54,1.41,0,2.81-.23,4.2-.7,1.38-.47,2.48-1.05,3.31-1.73,.82-.64,1.23-1.37,1.23-2.16,0-.59-.22-1.1-.66-1.54-.44-.45-.97-.67-1.59-.67-.47,0-.97,.13-1.5,.4-.15,.09-.42,.26-.84,.53-.38,.23-.91,.47-1.59,.71-.67,.2-1.62,.3-2.82,.3-1.59,0-3.02-.48-4.29-1.45-1.26-1-2.07-2.37-2.43-4.11h14.58c.7,0,1.32-.22,1.85-.66,.53-.44,.81-1.02,.84-1.72,0-2.1-.51-4.04-1.55-5.83-1.03-1.8-2.41-3.23-4.15-4.29-1.7-1.06-3.53-1.59-5.47-1.59h0Zm-457.81,3.07c-.14,0-.46,.03-.71,.06-.26,.02-.69,.08-.96,.12-.28,.05-.73,.14-1,.21-.28,.06-.73,.19-1,.27-.28,.08-.81,.27-1.19,.42-.38,.15-1,.43-1.38,.62s-.9,.47-1.15,.62c-.26,.15-.67,.41-.92,.57-.25,.17-.63,.44-.85,.6s-.62,.48-.9,.71c-.27,.23-.79,.71-1.14,1.07-.36,.35-.83,.86-1.05,1.12s-.48,.59-.58,.73c-.11,.14-.35,.48-.53,.75-.18,.28-.41,.63-.5,.79-.09,.17-.28,.52-.42,.8-.14,.28-.32,.67-.41,.87-.08,.21-.22,.57-.29,.8-.08,.22-.19,.6-.25,.83-.06,.23-.15,.62-.19,.87-.05,.29-.09,.75-.11,1.21-.01,.47,0,.92,.03,1.19,.03,.24,.09,.61,.14,.82,.04,.2,.15,.56,.23,.79,.08,.23,.24,.62,.37,.86s.36,.62,.52,.83c.16,.22,.41,.51,.55,.66,.14,.14,.39,.37,.55,.5,.16,.13,.44,.34,.63,.46,.18,.12,.53,.32,.79,.44,.25,.12,.65,.29,.88,.37s.63,.19,.89,.25,.71,.14,.98,.18c.33,.04,.79,.07,1.35,.07,.47,0,1.08-.02,1.34-.05,.26-.03,.73-.1,1.04-.16,.31-.05,.78-.16,1.04-.22,.27-.07,.72-.2,1.02-.29,.29-.1,.79-.28,1.1-.4,.3-.13,.81-.35,1.11-.49,.3-.15,.8-.41,1.11-.59,.31-.18,.82-.5,1.13-.7,.31-.21,.74-.52,.96-.68,.21-.17,.58-.46,.81-.65s.7-.63,1.05-.98c.34-.34,.77-.79,.95-1,.18-.2,.52-.63,.76-.95,.24-.32,.58-.82,.77-1.13,.19-.3,.48-.81,.64-1.13,.16-.33,.38-.81,.49-1.09,.11-.27,.27-.74,.36-1.04s.2-.74,.25-.98c.04-.24,.1-.63,.13-.87,.03-.27,.04-.73,.03-1.21-.01-.46-.05-.91-.09-1.12-.04-.2-.12-.53-.18-.73-.06-.2-.16-.5-.23-.67-.06-.16-.2-.45-.3-.65-.11-.19-.3-.5-.43-.68s-.38-.48-.55-.66c-.17-.19-.44-.44-.6-.57-.17-.14-.45-.34-.63-.46-.19-.12-.54-.32-.8-.45-.26-.12-.69-.3-.96-.38-.27-.09-.67-.21-.89-.25-.22-.05-.61-.12-.88-.15-.26-.03-.75-.07-1.08-.08s-.72-.01-.85,0h0Zm-51.73,.14c-.47,.01-1.01,.03-1.19,.05-.19,.02-.57,.08-.86,.14-.28,.06-.77,.19-1.07,.29-.3,.1-.76,.29-1.01,.41-.26,.13-.62,.34-.81,.46-.19,.13-.5,.36-.69,.53-.2,.17-.48,.45-.63,.62-.15,.18-.36,.46-.47,.62-.12,.17-.3,.48-.41,.69-.11,.21-.25,.54-.32,.75-.08,.2-.17,.51-.22,.7-.04,.18-.11,.52-.14,.75-.04,.24-.06,.72-.06,1.08s.02,.88,.06,1.15c.03,.27,.1,.66,.14,.87,.05,.21,.16,.61,.25,.9,.09,.28,.23,.69,.32,.91,.08,.22,.27,.64,.42,.94,.14,.3,.41,.79,.59,1.09,.17,.3,.47,.75,.65,1.01s.53,.71,.77,1,.73,.82,1.09,1.18c.35,.36,.82,.79,1.02,.97,.21,.18,.63,.52,.94,.76,.32,.23,.81,.59,1.11,.78,.29,.19,.71,.45,.91,.57,.21,.12,.72,.38,1.13,.58,.41,.21,.97,.46,1.24,.56,.26,.11,.69,.26,.93,.34,.25,.08,.7,.21,1,.29,.3,.08,.79,.19,1.1,.25s.77,.12,1.02,.15c.26,.03,.88,.06,1.38,.06,.63,0,1.08-.03,1.44-.08,.29-.04,.75-.12,1.04-.19s.7-.2,.92-.28,.58-.24,.81-.35c.23-.12,.61-.34,.84-.49,.27-.18,.59-.45,.94-.8,.31-.31,.62-.67,.77-.89,.14-.21,.35-.57,.47-.8,.11-.23,.27-.62,.35-.86,.08-.24,.19-.65,.25-.91,.08-.42,.09-.6,.09-1.44,0-.74-.01-1.06-.07-1.42-.05-.25-.14-.7-.22-1s-.22-.78-.33-1.08-.37-.9-.59-1.33c-.21-.44-.51-1-.67-1.24-.16-.25-.4-.62-.54-.82-.15-.2-.4-.54-.57-.75s-.54-.64-.82-.95c-.28-.3-.75-.77-1.04-1.04-.29-.26-.75-.66-1.03-.88-.27-.22-.75-.57-1.06-.78-.31-.22-.79-.53-1.06-.69-.27-.17-.79-.45-1.15-.63s-.87-.42-1.15-.54c-.27-.11-.78-.3-1.12-.42-.34-.11-.91-.28-1.27-.37-.36-.09-.88-.2-1.17-.25s-.72-.11-.95-.13c-.24-.02-.82-.04-1.3-.04h0Zm340.03,1.65c1.24,0,2.35,.31,3.36,.93,1.03,.62,1.83,1.5,2.42,2.65,.62,1.12,.93,2.4,.93,3.84s-.31,2.72-.93,3.84c-.59,1.12-1.39,1.99-2.42,2.61-1.01,.61-2.12,.92-3.36,.92s-2.37-.31-3.4-.92c-1-.62-1.81-1.49-2.43-2.61-.59-1.12-.88-2.4-.88-3.84s.29-2.72,.88-3.84c.62-1.15,1.43-2.03,2.43-2.65,1.03-.62,2.16-.93,3.4-.93Zm93.26,0c1.91,0,3.45,.71,4.63,2.12,1.21,1.38,1.81,3.14,1.81,5.26s-.6,3.88-1.81,5.3c-1.2,1.41-2.75,2.11-4.63,2.11s-3.48-.7-4.69-2.11c-1.2-1.42-1.81-3.18-1.81-5.3s.61-3.88,1.81-5.26c1.21-1.41,2.77-2.12,4.69-2.12Zm26.14,0c1.91,0,3.47,.71,4.68,2.12s1.81,3.18,1.81,5.3-.6,3.89-1.81,5.3c-1.21,1.38-2.77,2.07-4.68,2.07s-3.47-.69-4.68-2.07c-1.18-1.41-1.77-3.18-1.77-5.3s.61-3.89,1.81-5.3c1.21-1.41,2.76-2.12,4.64-2.12Zm50.11,0c1.38,0,2.62,.44,3.71,1.33,1.09,.88,1.69,1.94,1.81,3.18v.3h-11.57c.62-3.2,2.63-4.81,6.05-4.81Zm-442.62,11.28c-.19,0-.5,.02-.68,.04-.19,.02-.45,.05-.59,.08-.13,.02-.38,.07-.54,.11s-.51,.13-.77,.21c-.27,.07-.72,.23-1.01,.34-.29,.12-.76,.32-1.04,.46s-.72,.37-.97,.52c-.26,.14-.63,.37-.83,.5-.21,.14-.56,.39-.79,.56-.24,.17-.6,.46-.8,.63-.21,.17-.64,.58-.96,.9-.32,.32-.74,.78-.93,1.01-.19,.24-.45,.6-.59,.8-.13,.2-.34,.54-.46,.76-.12,.22-.3,.59-.4,.83s-.22,.6-.27,.79c-.06,.25-.1,.53-.11,.92-.02,.43-.01,.63,.05,.85,.03,.16,.13,.43,.21,.59,.08,.18,.24,.41,.41,.59,.15,.16,.39,.36,.56,.46,.15,.09,.42,.22,.59,.28,.17,.06,.44,.14,.6,.18,.17,.03,.55,.07,.86,.08,.32,.01,.76,0,1.02-.02,.25-.03,.68-.1,.96-.16,.27-.06,.71-.17,.97-.25s.71-.23,1-.35,.78-.33,1.08-.48c.31-.15,.77-.4,1.03-.56,.27-.16,.7-.44,.97-.62,.28-.19,.68-.48,.89-.65,.22-.18,.61-.51,.86-.74,.26-.22,.67-.64,.91-.91,.25-.27,.57-.64,.7-.82,.14-.18,.38-.52,.54-.76,.15-.23,.38-.64,.51-.89,.13-.26,.29-.64,.36-.85,.07-.21,.16-.52,.19-.69,.05-.19,.07-.5,.08-.83,0-.37-.02-.59-.08-.79-.04-.14-.13-.39-.2-.54-.1-.2-.23-.37-.49-.63-.27-.27-.43-.39-.67-.51-.17-.08-.47-.2-.67-.25-.2-.06-.54-.13-.76-.15-.22-.03-.55-.04-.74-.04h0Zm-81.9,.41c-.33,.01-.74,.03-.92,.07-.18,.03-.47,.1-.65,.16s-.44,.18-.59,.26-.4,.28-.57,.45c-.16,.16-.34,.38-.41,.49-.06,.11-.16,.33-.22,.5-.08,.24-.11,.41-.12,.82-.02,.43,0,.6,.07,.96,.05,.24,.16,.62,.24,.84,.08,.21,.24,.57,.35,.79s.35,.63,.53,.9,.49,.7,.7,.95c.21,.26,.58,.67,.83,.92,.25,.26,.65,.63,.89,.84,.24,.2,.59,.49,.77,.63,.19,.14,.56,.4,.84,.58,.27,.19,.69,.44,.91,.58,.23,.13,.6,.33,.82,.44s.6,.28,.85,.39c.25,.1,.64,.26,.87,.34,.23,.08,.64,.2,.91,.27,.26,.07,.7,.16,.98,.21,.27,.04,.69,.09,.91,.1,.23,.02,.63,.01,.88-.02,.25-.02,.61-.08,.79-.13,.19-.04,.51-.16,.72-.27,.27-.13,.48-.27,.67-.45,.15-.14,.34-.37,.43-.5,.09-.14,.21-.4,.27-.59,.08-.23,.12-.46,.13-.75,.02-.28,0-.55-.04-.82-.04-.22-.13-.57-.2-.79s-.22-.58-.33-.82-.3-.59-.42-.79c-.12-.2-.38-.58-.58-.84-.2-.27-.54-.68-.76-.92s-.57-.61-.79-.81c-.21-.2-.64-.57-.93-.81-.3-.24-.84-.63-1.19-.86-.36-.24-.8-.52-.98-.62-.19-.1-.52-.28-.76-.4-.23-.11-.61-.29-.85-.39-.24-.1-.67-.27-.96-.36-.28-.1-.74-.23-1.02-.3-.27-.07-.72-.15-.99-.18-.27-.04-.76-.07-1.08-.07h0Zm41.65,9.18c-.28,.01-.78,.02-1.11,.04-.33,.02-.9,.08-1.27,.12-.37,.05-.94,.14-1.28,.21-.33,.07-.86,.19-1.16,.27-.31,.09-.79,.24-1.08,.34-.29,.11-.83,.33-1.19,.51-.37,.18-.91,.48-1.19,.67-.37,.25-.66,.49-.98,.82-.27,.26-.56,.6-.68,.79-.12,.18-.27,.46-.34,.62s-.15,.45-.19,.65c-.05,.25-.07,.46-.05,.75,.01,.22,.05,.51,.09,.65,.03,.14,.16,.44,.27,.67,.12,.23,.33,.57,.48,.75,.15,.18,.39,.45,.55,.6,.15,.14,.45,.39,.66,.54,.21,.15,.52,.37,.69,.47,.17,.11,.5,.29,.73,.4,.23,.11,.68,.31,1,.44,.32,.12,.74,.28,.93,.34,.2,.06,.61,.17,.92,.25,.31,.08,.83,.19,1.15,.25s.9,.15,1.29,.19c.46,.06,1.11,.09,1.84,.11,.68,.01,1.39,0,1.79-.03,.37-.02,.89-.07,1.17-.11,.27-.03,.75-.11,1.06-.16,.31-.06,.75-.15,.98-.21s.64-.17,.9-.26c.26-.08,.71-.24,1-.35,.29-.12,.73-.32,.98-.44,.25-.13,.69-.39,.96-.57,.36-.24,.64-.47,.98-.82,.29-.28,.57-.61,.7-.81,.12-.18,.28-.48,.35-.67,.07-.18,.15-.48,.19-.66,.04-.23,.05-.45,.04-.69-.02-.2-.07-.5-.11-.66-.05-.17-.16-.44-.24-.61-.08-.16-.23-.41-.32-.55s-.34-.42-.55-.64c-.2-.21-.57-.53-.8-.71-.24-.18-.63-.44-.88-.58s-.7-.37-.99-.51c-.3-.13-.82-.34-1.15-.45-.34-.12-.83-.27-1.09-.34s-.75-.18-1.09-.25c-.35-.06-.94-.16-1.32-.21-.38-.04-1.01-.1-1.41-.12-.41-.03-.96-.04-1.23-.04h0Z"/></g></g></g></svg>