<?xml version="1.0" encoding="utf-8"?>
<!-- Generator: Adobe Illustrator 27.3.1, SVG Export Plug-In . SVG Version: 6.00 Build 0)  -->
<svg version="1.1"
	 id="Layer_1" xmlns:rdf="http://www.w3.org/1999/02/22-rdf-syntax-ns#" xmlns:dc="http://purl.org/dc/elements/1.1/" xmlns:cc="http://creativecommons.org/ns#"
	 xmlns="http://www.w3.org/2000/svg" xmlns:xlink="http://www.w3.org/1999/xlink" x="0px" y="0px" viewBox="0 0 554.5 135"
	 style="enable-background:new 0 0 554.5 135;" xml:space="preserve">
<style type="text/css">
	.st0{fill:#DF5663;}
</style>
<path class="st0" d="M65.3,0c-0.1,0-0.5,0-0.8,0.1c-0.3,0-0.8,0.1-1.2,0.1c-0.3,0-0.9,0.1-1.2,0.2c-0.4,0.1-0.9,0.2-1.2,0.3
	S60.1,1,59.9,1c-0.2,0.1-0.7,0.3-1,0.4S58.2,1.8,58,2c-0.2,0.1-0.6,0.4-0.8,0.6C57,2.7,56.7,3,56.6,3.1s-0.3,0.4-0.4,0.5
	c-0.1,0.1-0.3,0.4-0.4,0.6s-0.2,0.5-0.2,0.6c0,0.2-0.1,0.5-0.1,0.6c0,0.2,0,0.5,0,0.6c0,0.2,0.1,0.5,0.2,0.7s0.2,0.5,0.3,0.7
	s0.3,0.5,0.5,0.6c0.1,0.2,0.4,0.5,0.7,0.6c0.2,0.2,0.6,0.5,0.8,0.6s0.7,0.4,1,0.6c0.3,0.2,0.8,0.4,1,0.4c0.2,0.1,0.6,0.2,0.8,0.3
	c0.2,0.1,0.7,0.2,1.1,0.3c0.4,0.1,0.9,0.2,1.3,0.3c0.4,0,0.9,0.1,1.2,0.2c0.3,0,1.1,0.1,1.7,0.1c0.7,0,1.4,0,1.8,0
	c0.4,0,0.9-0.1,1.2-0.1s0.7-0.1,0.9-0.1c0.3,0,0.7-0.1,1.1-0.2c0.3-0.1,0.8-0.2,1.1-0.3c0.3-0.1,0.7-0.2,0.9-0.3
	c0.2-0.1,0.7-0.3,1-0.4s0.7-0.4,0.9-0.5s0.5-0.4,0.8-0.6c0.2-0.2,0.5-0.5,0.6-0.6c0.1-0.2,0.3-0.4,0.4-0.6C76.8,7.4,76.9,7.2,77,7
	c0.1-0.1,0.1-0.4,0.2-0.6s0.1-0.4,0.1-0.6c0-0.2,0-0.5-0.1-0.7c0-0.2-0.1-0.5-0.2-0.6c-0.1-0.1-0.2-0.4-0.3-0.5
	c-0.1-0.2-0.3-0.4-0.4-0.6S75.8,3,75.6,2.8c-0.2-0.2-0.5-0.4-0.8-0.6c-0.3-0.2-0.7-0.5-1.1-0.6s-0.9-0.4-1.2-0.5
	c-0.3-0.1-0.9-0.3-1.2-0.4c-0.3-0.1-0.8-0.2-1.1-0.3c-0.3-0.1-0.7-0.1-1-0.2c-0.3,0-0.8-0.1-1.2-0.1C67.7,0,67,0,66.4,0
	C65.9,0,65.4,0,65.3,0L65.3,0z M100.3,8.1c-0.3,0-0.6,0-0.8,0c-0.2,0-0.5,0.1-0.6,0.1c-0.2,0-0.4,0.1-0.6,0.2
	c-0.2,0.1-0.5,0.2-0.6,0.3c-0.2,0.1-0.4,0.3-0.5,0.4s-0.2,0.3-0.3,0.5c-0.1,0.1-0.2,0.4-0.2,0.6c-0.1,0.3-0.1,0.5-0.1,0.8
	c0,0.3,0,0.6,0.1,0.8c0,0.2,0.1,0.5,0.2,0.6c0,0.2,0.2,0.6,0.4,0.9c0.1,0.3,0.4,0.8,0.6,1c0.2,0.2,0.4,0.6,0.5,0.7s0.4,0.5,0.7,0.8
	c0.2,0.2,0.6,0.6,0.9,0.9c0.3,0.2,0.6,0.6,0.9,0.7c0.2,0.2,0.6,0.5,0.9,0.6c0.3,0.2,0.6,0.4,0.9,0.6c0.2,0.1,0.6,0.3,0.8,0.5
	s0.7,0.3,1,0.5s0.9,0.3,1.2,0.5c0.4,0.1,0.9,0.3,1.2,0.3c0.3,0,0.7,0.1,0.9,0.1c0.2,0,0.7,0,1.1,0c0.5,0,0.8,0,1.1-0.1
	c0.2-0.1,0.5-0.2,0.7-0.3c0.2-0.1,0.4-0.3,0.6-0.4c0.1-0.1,0.3-0.3,0.4-0.5s0.2-0.4,0.3-0.6c0.1-0.2,0.1-0.5,0.1-0.6s0-0.5,0-0.6
	s-0.1-0.4-0.1-0.6c0-0.2-0.1-0.5-0.2-0.7c-0.1-0.2-0.2-0.5-0.3-0.7c-0.1-0.2-0.3-0.5-0.4-0.8c-0.1-0.2-0.4-0.6-0.6-0.9
	c-0.2-0.3-0.5-0.7-0.7-0.9s-0.6-0.6-0.8-0.8c-0.2-0.2-0.6-0.6-0.9-0.8c-0.3-0.2-0.7-0.5-0.9-0.7s-0.6-0.4-0.9-0.6
	c-0.3-0.2-0.7-0.4-1-0.5c-0.3-0.1-0.7-0.3-0.9-0.4s-0.7-0.3-0.9-0.4s-0.7-0.2-0.9-0.3c-0.3-0.1-0.7-0.2-1-0.2
	C101,8.1,100.6,8.1,100.3,8.1L100.3,8.1z M34.5,8.5c-0.3,0-0.8,0-1,0.1s-0.6,0.1-0.8,0.1s-0.6,0.1-0.9,0.2c-0.3,0.1-0.7,0.2-1,0.4
	c-0.3,0.1-0.8,0.3-1.1,0.5s-0.7,0.4-0.9,0.5c-0.2,0.1-0.5,0.3-0.8,0.5c-0.3,0.2-0.7,0.5-0.9,0.6s-0.6,0.5-0.8,0.7s-0.6,0.6-0.9,0.9
	c-0.3,0.3-0.7,0.7-0.8,0.9c-0.2,0.2-0.5,0.6-0.6,0.9c-0.2,0.3-0.4,0.7-0.6,1S23,16.4,23,16.6c-0.1,0.2-0.2,0.5-0.2,0.7
	c0,0.3-0.1,0.5,0,0.9c0,0.4,0,0.6,0.1,0.8c0,0.1,0.1,0.4,0.2,0.5s0.2,0.3,0.3,0.5c0.1,0.1,0.3,0.3,0.5,0.4c0.2,0.1,0.5,0.3,0.7,0.3
	c0.2,0.1,0.5,0.2,0.7,0.2c0.3,0,0.6,0.1,1,0.1c0.4,0,0.8,0,1.1-0.1c0.3,0,0.7-0.1,1-0.2c0.3-0.1,0.7-0.2,0.9-0.2
	c0.2-0.1,0.5-0.2,0.8-0.3c0.2-0.1,0.6-0.3,0.9-0.4c0.3-0.1,0.7-0.4,1-0.5c0.3-0.1,0.7-0.4,0.9-0.6s0.7-0.5,0.9-0.6s0.6-0.5,0.8-0.7
	s0.6-0.6,0.9-0.9c0.3-0.3,0.7-0.7,0.9-1c0.2-0.2,0.5-0.6,0.6-0.9s0.4-0.7,0.6-1c0.1-0.3,0.3-0.7,0.4-0.9c0.1-0.2,0.2-0.6,0.2-0.8
	c0-0.3,0.1-0.5,0-0.8c0-0.2-0.1-0.5-0.1-0.6c0-0.1-0.1-0.4-0.2-0.5c-0.1-0.2-0.2-0.4-0.5-0.6c-0.2-0.2-0.4-0.4-0.6-0.5
	c-0.2-0.1-0.5-0.2-0.6-0.3s-0.4-0.1-0.6-0.1C35.2,8.5,34.9,8.5,34.5,8.5L34.5,8.5z M85.1,12.5c-0.5,0-0.9,0-1,0
	c-0.1,0-0.3,0-0.6,0.1s-0.7,0.1-1,0.2c-0.3,0.1-0.6,0.2-0.9,0.3c-0.2,0.1-0.6,0.3-0.9,0.4c-0.3,0.1-0.7,0.4-0.9,0.5
	c-0.2,0.1-0.6,0.5-0.8,0.7s-0.5,0.6-0.7,0.8c-0.1,0.2-0.3,0.5-0.4,0.7c-0.1,0.2-0.2,0.5-0.3,0.7c-0.1,0.2-0.2,0.6-0.3,0.8
	c-0.1,0.2-0.1,0.6-0.2,0.9c0,0.3-0.1,0.7-0.1,1c0,0.3,0,0.7,0,0.9c0,0.2,0.1,0.6,0.1,0.9c0.1,0.3,0.2,0.7,0.2,1
	c0.1,0.3,0.2,0.7,0.3,1c0.1,0.3,0.3,0.7,0.5,1c0.1,0.3,0.4,0.8,0.6,1.1c0.2,0.3,0.5,0.8,0.7,1c0.2,0.3,0.5,0.7,0.7,1
	c0.2,0.2,0.6,0.6,0.8,0.9c0.3,0.3,0.7,0.7,0.9,0.9c0.3,0.2,0.6,0.6,0.9,0.7c0.2,0.2,0.6,0.5,0.9,0.7c0.3,0.2,0.7,0.5,1.1,0.7
	s0.9,0.5,1.2,0.7c0.3,0.2,0.9,0.4,1.2,0.6s0.9,0.4,1.2,0.5c0.3,0.1,0.9,0.3,1.2,0.4c0.3,0.1,0.8,0.2,1.1,0.2c0.3,0,0.8,0.1,1,0.1
	s0.9,0.1,1.4,0c0.6,0,1.1,0,1.4-0.1c0.3,0,0.8-0.1,1-0.2s0.7-0.2,0.9-0.3c0.2-0.1,0.6-0.2,0.8-0.4c0.2-0.1,0.6-0.3,0.8-0.5
	s0.6-0.5,0.9-0.7c0.2-0.2,0.6-0.6,0.7-0.8c0.1-0.2,0.4-0.5,0.5-0.7c0.1-0.2,0.3-0.6,0.4-0.8c0.1-0.2,0.2-0.6,0.2-0.8
	c0.1-0.2,0.1-0.6,0.2-0.9c0.1-0.4,0.1-0.7,0-1.3c0-0.5,0-1-0.1-1.2s-0.1-0.6-0.2-0.9c-0.1-0.3-0.2-0.7-0.3-0.9
	c-0.1-0.2-0.2-0.6-0.3-0.8c-0.1-0.2-0.3-0.6-0.4-0.9c-0.1-0.3-0.4-0.7-0.5-0.9c-0.1-0.2-0.3-0.5-0.5-0.8s-0.5-0.7-0.7-0.9
	c-0.2-0.2-0.6-0.7-0.8-1c-0.3-0.3-0.7-0.8-1-1c-0.3-0.3-0.7-0.6-1-0.9c-0.3-0.2-0.7-0.5-1-0.7s-0.7-0.5-1-0.7
	c-0.3-0.2-0.9-0.5-1.3-0.7c-0.4-0.2-1-0.5-1.3-0.6c-0.3-0.1-0.8-0.3-1.1-0.4c-0.3-0.1-0.9-0.3-1.3-0.4c-0.4-0.1-0.9-0.2-1.2-0.2
	c-0.3,0-0.7-0.1-1-0.1C86.1,12.5,85.5,12.5,85.1,12.5L85.1,12.5z M49.1,12.7c-0.4,0-0.9,0-1.1,0c-0.2,0-0.6,0.1-0.9,0.1
	s-0.9,0.2-1.2,0.2c-0.4,0.1-0.9,0.2-1.1,0.3c-0.3,0.1-0.7,0.2-1,0.4c-0.3,0.1-0.8,0.3-1.1,0.5s-0.8,0.4-1.1,0.6
	c-0.3,0.2-0.8,0.5-1.1,0.7c-0.3,0.2-0.8,0.5-1,0.7c-0.3,0.2-0.7,0.5-1,0.8c-0.3,0.2-0.8,0.7-1.1,1.1c-0.4,0.4-0.9,0.9-1.1,1.2
	s-0.5,0.7-0.7,0.9c-0.1,0.2-0.4,0.6-0.6,0.9s-0.4,0.7-0.5,1c-0.1,0.3-0.3,0.7-0.5,1c-0.1,0.3-0.3,0.8-0.4,1c-0.1,0.3-0.2,0.7-0.3,1
	c0,0.3-0.1,0.7-0.1,0.9c0,0.3,0,0.7,0,1.2c0,0.5,0,0.9,0.1,1.2c0,0.2,0.1,0.6,0.2,0.9s0.2,0.6,0.4,0.9c0.1,0.2,0.3,0.6,0.5,0.8
	c0.1,0.2,0.5,0.6,0.8,0.9c0.4,0.4,0.7,0.6,1,0.8c0.2,0.2,0.6,0.4,0.9,0.5c0.2,0.1,0.6,0.3,0.9,0.4c0.3,0.1,0.7,0.2,1,0.3
	c0.3,0.1,0.7,0.1,0.9,0.2c0.2,0,0.8,0,1.4,0c0.7,0,1.2,0,1.5-0.1c0.3,0,0.8-0.1,1-0.2c0.3-0.1,0.8-0.2,1.1-0.3
	c0.3-0.1,0.8-0.2,1-0.3c0.2-0.1,0.6-0.2,0.9-0.3c0.2-0.1,0.8-0.3,1.1-0.5c0.4-0.2,0.8-0.4,1.1-0.6c0.2-0.1,0.7-0.4,1.1-0.7
	c0.4-0.2,1-0.7,1.3-1c0.4-0.3,1-0.8,1.3-1.2c0.4-0.4,0.8-0.9,1-1.1c0.2-0.2,0.5-0.6,0.7-0.9c0.2-0.2,0.4-0.6,0.6-0.8
	c0.2-0.2,0.4-0.6,0.5-0.9c0.1-0.2,0.3-0.6,0.4-0.8s0.3-0.6,0.4-0.9c0.1-0.3,0.3-0.7,0.4-1c0.1-0.3,0.2-0.7,0.2-0.9s0.1-0.6,0.1-0.9
	s0.1-0.8,0.1-1.1s0-0.9-0.1-1.1c0-0.2-0.1-0.5-0.1-0.7c0-0.1-0.1-0.4-0.2-0.6s-0.2-0.5-0.3-0.7c-0.1-0.2-0.3-0.5-0.4-0.8
	c-0.1-0.2-0.4-0.5-0.5-0.7s-0.4-0.5-0.6-0.6c-0.2-0.2-0.5-0.4-0.7-0.6s-0.5-0.3-0.7-0.4c-0.2-0.1-0.5-0.2-0.7-0.3
	c-0.2-0.1-0.5-0.2-0.7-0.2c-0.2-0.1-0.5-0.1-0.8-0.2c-0.2,0-0.6-0.1-0.9-0.1C50.1,12.7,49.6,12.7,49.1,12.7L49.1,12.7z M207.8,17.6
	c-12,0-21.5,8.6-22,20c-0.3,7.4,2.9,17.4,20,23.2c11.6,4,11.4,9,11.3,10.6c-0.2,4.5-4.1,7.8-9.3,7.8c-6.2,0-8.7-3.1-9.7-5.7
	l-11.9,4.5c1.2,3.3,6.5,13.9,21.6,13.9c12,0,21.5-8.6,22-20c0.3-7.4-2.9-17.4-20-23.2c-11.6-4-11.4-9-11.3-10.6
	c0.2-4.5,4.1-7.8,9.3-7.8c6.2,0,8.7,3.1,9.7,5.7l11.9-4.5C228.1,28.2,222.9,17.6,207.8,17.6L207.8,17.6z M291,19.6v47.1v25.4h12.5
	V64.6v0v2.2c0-4.2,3.5-7.7,7.7-7.7s7.7,3.4,7.7,7.7v25.4h12.5V66.8c0-11.2-9.1-20.2-20.2-20.2c-2.6,0-5.3,0.5-7.7,1.5V19.6L291,19.6
	L291,19.6z M541.9,19.6v72.5h12.5V19.6H541.9z M426.5,19.7V33H439V19.7H426.5z M18.1,22.7c-0.1,0-0.3,0-0.3,0c-0.1,0-0.3,0-0.5,0.1
	c-0.2,0-0.5,0.1-0.8,0.2c-0.2,0.1-0.6,0.2-0.9,0.4c-0.2,0.1-0.7,0.4-0.9,0.6s-0.6,0.5-0.8,0.6c-0.2,0.2-0.6,0.5-0.9,0.9
	c-0.3,0.3-0.8,0.8-1,1s-0.5,0.6-0.6,0.8c-0.1,0.2-0.4,0.5-0.5,0.8s-0.4,0.6-0.5,0.9c-0.1,0.2-0.3,0.6-0.5,0.9
	c-0.1,0.2-0.3,0.7-0.4,1c-0.1,0.3-0.3,0.7-0.4,1c-0.1,0.3-0.2,0.7-0.3,1c-0.1,0.3-0.1,0.7-0.2,1c0,0.3-0.1,0.6-0.1,0.9s0,0.5,0,0.8
	c0,0.2,0.1,0.5,0.1,0.7c0.1,0.2,0.2,0.5,0.3,0.7c0.1,0.2,0.3,0.4,0.5,0.6c0.2,0.2,0.4,0.4,0.6,0.5c0.2,0.1,0.4,0.2,0.6,0.2
	c0.2,0,0.4,0.1,0.8,0.1c0.3,0,0.6,0,0.9-0.1c0.2,0,0.6-0.1,0.8-0.2c0.2-0.1,0.6-0.2,0.8-0.4c0.2-0.1,0.6-0.3,0.8-0.5
	c0.2-0.2,0.6-0.5,0.9-0.6s0.7-0.6,0.9-0.9s0.7-0.7,0.9-0.9s0.5-0.6,0.7-0.8c0.2-0.2,0.5-0.7,0.7-1s0.4-0.7,0.6-0.9s0.3-0.6,0.5-0.9
	c0.1-0.3,0.3-0.8,0.4-1c0.1-0.2,0.2-0.6,0.3-0.9c0.1-0.3,0.2-0.7,0.2-1c0.1-0.3,0.1-0.7,0.1-0.9c0-0.2,0.1-0.6,0.1-0.8
	c0-0.2,0-0.6-0.1-0.8c0-0.2-0.1-0.5-0.1-0.6c0-0.1-0.1-0.4-0.2-0.6c-0.1-0.2-0.3-0.4-0.5-0.7c-0.3-0.3-0.4-0.4-0.7-0.5
	c-0.3-0.1-0.5-0.2-0.8-0.2C18.4,22.7,18.2,22.7,18.1,22.7L18.1,22.7z M117.3,23.1c-0.2,0-0.5,0-0.6,0.1c-0.1,0-0.5,0.1-0.6,0.2
	c-0.3,0.1-0.4,0.2-0.7,0.5c-0.2,0.3-0.4,0.4-0.5,0.7c-0.1,0.2-0.2,0.5-0.3,0.8c0,0.2-0.1,0.6-0.1,0.8c0,0.3,0,0.6,0,1
	c0,0.3,0.1,0.8,0.1,1c0,0.3,0.2,0.7,0.2,1c0.1,0.3,0.2,0.8,0.4,1.1c0.1,0.3,0.4,0.9,0.6,1.3c0.2,0.4,0.5,0.9,0.6,1.2
	c0.2,0.2,0.4,0.7,0.6,0.9c0.2,0.3,0.5,0.7,0.8,1s0.7,0.8,0.9,1c0.3,0.3,0.7,0.7,1,0.9c0.2,0.2,0.7,0.5,1,0.7
	c0.3,0.2,0.7,0.4,0.9,0.5s0.6,0.3,0.8,0.4s0.6,0.2,0.8,0.2c0.3,0.1,0.6,0.1,0.9,0.1c0.3,0,0.5,0,0.8-0.1c0.2,0,0.4-0.1,0.6-0.2
	c0.2-0.1,0.4-0.3,0.6-0.5c0.2-0.2,0.4-0.4,0.5-0.6c0.1-0.2,0.2-0.4,0.2-0.6c0-0.1,0.1-0.4,0.1-0.6c0-0.2,0.1-0.6,0.1-0.9
	c0-0.3,0-0.7,0-0.9c0-0.2-0.1-0.5-0.1-0.8c0-0.2-0.1-0.6-0.2-0.9c-0.1-0.3-0.2-0.7-0.3-1c-0.1-0.3-0.3-0.7-0.5-1
	c-0.1-0.3-0.4-0.7-0.5-0.9s-0.4-0.7-0.6-1c-0.2-0.4-0.6-0.9-0.9-1.2s-0.6-0.8-0.9-1c-0.2-0.3-0.7-0.7-0.9-0.9s-0.6-0.5-0.8-0.6
	c-0.2-0.1-0.5-0.4-0.7-0.5c-0.2-0.1-0.6-0.3-0.9-0.5c-0.3-0.1-0.6-0.3-0.8-0.3c-0.2-0.1-0.5-0.1-0.8-0.2S117.5,23.1,117.3,23.1
	L117.3,23.1z M67.6,26.6c-0.5,0-1,0-1.3,0c-0.3,0-0.7,0.1-1,0.1c-0.3,0-0.7,0.1-0.9,0.1S63.7,27,63.4,27s-0.7,0.2-1,0.3
	c-0.3,0.1-0.8,0.3-1.1,0.4c-0.3,0.1-0.7,0.3-1,0.5c-0.3,0.1-0.7,0.4-0.9,0.5c-0.2,0.1-0.6,0.4-0.9,0.6c-0.3,0.2-0.7,0.5-1,0.7
	c-0.3,0.2-0.7,0.6-1,0.8c-0.3,0.2-0.7,0.7-0.9,0.9c-0.2,0.3-0.6,0.7-0.8,0.9c-0.2,0.2-0.5,0.6-0.6,0.9c-0.2,0.3-0.4,0.6-0.5,0.9
	s-0.3,0.6-0.5,0.9c-0.1,0.3-0.4,0.8-0.5,1.1c-0.1,0.3-0.3,0.8-0.4,1s-0.2,0.6-0.2,0.8s-0.1,0.7-0.2,1s-0.1,0.8-0.2,1.2
	c0,0.4-0.1,1-0.1,1.6c0,0.6,0,1.2,0.1,1.5c0,0.3,0.1,0.7,0.1,1c0,0.2,0.1,0.6,0.2,0.8c0.1,0.2,0.2,0.7,0.2,1
	c0.1,0.3,0.2,0.8,0.4,1.1c0.1,0.3,0.4,0.9,0.6,1.3c0.2,0.4,0.5,1,0.7,1.2c0.2,0.3,0.5,0.7,0.6,1c0.2,0.2,0.4,0.6,0.6,0.8
	c0.2,0.2,0.7,0.8,1.1,1.1s1,0.9,1.3,1.2c0.3,0.2,0.8,0.6,1.1,0.8s0.8,0.5,1,0.6c0.2,0.1,0.6,0.3,0.9,0.4c0.2,0.1,0.7,0.3,1,0.4
	c0.3,0.1,0.8,0.3,1.1,0.4s0.9,0.2,1.2,0.3s0.8,0.2,1.1,0.2c0.3,0,0.9,0.1,1.2,0.1c0.4,0,1,0,1.5,0c0.5,0,1.1-0.1,1.5-0.1
	s0.9-0.1,1.1-0.2c0.2,0,0.6-0.1,0.9-0.2c0.3-0.1,0.6-0.2,0.8-0.2c0.2-0.1,0.6-0.2,1-0.4c0.4-0.1,0.9-0.4,1.3-0.6
	c0.3-0.2,0.9-0.5,1.2-0.6c0.3-0.2,0.8-0.5,1.1-0.8s0.8-0.6,1-0.9c0.2-0.2,0.6-0.6,0.8-0.8c0.2-0.2,0.5-0.5,0.6-0.7s0.4-0.5,0.6-0.7
	c0.2-0.2,0.5-0.6,0.6-0.9c0.2-0.3,0.4-0.6,0.5-0.9c0.1-0.2,0.3-0.6,0.5-0.9c0.1-0.3,0.3-0.7,0.4-0.9s0.2-0.6,0.3-0.9
	c0.1-0.3,0.2-0.8,0.3-1.1s0.2-0.8,0.2-1.1c0.1-0.3,0.1-0.8,0.2-1c0-0.2,0-0.9,0-1.7c0-0.8,0-1.4,0-1.7c0-0.3-0.1-0.7-0.2-1
	s-0.2-0.8-0.2-1.1s-0.2-0.9-0.4-1.2c-0.1-0.3-0.3-0.9-0.5-1.2c-0.2-0.4-0.4-0.9-0.6-1.2c-0.2-0.3-0.5-0.8-0.6-1s-0.4-0.6-0.5-0.8
	c-0.1-0.2-0.4-0.5-0.5-0.7c-0.2-0.2-0.6-0.6-0.9-1c-0.3-0.3-0.9-0.8-1.2-1.1s-0.8-0.6-1-0.8c-0.3-0.2-0.6-0.4-0.9-0.5
	s-0.6-0.3-0.9-0.5s-0.8-0.4-1-0.5c-0.3-0.1-0.8-0.3-1.1-0.4c-0.3-0.1-0.8-0.2-1-0.3s-0.7-0.1-1-0.2s-0.8-0.1-1.1-0.2
	C68.6,26.6,68,26.6,67.6,26.6L67.6,26.6z M26.9,33.1c0,0-0.2,0-0.3,0c-0.1,0-0.4,0-0.6,0.1c-0.2,0-0.6,0.1-0.9,0.1
	c-0.3,0-0.8,0.2-1.1,0.3c-0.3,0.1-0.8,0.3-1,0.4c-0.2,0.1-0.6,0.3-0.9,0.4c-0.3,0.1-0.7,0.4-0.9,0.5c-0.2,0.1-0.6,0.4-0.8,0.5
	s-0.6,0.5-0.9,0.6s-0.6,0.5-0.8,0.7c-0.2,0.2-0.6,0.6-0.9,0.9c-0.3,0.3-0.8,0.8-1,1.1s-0.6,0.8-0.9,1.1c-0.2,0.3-0.6,0.8-0.8,1.1
	s-0.5,0.9-0.7,1.3c-0.2,0.4-0.4,0.9-0.6,1.1c-0.1,0.2-0.2,0.6-0.3,0.9c-0.1,0.3-0.2,0.7-0.3,1c-0.1,0.3-0.2,0.8-0.3,1.2
	s-0.1,0.9-0.2,1.1c-0.1,0.4-0.1,0.9-0.1,1.5c0,0.6,0,1.1,0.1,1.4c0,0.2,0.1,0.6,0.1,0.9c0.1,0.3,0.2,0.7,0.2,0.9
	c0.1,0.2,0.2,0.6,0.4,0.9c0.1,0.2,0.3,0.5,0.4,0.7c0.1,0.1,0.2,0.4,0.4,0.6c0.1,0.2,0.4,0.5,0.6,0.7c0.2,0.2,0.5,0.5,0.8,0.7
	c0.3,0.2,0.6,0.4,1,0.6c0.3,0.1,0.7,0.3,0.9,0.4c0.2,0.1,0.5,0.2,0.7,0.2c0.2,0,0.5,0.1,0.7,0.1c0.2,0,0.6,0,0.9,0s0.7,0,1-0.1
	s0.8-0.1,1-0.2c0.3-0.1,0.8-0.2,1.1-0.3s0.9-0.3,1.1-0.4c0.3-0.1,0.7-0.3,1-0.5c0.3-0.2,0.8-0.5,1.2-0.7c0.3-0.2,0.9-0.6,1.2-0.9
	s0.8-0.7,1.2-1c0.3-0.3,0.8-0.9,1.1-1.1c0.2-0.3,0.6-0.8,0.9-1.1c0.2-0.3,0.5-0.7,0.6-0.9c0.1-0.2,0.4-0.6,0.5-0.8
	c0.1-0.2,0.4-0.7,0.6-1.1s0.4-0.9,0.5-1.1c0.1-0.2,0.3-0.7,0.4-1c0.1-0.3,0.2-0.7,0.3-1c0.1-0.2,0.2-0.7,0.2-0.9s0.1-0.7,0.2-1
	c0.1-0.4,0.1-0.9,0.1-1.5c0-0.6,0-1.1,0-1.4c0-0.3-0.1-0.7-0.2-1c0-0.3-0.2-0.7-0.2-1c-0.1-0.3-0.2-0.6-0.3-0.8
	c-0.1-0.2-0.2-0.5-0.4-0.7c-0.1-0.2-0.3-0.5-0.4-0.7c-0.1-0.2-0.5-0.5-0.7-0.8c-0.2-0.2-0.6-0.5-0.8-0.7c-0.2-0.1-0.6-0.4-0.8-0.5
	c-0.2-0.1-0.6-0.3-0.9-0.4s-0.6-0.2-0.9-0.2c-0.2,0-0.7-0.1-1-0.1C27.3,33.1,27,33.1,26.9,33.1L26.9,33.1L26.9,33.1z M108,33.8
	c-0.1,0-0.4,0-0.6,0c-0.2,0-0.6,0.1-0.8,0.1c-0.2,0-0.6,0.1-0.9,0.2c-0.2,0.1-0.6,0.2-0.9,0.4c-0.3,0.1-0.6,0.3-0.8,0.5
	c-0.2,0.1-0.5,0.4-0.6,0.5c-0.2,0.1-0.4,0.4-0.6,0.6c-0.1,0.2-0.4,0.5-0.5,0.7c-0.1,0.2-0.3,0.5-0.4,0.7c-0.1,0.2-0.2,0.6-0.3,0.8
	c-0.1,0.2-0.2,0.6-0.3,0.9s-0.2,0.7-0.2,1c0,0.2-0.1,0.8-0.1,1.2c0,0.5,0,1,0,1.4c0,0.3,0.1,0.8,0.2,1.2c0,0.3,0.1,0.8,0.2,1
	c0,0.2,0.2,0.6,0.2,0.9c0.1,0.3,0.3,0.8,0.4,1.1c0.1,0.3,0.4,0.9,0.6,1.3c0.2,0.4,0.5,0.9,0.6,1.2s0.5,0.8,0.7,1.2
	c0.3,0.4,0.6,0.9,0.9,1.2c0.2,0.3,0.6,0.7,0.8,1s0.6,0.7,0.9,0.9c0.3,0.3,0.7,0.6,0.9,0.9c0.3,0.2,0.6,0.5,0.8,0.6s0.5,0.4,0.7,0.5
	c0.2,0.1,0.5,0.3,0.7,0.4c0.2,0.1,0.6,0.3,0.9,0.5c0.3,0.1,0.8,0.4,1,0.5c0.3,0.1,0.8,0.3,1,0.4c0.3,0.1,0.7,0.2,0.9,0.2
	s0.6,0.1,0.9,0.1c0.3,0,0.7,0.1,1,0.1s0.6,0,0.8,0c0.2,0,0.5-0.1,0.7-0.1s0.5-0.1,0.7-0.2s0.6-0.2,0.9-0.3s0.6-0.3,0.9-0.5
	c0.3-0.2,0.6-0.5,0.9-0.8c0.4-0.4,0.6-0.6,0.8-1c0.2-0.2,0.4-0.6,0.5-0.9s0.3-0.6,0.4-0.8s0.2-0.6,0.2-0.9s0.1-0.6,0.2-0.9
	c0-0.2,0.1-0.8,0.1-1.2c0-0.5,0-1,0-1.4c0-0.3-0.1-0.8-0.1-1.2c-0.1-0.4-0.2-0.9-0.3-1.2s-0.2-0.8-0.3-1c-0.1-0.3-0.2-0.7-0.4-1
	c-0.1-0.3-0.3-0.8-0.5-1c-0.1-0.3-0.4-0.7-0.5-1c-0.1-0.2-0.4-0.7-0.5-0.9s-0.5-0.7-0.7-1c-0.2-0.3-0.6-0.8-0.8-1.1
	s-0.7-0.8-1.1-1.2c-0.3-0.3-0.8-0.8-1.1-1s-0.7-0.5-0.9-0.7c-0.3-0.2-0.6-0.5-0.9-0.6c-0.2-0.1-0.6-0.4-0.9-0.6
	c-0.3-0.1-0.7-0.4-1-0.5s-0.7-0.3-1-0.4c-0.3-0.1-0.7-0.2-1-0.3c-0.3-0.1-0.6-0.1-0.9-0.2c-0.2,0-0.6-0.1-0.9-0.1
	C108.5,33.8,108.2,33.8,108,33.8L108,33.8z M469.1,46.2c-10.3,0-19.4,6.9-22,16.9c-2.7,10,1.7,20.5,10.6,25.7
	c9,5.2,20.2,3.7,27.5-3.6l-8.9-8.9c-2.9,2.9-7.4,3.8-11.2,2.2s-6.3-5.3-6.3-9.5c0-4.1,2.5-7.9,6.3-9.5s8.3-0.7,11.2,2.2l8.9-8.9
	C480.9,48.6,475.1,46.2,469.1,46.2L469.1,46.2z M238.2,46.4v72.5h12.5V89.6c5.8,2.9,12.8,3.3,19,0.7c8.5-3.5,14.1-11.9,14.1-21.1
	c0-12.6-10.2-22.8-22.8-22.8c-3.6,0-7.1,0.9-10.3,2.5v-2.5L238.2,46.4L238.2,46.4z M408.2,46.4L408.2,46.4c-1.5,0-3,0.2-4.4,0.6
	v-0.6h-12.5v17V92h12.5V63.4v0L404,62c0.4-1.2,1.3-2.2,2.5-2.8c1.7-0.7,3.6-0.3,4.8,1l8.9-8.9C417.1,48.2,412.8,46.4,408.2,46.4
	L408.2,46.4z M510.8,46.4c-9.4,0-17.9,5.8-21.3,14.6c-3.4,8.8-1,18.8,6,25.1c7,6.3,17.2,7.7,25.6,3.5V92h12.5V46.4h-12.5v2.5
	C517.9,47.2,514.3,46.4,510.8,46.4L510.8,46.4z M361.6,46.4c-12.6,0-22.8,10.2-22.8,22.8c0,1.3,0.1,2.5,0.3,3.8l0,0h0
	c0,0.2,0.1,0.4,0.1,0.6c0,0,0,0,0,0.1c0,0.2,0.1,0.3,0.1,0.5c0,0,0,0,0,0c0.1,0.6,0.3,1.2,0.5,1.8c0,0,0,0,0,0
	c0,0.2,0.1,0.3,0.2,0.5c0,0,0,0,0,0c0.2,0.5,0.3,0.9,0.5,1.4c0,0,0,0,0,0.1c0.1,0.2,0.1,0.3,0.2,0.5c0,0,0,0,0,0
	c0.2,0.5,0.5,1.1,0.8,1.6c0,0,0,0,0,0c0.1,0.2,0.2,0.4,0.3,0.5c0,0,0,0,0,0c0.2,0.4,0.5,0.9,0.8,1.3c0,0,0,0,0,0
	c0.1,0.1,0.1,0.2,0.2,0.3v0c0.3,0.4,0.5,0.8,0.8,1.1l0,0c4.3,5.4,11,8.8,18.6,8.8c6.8,0,12.3-2.2,18.2-7.3l-8.1-9.5
	c-3.7,3.1-6.6,4-10.4,4c-1.9,0.1-3.7-0.4-5.3-1.4l15.7-6.5l12.6-5.2l-2.5-5.8l0-0.1l0,0l0-0.1l0,0l0-0.1l0,0l0-0.1l0,0l0,0
	c-0.6-1.4-1.4-2.7-2.2-3.9h0C375.9,50.1,369,46.4,361.6,46.4L361.6,46.4L361.6,46.4z M426.5,46.5v45.6H439V46.5H426.5z M41.9,51.8
	c-0.2,0-0.6,0-0.7,0c-0.1,0-0.5,0-0.9,0.1c-0.3,0-0.8,0.1-1,0.1c-0.2,0-0.7,0.1-1,0.2c-0.3,0.1-0.8,0.2-1.1,0.3s-0.8,0.3-1.1,0.4
	c-0.3,0.1-0.7,0.3-1,0.5c-0.3,0.1-0.7,0.4-0.9,0.5c-0.2,0.1-0.6,0.4-0.9,0.5c-0.3,0.2-0.7,0.5-1,0.7c-0.3,0.2-0.7,0.6-0.9,0.8
	c-0.2,0.2-0.6,0.6-0.9,0.9c-0.2,0.3-0.6,0.7-0.8,1c-0.2,0.3-0.6,0.8-0.8,1.1c-0.2,0.3-0.5,0.8-0.6,1.1c-0.2,0.4-0.5,0.9-0.6,1.3
	s-0.3,0.9-0.4,1.1s-0.2,0.7-0.2,0.9s-0.1,0.7-0.2,1c-0.1,0.3-0.1,0.8-0.2,1.2c0,0.4-0.1,1-0.1,1.6c0,0.6,0,1.2,0.1,1.5
	s0.1,0.8,0.1,1.1c0,0.3,0.1,0.8,0.2,1.1c0.1,0.3,0.2,0.8,0.3,1c0.1,0.2,0.2,0.7,0.4,1c0.1,0.3,0.4,0.8,0.5,1.2s0.4,0.8,0.6,1.1
	s0.5,0.7,0.6,0.9c0.2,0.2,0.4,0.6,0.6,0.8c0.2,0.2,0.7,0.8,1.1,1.1s1,0.9,1.3,1.2c0.3,0.2,0.8,0.6,1.1,0.8s0.8,0.5,1,0.6
	c0.2,0.1,0.6,0.3,0.9,0.4c0.2,0.1,0.6,0.3,0.9,0.4c0.3,0.1,0.8,0.3,1.1,0.4s0.8,0.2,1.1,0.3c0.3,0.1,0.8,0.2,1,0.2
	c0.3,0,0.7,0.1,1,0.1c0.3,0,0.9,0,1.6,0c0.9,0,1.3,0,1.7-0.1c0.3,0,0.8-0.1,1-0.1c0.2,0,0.7-0.2,1.1-0.2c0.3-0.1,0.8-0.2,1-0.3
	s0.6-0.2,0.9-0.4c0.3-0.1,0.8-0.3,1.1-0.5c0.4-0.2,0.8-0.4,1.1-0.6c0.2-0.1,0.6-0.4,0.9-0.6c0.2-0.2,0.6-0.5,0.8-0.6s0.6-0.6,1-0.9
	c0.3-0.3,0.7-0.7,0.9-1s0.5-0.6,0.7-0.9c0.2-0.2,0.5-0.6,0.6-0.9s0.4-0.6,0.5-0.9c0.1-0.2,0.3-0.6,0.5-0.9c0.1-0.3,0.3-0.7,0.4-0.9
	c0.1-0.2,0.2-0.6,0.3-0.9c0.1-0.2,0.2-0.7,0.3-1c0.1-0.3,0.2-0.8,0.2-1s0.1-0.7,0.1-0.9c0-0.3,0.1-0.9,0.1-1.5c0-0.6,0-1.3,0-1.6
	c0-0.3-0.1-0.9-0.1-1.2c-0.1-0.3-0.2-0.9-0.2-1.1c-0.1-0.3-0.2-0.9-0.4-1.2c-0.1-0.4-0.4-1-0.5-1.3c-0.1-0.3-0.4-0.8-0.5-1
	s-0.4-0.7-0.5-0.9c-0.2-0.2-0.4-0.6-0.6-0.8c-0.1-0.2-0.4-0.6-0.6-0.8c-0.2-0.2-0.5-0.6-0.7-0.8c-0.2-0.2-0.6-0.6-0.8-0.8
	c-0.2-0.2-0.6-0.5-0.8-0.7c-0.2-0.2-0.6-0.5-0.9-0.6c-0.3-0.2-0.7-0.5-0.9-0.6s-0.6-0.3-0.9-0.5c-0.3-0.1-0.8-0.4-1-0.5
	c-0.3-0.1-0.8-0.3-1.1-0.4c-0.3-0.1-0.8-0.2-1-0.3s-0.6-0.1-0.8-0.2S44.3,52,44,52c-0.3,0-0.8-0.1-1.1-0.1
	C42.6,51.8,42.1,51.8,41.9,51.8L41.9,51.8z M92.9,52.3c-0.1,0-0.4,0-0.7,0s-0.8,0.1-1.1,0.1s-0.8,0.1-1.1,0.2
	c-0.3,0.1-0.9,0.2-1.2,0.3c-0.3,0.1-0.8,0.3-1.1,0.4c-0.3,0.1-0.7,0.3-1,0.4c-0.3,0.1-0.7,0.4-1,0.5c-0.3,0.2-0.8,0.5-1.1,0.7
	s-0.7,0.5-1,0.7c-0.2,0.2-0.6,0.5-0.9,0.8c-0.3,0.2-0.7,0.6-0.9,0.9s-0.6,0.6-0.8,0.9c-0.2,0.2-0.4,0.6-0.6,0.8
	c-0.2,0.2-0.4,0.6-0.6,0.9c-0.1,0.2-0.4,0.7-0.6,1.1c-0.2,0.4-0.4,0.9-0.5,1.2c-0.1,0.3-0.3,0.8-0.4,1s-0.2,0.6-0.3,0.9
	c-0.1,0.3-0.2,0.7-0.2,1c0,0.2-0.1,0.7-0.1,0.9c0,0.3-0.1,0.9-0.1,1.5c0,0.6,0,1.2,0,1.6c0,0.4,0.1,0.9,0.1,1.2
	c0.1,0.4,0.2,0.9,0.2,1.2c0.1,0.3,0.2,0.8,0.3,1.1c0.1,0.3,0.3,0.8,0.4,1c0.1,0.3,0.3,0.8,0.5,1c0.1,0.3,0.4,0.7,0.5,0.9
	c0.1,0.2,0.4,0.6,0.6,0.9c0.2,0.3,0.5,0.8,0.7,1s0.6,0.7,1,1.1s0.8,0.8,1.1,1.1c0.3,0.2,0.8,0.6,1,0.8s0.6,0.4,0.8,0.6
	c0.2,0.1,0.7,0.4,1.1,0.6s1,0.5,1.2,0.6c0.3,0.1,0.8,0.3,1,0.4c0.2,0.1,0.6,0.2,0.8,0.2s0.6,0.1,0.9,0.2c0.3,0.1,0.9,0.2,1.2,0.2
	c0.4,0,0.9,0.1,1.8,0.1c1,0,1.4,0,1.9-0.1c0.3,0,0.9-0.1,1.2-0.2c0.3-0.1,0.9-0.2,1.2-0.3c0.3-0.1,0.9-0.3,1.2-0.4
	c0.3-0.1,0.9-0.4,1.3-0.6c0.4-0.2,0.9-0.5,1.2-0.6s0.7-0.4,0.9-0.6c0.2-0.2,0.6-0.5,0.8-0.6c0.2-0.2,0.6-0.5,0.8-0.7
	c0.2-0.2,0.6-0.6,0.8-0.8c0.2-0.2,0.5-0.6,0.7-0.8c0.2-0.2,0.4-0.6,0.6-0.8c0.1-0.2,0.4-0.6,0.5-0.8c0.1-0.2,0.4-0.6,0.5-0.8
	c0.1-0.2,0.3-0.6,0.5-1c0.1-0.3,0.3-0.8,0.5-1.2c0.1-0.3,0.3-0.8,0.3-1.1c0.1-0.3,0.2-0.6,0.2-0.9c0-0.2,0.1-0.6,0.1-0.8
	c0-0.2,0.1-0.6,0.1-0.9c0-0.2,0-0.9,0-1.4c0-0.5,0-1.2-0.1-1.5c0-0.3-0.1-0.9-0.2-1.2c0-0.3-0.1-0.8-0.2-1c0-0.2-0.1-0.6-0.2-0.8
	s-0.2-0.6-0.3-1c-0.1-0.3-0.4-0.9-0.5-1.2c-0.2-0.3-0.5-0.9-0.6-1.2c-0.2-0.3-0.5-0.8-0.7-1s-0.5-0.7-0.7-0.9
	c-0.2-0.2-0.6-0.7-1-1.1c-0.3-0.4-0.9-0.8-1.2-1.1s-0.8-0.6-1-0.8c-0.3-0.2-0.7-0.4-0.9-0.6s-0.6-0.3-0.9-0.5
	c-0.2-0.1-0.7-0.3-0.9-0.4c-0.3-0.1-0.7-0.3-1-0.4c-0.3-0.1-0.8-0.2-1.2-0.4c-0.4-0.1-1.1-0.2-1.5-0.3c-0.4,0-1.1-0.1-1.5-0.1
	S93,52.3,92.9,52.3L92.9,52.3z M5.6,55.5c-0.2,0-0.4,0-0.6,0c-0.1,0-0.4,0.1-0.5,0.2c-0.1,0-0.4,0.2-0.6,0.3
	c-0.2,0.1-0.4,0.3-0.6,0.4c-0.2,0.1-0.4,0.4-0.5,0.5c-0.1,0.1-0.3,0.4-0.4,0.5S2,57.9,1.9,58.2c-0.1,0.3-0.4,0.7-0.5,1
	s-0.3,0.7-0.4,1c-0.1,0.3-0.3,0.9-0.4,1.2s-0.2,1-0.3,1.3s-0.1,0.9-0.2,1.2c-0.1,0.4-0.1,1-0.1,1.8c0,0.8,0,1.5,0,1.9
	c0,0.3,0.1,0.8,0.1,1.1c0,0.3,0.1,0.7,0.2,1s0.2,0.8,0.2,1.1c0.1,0.3,0.2,0.7,0.3,1c0.1,0.3,0.2,0.7,0.4,1s0.3,0.7,0.5,1
	c0.1,0.3,0.4,0.7,0.5,0.9c0.1,0.2,0.4,0.5,0.5,0.7s0.4,0.4,0.6,0.6c0.1,0.1,0.4,0.3,0.6,0.5s0.4,0.2,0.5,0.3C4.5,76.9,4.7,77,4.8,77
	c0.1,0,0.4,0.1,0.6,0.1c0.2,0,0.4,0,0.6,0c0.2,0,0.5-0.1,0.6-0.1c0.2,0,0.5-0.2,0.7-0.3c0.2-0.1,0.5-0.3,0.7-0.5s0.5-0.4,0.6-0.6
	c0.2-0.2,0.4-0.5,0.6-0.7s0.3-0.5,0.4-0.7c0.1-0.2,0.3-0.5,0.4-0.8s0.3-0.7,0.4-1s0.3-0.9,0.4-1.3s0.2-1,0.3-1.3
	c0.1-0.3,0.1-0.8,0.2-1.2c0.1-0.5,0.1-0.9,0.1-2.2c0-1.3,0-1.7-0.1-2.2c-0.1-0.3-0.1-0.9-0.2-1.2c-0.1-0.3-0.2-0.9-0.2-1.2
	c-0.1-0.3-0.2-0.9-0.4-1.2c-0.1-0.3-0.3-0.9-0.5-1.2c-0.1-0.4-0.4-0.9-0.6-1.1c-0.2-0.3-0.4-0.6-0.5-0.8S8.5,57,8.3,56.7
	c-0.3-0.2-0.6-0.5-0.8-0.7s-0.5-0.3-0.6-0.3c-0.2-0.1-0.5-0.2-0.6-0.2C6.1,55.5,5.8,55.5,5.6,55.5L5.6,55.5z M129.1,57.8
	c-0.3,0-0.5,0-0.8,0.1c-0.2,0-0.5,0.2-0.7,0.3s-0.5,0.3-0.6,0.4c-0.1,0.1-0.4,0.4-0.6,0.6c-0.2,0.2-0.5,0.5-0.6,0.8
	c-0.1,0.2-0.4,0.6-0.5,0.8c-0.1,0.2-0.3,0.6-0.5,0.9c-0.1,0.3-0.3,0.8-0.4,1.1c-0.1,0.3-0.3,0.9-0.4,1.2c-0.1,0.3-0.2,0.9-0.2,1.2
	c-0.1,0.3-0.1,0.9-0.2,1.2c-0.1,0.5-0.1,1-0.1,2.1c0,1,0,1.7,0.1,2c0,0.3,0.1,0.9,0.2,1.3c0.1,0.4,0.2,1.1,0.3,1.4
	c0.1,0.4,0.3,0.9,0.4,1.3c0.1,0.3,0.3,0.8,0.4,1s0.3,0.6,0.4,0.9c0.1,0.2,0.4,0.6,0.5,0.9c0.2,0.2,0.4,0.6,0.6,0.8
	c0.2,0.2,0.4,0.4,0.5,0.5c0.1,0.1,0.3,0.3,0.5,0.4c0.1,0.1,0.4,0.2,0.5,0.3c0.2,0.1,0.5,0.2,0.6,0.2c0.2,0.1,0.5,0.1,0.8,0.1
	s0.5,0,0.8-0.1c0.2,0,0.5-0.2,0.7-0.2c0.2-0.1,0.5-0.3,0.6-0.4s0.5-0.4,0.6-0.6c0.2-0.2,0.4-0.5,0.5-0.6c0.1-0.1,0.3-0.4,0.4-0.6
	c0.1-0.2,0.3-0.5,0.4-0.8c0.1-0.2,0.3-0.7,0.4-1c0.1-0.3,0.3-0.7,0.3-1c0.1-0.2,0.2-0.6,0.2-0.9c0-0.2,0.1-0.6,0.2-1
	s0.1-0.9,0.2-1.2c0-0.4,0.1-1.1,0.1-1.6c0-0.6,0-1.2,0-1.7c0-0.5-0.1-1-0.1-1.2c0-0.2-0.1-0.6-0.1-0.8s-0.1-0.6-0.1-0.9
	s-0.1-0.7-0.2-0.9c-0.1-0.3-0.2-0.7-0.3-1c-0.1-0.3-0.3-0.7-0.4-1c-0.1-0.3-0.3-0.7-0.5-1c-0.1-0.3-0.4-0.6-0.5-0.8
	c-0.1-0.2-0.3-0.5-0.5-0.6s-0.4-0.4-0.6-0.6c-0.2-0.2-0.5-0.4-0.6-0.5s-0.4-0.3-0.6-0.4s-0.5-0.2-0.6-0.2
	C129.7,57.8,129.5,57.8,129.1,57.8L129.1,57.8z M261.2,58.9c1.2,0,2.5,0.3,3.7,0.8c3.8,1.6,6.4,5.3,6.4,9.5
	c0,5.7-4.6,10.3-10.3,10.3c-4.2,0-7.9-2.5-9.5-6.3s-0.7-8.3,2.2-11.2C255.7,59.9,258.5,58.9,261.2,58.9L261.2,58.9z M510.8,58.9
	c5.7,0,10.3,4.6,10.3,10.3c0,4.2-2.5,7.9-6.3,9.5c-3.8,1.6-8.3,0.7-11.2-2.2s-3.8-7.4-2.2-11.2S506.6,58.9,510.8,58.9L510.8,58.9z
	 M361.3,59c2.2,0,4.3,0.7,6.1,2.1c0.1,0.1,0.1,0.1,0.2,0.2l-15.6,6.5v0c0.4-3.5,2.6-6.5,5.8-8C358.9,59.2,360.1,59,361.3,59
	L361.3,59z M19.9,77.2c-0.2,0-0.6,0-0.9,0c-0.3,0-0.7,0.1-0.9,0.1c-0.2,0-0.6,0.1-0.8,0.2c-0.2,0.1-0.6,0.2-0.9,0.4
	c-0.2,0.1-0.6,0.3-0.8,0.4s-0.4,0.3-0.6,0.5s-0.5,0.4-0.6,0.6c-0.2,0.2-0.4,0.5-0.6,0.7c-0.1,0.2-0.3,0.5-0.4,0.7s-0.2,0.5-0.3,0.8
	c-0.1,0.2-0.2,0.6-0.3,0.9c-0.1,0.3-0.2,0.8-0.2,1c0,0.3-0.1,0.8-0.1,1.3c0,0.5,0,1,0,1.3c0,0.3,0.1,0.8,0.1,1.2
	c0.1,0.4,0.2,0.9,0.2,1.2c0.1,0.3,0.2,0.7,0.3,1c0.1,0.2,0.2,0.7,0.4,1c0.1,0.4,0.4,1,0.6,1.4c0.2,0.4,0.5,1,0.7,1.2
	s0.4,0.7,0.6,0.9c0.1,0.2,0.4,0.6,0.6,0.8c0.2,0.3,0.5,0.6,0.7,0.9s0.7,0.7,1.1,1.1s0.9,0.9,1.2,1.1c0.2,0.2,0.7,0.5,1,0.8
	c0.3,0.2,0.8,0.5,1.1,0.7c0.3,0.2,0.8,0.5,1.1,0.6c0.3,0.1,0.8,0.4,1,0.5c0.3,0.1,0.7,0.3,1,0.3c0.3,0.1,0.7,0.2,0.9,0.2
	c0.2,0,0.6,0.1,0.9,0.1s0.8,0.1,1,0.1s0.7,0,1-0.1s0.7-0.1,0.9-0.2s0.5-0.1,0.7-0.2s0.5-0.2,0.7-0.3c0.2-0.1,0.6-0.4,0.8-0.5
	c0.2-0.1,0.6-0.5,0.8-0.7c0.3-0.3,0.6-0.6,0.8-0.9c0.2-0.2,0.4-0.6,0.5-0.9s0.3-0.6,0.4-0.9c0.1-0.2,0.2-0.6,0.2-0.9
	c0-0.2,0.1-0.6,0.2-0.9c0-0.2,0.1-0.8,0.1-1.2c0-0.5,0-1,0-1.4c0-0.3-0.1-0.8-0.1-1.1c0-0.3-0.2-0.9-0.2-1.2
	c-0.1-0.3-0.2-0.8-0.3-1.1c-0.1-0.3-0.3-0.7-0.4-1c-0.1-0.3-0.4-0.9-0.6-1.2s-0.5-0.9-0.6-1.2c-0.2-0.3-0.4-0.7-0.6-0.9
	c-0.2-0.2-0.4-0.6-0.6-0.8c-0.2-0.2-0.5-0.6-0.7-0.8c-0.2-0.2-0.5-0.6-0.8-0.9c-0.2-0.2-0.6-0.6-0.9-0.9s-0.7-0.6-0.9-0.8
	c-0.2-0.1-0.5-0.4-0.8-0.6c-0.2-0.2-0.6-0.4-0.8-0.5c-0.2-0.1-0.5-0.3-0.8-0.5s-0.6-0.3-0.9-0.4c-0.2-0.1-0.6-0.2-0.8-0.3
	c-0.2-0.1-0.6-0.2-0.9-0.3c-0.3-0.1-0.7-0.2-0.9-0.2c-0.2,0-0.6-0.1-0.8-0.1C20.5,77.2,20.1,77.2,19.9,77.2L19.9,77.2z M67.6,77.6
	c-0.1,0-0.4,0-0.8,0s-0.8,0.1-1.1,0.1c-0.3,0-0.7,0.1-1,0.2c-0.2,0-0.6,0.1-0.9,0.2c-0.3,0.1-0.7,0.2-1,0.3
	c-0.3,0.1-0.7,0.2-0.9,0.3c-0.2,0.1-0.7,0.3-1.1,0.5s-0.9,0.5-1.2,0.6c-0.3,0.2-0.7,0.4-0.9,0.6c-0.2,0.2-0.6,0.4-0.8,0.6
	c-0.2,0.2-0.6,0.5-0.8,0.7c-0.3,0.2-0.7,0.7-1,0.9c-0.3,0.3-0.6,0.7-0.8,1c-0.2,0.2-0.5,0.7-0.7,0.9c-0.2,0.3-0.5,0.7-0.6,1
	c-0.2,0.3-0.4,0.8-0.6,1.1c-0.1,0.3-0.4,0.8-0.5,1.1c-0.1,0.3-0.3,0.8-0.4,1.1s-0.2,0.9-0.3,1.2c-0.1,0.4-0.1,0.9-0.2,1.1
	c0,0.3-0.1,1-0.1,1.6c0,0.8,0,1.2,0,1.7c0,0.4,0.1,0.9,0.1,1.2c0,0.3,0.2,0.8,0.2,1.1s0.2,0.9,0.3,1.2c0.1,0.3,0.3,0.8,0.4,1.1
	c0.1,0.3,0.3,0.7,0.5,1c0.1,0.3,0.4,0.8,0.6,1c0.2,0.3,0.4,0.7,0.6,0.9c0.2,0.2,0.5,0.6,0.6,0.8c0.2,0.2,0.7,0.8,1.1,1.2
	c0.4,0.4,1,0.9,1.2,1.1c0.2,0.2,0.6,0.5,0.8,0.6s0.6,0.4,0.9,0.6c0.3,0.2,0.8,0.5,1.2,0.6c0.4,0.2,0.9,0.4,1.1,0.5
	c0.2,0.1,0.6,0.2,0.9,0.3s0.8,0.2,1.1,0.3c0.3,0.1,0.8,0.2,1.1,0.2c0.3,0,0.7,0.1,0.9,0.1c0.3,0,0.9,0,1.7,0c0.9,0,1.4,0,1.8-0.1
	c0.3,0,0.8-0.1,1-0.2c0.2,0,0.7-0.1,1-0.2s0.8-0.2,1.1-0.3c0.3-0.1,0.8-0.3,1.2-0.5s0.9-0.4,1.2-0.6c0.3-0.2,0.8-0.5,1.2-0.7
	c0.4-0.2,0.9-0.6,1.1-0.8c0.2-0.2,0.6-0.5,0.9-0.8c0.2-0.2,0.6-0.6,0.8-0.8c0.2-0.2,0.6-0.6,0.8-0.9c0.2-0.2,0.5-0.7,0.8-1
	c0.2-0.3,0.5-0.9,0.7-1.1c0.2-0.3,0.4-0.8,0.5-1c0.1-0.3,0.3-0.7,0.4-1c0.1-0.3,0.3-0.8,0.4-1.1c0.1-0.3,0.2-0.9,0.3-1.2
	c0.1-0.3,0.1-0.8,0.2-1.1c0-0.3,0.1-0.8,0.1-1.2s0-1,0-1.5c0-0.4-0.1-1-0.1-1.2c0-0.3-0.1-0.7-0.1-0.9c0-0.2-0.1-0.7-0.2-0.9
	c-0.1-0.2-0.2-0.7-0.3-1c-0.1-0.3-0.3-0.7-0.4-1c-0.1-0.3-0.3-0.8-0.5-1.1c-0.2-0.3-0.4-0.8-0.6-1.1c-0.2-0.3-0.4-0.7-0.6-0.9
	s-0.5-0.6-0.7-0.9c-0.2-0.2-0.6-0.7-1-1.1s-0.9-0.8-1.1-1s-0.7-0.5-0.9-0.7S76,80,75.7,79.8c-0.3-0.2-0.8-0.4-1.1-0.6
	c-0.3-0.2-0.8-0.4-1.1-0.5s-0.8-0.3-1-0.4c-0.3-0.1-0.7-0.2-0.9-0.3c-0.2,0-0.6-0.1-0.9-0.2c-0.2,0-0.7-0.1-0.9-0.1
	c-0.3,0-0.8-0.1-1.2-0.1S67.7,77.6,67.6,77.6L67.6,77.6z M115.1,77.8c-0.1,0-0.3,0-0.5,0s-0.6,0.1-0.8,0.1c-0.2,0-0.7,0.1-1,0.2
	s-0.7,0.2-1,0.3c-0.2,0.1-0.6,0.2-0.9,0.3c-0.2,0.1-0.6,0.3-0.9,0.4c-0.2,0.1-0.6,0.4-0.9,0.5s-0.6,0.4-0.9,0.6s-0.6,0.4-0.8,0.6
	s-0.6,0.5-0.9,0.8c-0.3,0.2-0.8,0.7-1,1c-0.3,0.3-0.7,0.8-0.9,1.1c-0.2,0.3-0.6,0.7-0.7,1s-0.5,0.7-0.6,1c-0.2,0.3-0.5,0.9-0.8,1.4
	c-0.2,0.5-0.5,1.1-0.7,1.5c-0.1,0.4-0.3,0.9-0.4,1.2c-0.1,0.3-0.2,0.9-0.3,1.2s-0.2,0.8-0.2,1.1c-0.1,0.4-0.1,0.9-0.1,1.5
	c0,0.7,0,1.1,0,1.5c0,0.3,0.1,0.8,0.2,1.1c0.1,0.3,0.2,0.7,0.2,0.9s0.2,0.6,0.3,0.8c0.1,0.2,0.3,0.5,0.4,0.7
	c0.1,0.2,0.3,0.5,0.4,0.6c0.1,0.2,0.4,0.5,0.7,0.7s0.6,0.5,0.8,0.7c0.2,0.1,0.6,0.3,0.8,0.4c0.2,0.1,0.5,0.2,0.8,0.3
	s0.6,0.2,0.8,0.2c0.2,0,0.6,0.1,0.9,0.1c0.3,0,0.7,0,1.1,0c0.4,0,0.9-0.1,1.1-0.1c0.3,0,0.7-0.1,1-0.2c0.3-0.1,0.7-0.2,1-0.3
	c0.3-0.1,0.9-0.4,1.3-0.6c0.4-0.2,1-0.5,1.2-0.7c0.3-0.2,0.6-0.4,0.8-0.5s0.5-0.4,0.8-0.6c0.2-0.2,0.6-0.5,0.9-0.8
	c0.3-0.2,0.7-0.7,1-1c0.3-0.3,0.7-0.8,0.9-1s0.5-0.7,0.7-0.9c0.2-0.2,0.5-0.7,0.7-1c0.2-0.3,0.5-0.9,0.7-1.3s0.5-0.9,0.6-1.2
	c0.1-0.3,0.3-0.8,0.4-1.1c0.1-0.3,0.3-0.9,0.4-1.2c0.1-0.3,0.2-0.9,0.3-1.2c0.1-0.3,0.1-0.9,0.1-1.2c0-0.4,0-0.9,0-1.3
	c0-0.4-0.1-0.9-0.1-1.1s-0.1-0.6-0.1-0.8c0-0.2-0.2-0.6-0.3-0.9c-0.1-0.3-0.2-0.7-0.4-0.9s-0.3-0.5-0.4-0.8
	c-0.1-0.2-0.4-0.6-0.6-0.8c-0.2-0.2-0.5-0.5-0.7-0.7c-0.2-0.2-0.5-0.4-0.7-0.5c-0.2-0.1-0.5-0.3-0.8-0.4s-0.6-0.3-0.8-0.3
	c-0.2-0.1-0.6-0.2-0.8-0.2c-0.2,0-0.7-0.1-1-0.1C115.5,77.9,115.2,77.8,115.1,77.8L115.1,77.8z M11,96.4c-0.3,0-0.5,0-0.7,0.1
	c-0.2,0-0.4,0.1-0.6,0.2S9.4,96.9,9.3,97c-0.1,0.1-0.3,0.3-0.4,0.4c-0.1,0.1-0.2,0.4-0.3,0.5c-0.1,0.2-0.2,0.4-0.2,0.6
	c0,0.2-0.1,0.5-0.1,0.7c0,0.2-0.1,0.5-0.1,0.7c0,0.2,0,0.6,0.1,0.8c0,0.3,0.1,0.7,0.2,1c0.1,0.3,0.2,0.8,0.3,1.1
	c0.1,0.3,0.3,0.8,0.4,1s0.3,0.7,0.5,1s0.4,0.8,0.6,1s0.4,0.6,0.5,0.8c0.1,0.2,0.4,0.6,0.6,0.8c0.2,0.2,0.5,0.6,0.8,0.9
	c0.2,0.3,0.6,0.7,0.9,0.9c0.3,0.2,0.6,0.5,0.8,0.7c0.2,0.1,0.5,0.4,0.8,0.5s0.6,0.4,0.9,0.5c0.2,0.1,0.6,0.3,0.9,0.4
	s0.6,0.2,0.8,0.2c0.2,0,0.5,0.1,0.7,0.1s0.5,0,0.6-0.1c0.2,0,0.5-0.1,0.7-0.2c0.2-0.1,0.4-0.2,0.6-0.4c0.1-0.1,0.3-0.3,0.4-0.5
	s0.3-0.5,0.3-0.6s0.2-0.5,0.2-0.7s0.1-0.6,0.1-0.9c0-0.4,0-0.7-0.1-1.1c0-0.3-0.1-0.7-0.2-1s-0.2-0.8-0.3-1.1
	c-0.1-0.3-0.3-0.8-0.4-1.1s-0.3-0.8-0.5-1s-0.4-0.7-0.5-0.9c-0.1-0.2-0.4-0.6-0.6-0.9c-0.2-0.3-0.5-0.7-0.7-0.9
	c-0.2-0.2-0.6-0.7-1-1.1c-0.4-0.4-0.8-0.8-1.1-1s-0.6-0.5-0.9-0.6s-0.7-0.4-0.9-0.5c-0.3-0.1-0.7-0.3-0.9-0.4
	c-0.2-0.1-0.6-0.2-0.8-0.2C11.6,96.5,11.2,96.4,11,96.4L11,96.4z M123.7,96.8c-0.2,0-0.5,0-0.8,0c-0.2,0-0.6,0.1-0.8,0.2
	c-0.2,0.1-0.6,0.2-0.8,0.3c-0.2,0.1-0.5,0.3-0.8,0.4c-0.2,0.1-0.6,0.4-0.9,0.6s-0.7,0.5-0.9,0.8c-0.2,0.2-0.6,0.6-0.9,0.8
	s-0.6,0.6-0.8,0.9c-0.2,0.3-0.6,0.7-0.8,1s-0.5,0.7-0.6,0.9s-0.3,0.6-0.5,0.9c-0.1,0.3-0.4,0.8-0.5,1.1c-0.1,0.3-0.3,0.8-0.4,1.1
	c-0.1,0.3-0.2,0.7-0.2,1c-0.1,0.3-0.1,0.8-0.1,1.1c0,0.4,0,0.7,0,1c0,0.3,0.1,0.6,0.1,0.8s0.1,0.5,0.2,0.6s0.2,0.4,0.3,0.6
	c0.1,0.2,0.3,0.4,0.5,0.5c0.1,0.1,0.4,0.2,0.5,0.3c0.1,0.1,0.4,0.1,0.5,0.2c0.2,0,0.5,0.1,0.7,0.1c0.3,0,0.6,0,0.8-0.1
	c0.2,0,0.5-0.1,0.6-0.2c0.2,0,0.6-0.2,0.8-0.3c0.3-0.1,0.7-0.3,0.9-0.5c0.2-0.1,0.6-0.4,0.8-0.6c0.3-0.2,0.7-0.5,0.9-0.8
	s0.7-0.6,0.9-0.9c0.2-0.2,0.5-0.6,0.7-0.9c0.2-0.2,0.5-0.7,0.8-1.1c0.2-0.4,0.6-0.9,0.8-1.2c0.2-0.3,0.4-0.8,0.5-1s0.3-0.7,0.4-0.9
	c0.1-0.2,0.2-0.6,0.3-0.9c0.1-0.3,0.2-0.6,0.2-0.9s0.1-0.6,0.1-0.8c0-0.2,0-0.7,0-1.1c0-0.6,0-0.8-0.1-1.1c0-0.2-0.2-0.6-0.3-0.8
	c-0.1-0.3-0.3-0.5-0.5-0.7c-0.2-0.2-0.4-0.3-0.6-0.5c-0.2-0.1-0.4-0.2-0.6-0.2C124.2,96.9,123.9,96.8,123.7,96.8L123.7,96.8z
	 M93.4,100.9c-0.1,0-0.5,0-0.7,0.1c-0.2,0-0.7,0.1-1,0.1c-0.3,0-0.7,0.1-1,0.2c-0.3,0.1-0.7,0.2-1,0.3c-0.3,0.1-0.8,0.3-1.2,0.4
	s-1,0.4-1.4,0.6s-0.9,0.5-1.1,0.6c-0.3,0.1-0.7,0.4-0.9,0.6c-0.2,0.2-0.6,0.4-0.9,0.6c-0.2,0.2-0.6,0.5-0.9,0.7
	c-0.3,0.2-0.8,0.7-1.1,1.1c-0.4,0.4-0.8,0.9-1,1.1c-0.2,0.3-0.5,0.6-0.6,0.7c-0.1,0.1-0.3,0.5-0.5,0.8c-0.2,0.3-0.4,0.6-0.5,0.8
	s-0.3,0.5-0.4,0.8c-0.1,0.3-0.3,0.7-0.4,0.9c-0.1,0.2-0.2,0.6-0.3,0.8s-0.2,0.6-0.2,0.8s-0.1,0.6-0.2,0.9c0,0.3-0.1,0.8-0.1,1.2
	c0,0.5,0,0.9,0,1.2c0,0.2,0.1,0.6,0.1,0.8c0,0.2,0.1,0.6,0.2,0.8s0.2,0.6,0.4,0.9c0.1,0.2,0.4,0.6,0.5,0.8c0.2,0.2,0.4,0.5,0.5,0.6
	s0.4,0.4,0.5,0.5c0.2,0.1,0.4,0.3,0.6,0.5c0.2,0.1,0.5,0.3,0.8,0.4c0.2,0.1,0.6,0.3,0.9,0.4s0.6,0.2,0.9,0.2c0.3,0.1,0.7,0.1,1,0.2
	c0.3,0,0.8,0.1,1.4,0.1c0.5,0,1.1,0,1.3,0s0.7-0.1,1-0.1c0.3-0.1,0.8-0.2,1-0.2c0.3-0.1,0.7-0.2,1-0.3c0.3-0.1,0.8-0.3,1.1-0.4
	c0.3-0.1,0.8-0.3,1.1-0.5c0.3-0.1,0.8-0.4,1.1-0.6s0.8-0.5,1.1-0.7s0.7-0.5,1-0.7s0.6-0.5,0.8-0.6s0.7-0.6,1-1c0.3-0.4,0.8-0.8,1-1
	c0.2-0.2,0.5-0.6,0.8-1c0.2-0.3,0.6-0.8,0.8-1.1c0.2-0.3,0.5-0.8,0.6-1.1c0.2-0.3,0.4-0.8,0.5-1.1c0.1-0.3,0.3-0.8,0.4-1
	s0.2-0.7,0.2-1c0-0.2,0.1-0.6,0.1-0.9c0-0.3,0-0.7,0-1.2c0-0.5,0-0.9-0.1-1.1c0-0.2-0.1-0.5-0.2-0.7c0-0.2-0.2-0.5-0.2-0.7
	c-0.1-0.2-0.2-0.5-0.3-0.6c-0.1-0.2-0.3-0.5-0.4-0.7c-0.1-0.2-0.4-0.5-0.5-0.7s-0.4-0.4-0.6-0.6c-0.2-0.1-0.5-0.3-0.6-0.5
	s-0.5-0.3-0.8-0.4c-0.3-0.1-0.7-0.3-1-0.4s-0.7-0.2-0.9-0.2s-0.6-0.1-0.9-0.1c-0.3,0-0.8-0.1-1.1-0.1S93.5,100.9,93.4,100.9
	L93.4,100.9z M41.7,101c-0.5,0-1,0-1.2,0s-0.6,0.1-0.9,0.1c-0.3,0.1-0.8,0.2-1.1,0.3c-0.3,0.1-0.8,0.3-1,0.4
	c-0.3,0.1-0.6,0.3-0.8,0.5c-0.2,0.1-0.5,0.4-0.7,0.5c-0.2,0.2-0.5,0.4-0.6,0.6c-0.1,0.2-0.4,0.5-0.5,0.6c-0.1,0.2-0.3,0.5-0.4,0.7
	c-0.1,0.2-0.3,0.5-0.3,0.8s-0.2,0.5-0.2,0.7c0,0.2-0.1,0.5-0.1,0.8c0,0.2-0.1,0.7-0.1,1.1s0,0.9,0.1,1.1s0.1,0.7,0.1,0.9
	c0,0.2,0.1,0.6,0.2,0.9c0.1,0.3,0.2,0.7,0.3,0.9c0.1,0.2,0.3,0.6,0.4,0.9c0.1,0.3,0.4,0.8,0.6,1.1s0.5,0.8,0.6,1s0.5,0.7,0.8,1
	s0.7,0.8,1.1,1.2s0.8,0.8,1,1c0.2,0.2,0.6,0.5,0.9,0.8c0.3,0.2,0.8,0.6,1.1,0.8c0.3,0.2,0.7,0.5,0.9,0.6c0.2,0.1,0.7,0.4,1.1,0.6
	s1,0.5,1.2,0.6c0.3,0.1,0.7,0.3,0.9,0.3c0.2,0.1,0.7,0.2,1,0.3s0.8,0.2,1.1,0.2c0.3,0.1,0.8,0.1,1,0.2c0.3,0,0.9,0,1.4,0
	c0.6,0,1.1,0,1.4-0.1c0.3,0,0.8-0.1,1-0.2c0.3-0.1,0.7-0.2,0.9-0.3s0.6-0.2,0.8-0.4s0.6-0.3,0.8-0.5c0.3-0.2,0.6-0.5,0.9-0.8
	c0.3-0.3,0.6-0.7,0.8-0.9c0.1-0.2,0.4-0.6,0.5-0.8c0.1-0.2,0.3-0.6,0.4-0.9c0.1-0.2,0.2-0.7,0.2-0.9c0.1-0.4,0.1-0.6,0.1-1.4
	c0-0.7,0-1.1-0.1-1.4c0-0.2-0.1-0.7-0.2-1c-0.1-0.3-0.2-0.8-0.3-1.1c-0.1-0.3-0.4-0.9-0.6-1.3c-0.2-0.4-0.5-1-0.7-1.2
	c-0.2-0.2-0.4-0.6-0.5-0.8s-0.4-0.5-0.6-0.8c-0.2-0.2-0.5-0.6-0.8-1s-0.8-0.8-1-1c-0.3-0.3-0.8-0.7-1-0.9c-0.3-0.2-0.8-0.6-1.1-0.8
	c-0.3-0.2-0.8-0.5-1.1-0.7c-0.3-0.2-0.8-0.4-1.1-0.6c-0.4-0.2-0.9-0.4-1.1-0.5c-0.3-0.1-0.8-0.3-1.1-0.4c-0.3-0.1-0.9-0.3-1.3-0.4
	s-0.9-0.2-1.2-0.2c-0.3,0-0.7-0.1-1-0.1C42.7,101,42.1,101,41.7,101L41.7,101z M108.6,113.9c-0.2,0-0.5,0-0.7,0
	c-0.2,0-0.5,0.1-0.6,0.1c-0.1,0-0.4,0.1-0.5,0.1c-0.2,0-0.5,0.1-0.8,0.2s-0.7,0.2-1,0.4c-0.3,0.1-0.8,0.3-1,0.5
	c-0.3,0.1-0.7,0.4-1,0.5c-0.3,0.1-0.6,0.4-0.8,0.5c-0.2,0.1-0.6,0.4-0.8,0.6c-0.2,0.2-0.6,0.5-0.8,0.6c-0.2,0.2-0.6,0.6-1,0.9
	c-0.3,0.3-0.7,0.8-0.9,1c-0.2,0.2-0.5,0.6-0.6,0.8c-0.1,0.2-0.3,0.5-0.5,0.8s-0.3,0.6-0.4,0.8c-0.1,0.2-0.2,0.6-0.3,0.8
	c-0.1,0.2-0.1,0.5-0.1,0.9c0,0.4,0,0.6,0,0.9c0,0.2,0.1,0.4,0.2,0.6c0.1,0.2,0.2,0.4,0.4,0.6c0.1,0.2,0.4,0.4,0.6,0.5
	c0.2,0.1,0.4,0.2,0.6,0.3c0.2,0.1,0.4,0.1,0.6,0.2c0.2,0,0.5,0.1,0.9,0.1c0.3,0,0.8,0,1,0c0.2,0,0.7-0.1,1-0.2c0.3,0,0.7-0.2,1-0.2
	c0.3-0.1,0.7-0.2,1-0.4c0.3-0.1,0.8-0.3,1.1-0.5s0.8-0.4,1-0.6c0.3-0.1,0.7-0.4,1-0.6c0.3-0.2,0.7-0.5,0.9-0.6
	c0.2-0.2,0.6-0.5,0.9-0.7c0.2-0.2,0.7-0.6,0.9-0.9c0.2-0.3,0.6-0.6,0.7-0.8c0.1-0.2,0.4-0.5,0.5-0.8c0.1-0.2,0.4-0.6,0.5-0.9
	s0.3-0.6,0.4-0.9c0.1-0.2,0.2-0.5,0.2-0.7c0-0.2,0.1-0.5,0.1-0.8c0-0.4,0-0.6-0.1-0.8c0-0.1-0.1-0.4-0.2-0.5
	c-0.1-0.2-0.2-0.4-0.5-0.6c-0.3-0.3-0.4-0.4-0.7-0.5c-0.2-0.1-0.5-0.2-0.7-0.3s-0.5-0.1-0.8-0.1C109.1,114,108.8,113.9,108.6,113.9
	L108.6,113.9z M26.7,114.4c-0.3,0-0.7,0-0.9,0.1s-0.5,0.1-0.6,0.2c-0.2,0.1-0.4,0.2-0.6,0.2c-0.1,0.1-0.4,0.3-0.6,0.5
	c-0.2,0.2-0.3,0.4-0.4,0.5c-0.1,0.1-0.2,0.3-0.2,0.5c-0.1,0.2-0.1,0.4-0.1,0.8c0,0.4,0,0.6,0.1,1c0,0.2,0.1,0.6,0.2,0.8
	c0.1,0.2,0.2,0.6,0.4,0.8c0.1,0.2,0.4,0.6,0.5,0.9c0.2,0.3,0.5,0.7,0.7,1s0.6,0.7,0.8,0.9c0.2,0.2,0.6,0.6,0.9,0.8
	c0.2,0.2,0.6,0.5,0.8,0.6c0.2,0.1,0.5,0.4,0.8,0.6c0.3,0.2,0.7,0.4,0.9,0.6c0.2,0.1,0.6,0.3,0.8,0.4s0.6,0.3,0.9,0.4
	c0.2,0.1,0.6,0.3,0.9,0.3c0.2,0.1,0.6,0.2,0.9,0.3c0.3,0.1,0.7,0.2,1,0.2c0.3,0,0.7,0.1,0.9,0.1c0.2,0,0.6,0,0.9,0
	c0.2,0,0.6-0.1,0.8-0.1c0.2,0,0.5-0.2,0.7-0.3c0.3-0.1,0.5-0.3,0.7-0.4c0.1-0.1,0.4-0.4,0.4-0.5c0.1-0.1,0.2-0.4,0.3-0.6
	c0.1-0.2,0.1-0.5,0.1-0.8c0-0.3,0-0.5,0-0.8c0-0.2-0.1-0.6-0.2-0.8c-0.1-0.2-0.2-0.6-0.3-0.8c-0.1-0.2-0.3-0.6-0.4-0.8
	c-0.1-0.2-0.4-0.6-0.6-0.8c-0.2-0.3-0.5-0.7-0.8-0.9s-0.6-0.6-0.8-0.8c-0.2-0.2-0.6-0.6-0.9-0.8c-0.3-0.2-0.8-0.6-1.2-0.9
	c-0.4-0.2-0.8-0.5-1-0.6c-0.2-0.1-0.5-0.3-0.8-0.4c-0.2-0.1-0.6-0.3-0.9-0.4s-0.7-0.3-1-0.4c-0.3-0.1-0.8-0.2-1-0.3
	c-0.3-0.1-0.7-0.1-1-0.2S27,114.4,26.7,114.4L26.7,114.4z M68.3,123.5c-0.3,0-0.8,0-1.1,0c-0.3,0-0.9,0.1-1.3,0.1
	c-0.4,0-0.9,0.1-1.3,0.2c-0.3,0.1-0.9,0.2-1.2,0.3c-0.3,0.1-0.8,0.2-1.1,0.3c-0.3,0.1-0.8,0.3-1.2,0.5c-0.4,0.2-0.9,0.5-1.2,0.7
	c-0.4,0.2-0.7,0.5-1,0.8c-0.3,0.3-0.6,0.6-0.7,0.8c-0.1,0.2-0.3,0.5-0.3,0.6c-0.1,0.2-0.1,0.5-0.2,0.6c0,0.2-0.1,0.5,0,0.8
	c0,0.2,0,0.5,0.1,0.6c0,0.1,0.2,0.4,0.3,0.7c0.1,0.2,0.3,0.6,0.5,0.8c0.1,0.2,0.4,0.5,0.5,0.6c0.1,0.1,0.5,0.4,0.7,0.5
	c0.2,0.2,0.5,0.4,0.7,0.5c0.2,0.1,0.5,0.3,0.7,0.4c0.2,0.1,0.7,0.3,1,0.4s0.7,0.3,0.9,0.3c0.2,0.1,0.6,0.2,0.9,0.2s0.8,0.2,1.1,0.2
	s0.9,0.1,1.3,0.2c0.5,0,1.1,0.1,1.8,0.1c0.7,0,1.4,0,1.8,0c0.4,0,0.9-0.1,1.2-0.1c0.3,0,0.8-0.1,1.1-0.2s0.8-0.1,1-0.2
	s0.6-0.2,0.9-0.2s0.7-0.2,1-0.4c0.3-0.1,0.7-0.3,1-0.4s0.7-0.4,1-0.6c0.4-0.2,0.6-0.5,1-0.8c0.3-0.3,0.6-0.6,0.7-0.8
	c0.1-0.2,0.3-0.5,0.4-0.7c0.1-0.2,0.2-0.5,0.2-0.7c0-0.2,0-0.5,0-0.7c0-0.2-0.1-0.5-0.1-0.7s-0.2-0.4-0.2-0.6
	c-0.1-0.2-0.2-0.4-0.3-0.5c-0.1-0.1-0.3-0.4-0.5-0.6c-0.2-0.2-0.6-0.5-0.8-0.7c-0.2-0.2-0.6-0.4-0.9-0.6c-0.2-0.1-0.7-0.4-1-0.5
	c-0.3-0.1-0.8-0.3-1.1-0.5c-0.3-0.1-0.8-0.3-1.1-0.3s-0.8-0.2-1.1-0.2c-0.4-0.1-0.9-0.2-1.3-0.2c-0.4,0-1-0.1-1.4-0.1
	S68.6,123.5,68.3,123.5L68.3,123.5z"/>
</svg>
